{
.appVersion = "1028";
DisplayStrings = (

glyphs = (
{
glyphname = Agrave;
lastChange = "2017-06-04 11:33:48 +0000";
layers = (
{
layerId = "05073167-317C-430E-AA64-F7AF394C318F";
paths = (
{
closed = 1;
nodes = (
"960 689 OFFCURVE",
"928 712 OFFCURVE",
"905 731 CURVE",
"902 734 OFFCURVE",
"878 728 OFFCURVE",
"865 717 CURVE",
"864 716 OFFCURVE",
"863 714 OFFCURVE",
"863 713 CURVE SMOOTH",
"863 711 OFFCURVE",
"864 710 OFFCURVE",
"865 709 CURVE",
"880 701 OFFCURVE",
"902 691 OFFCURVE",
"925 682 CURVE SMOOTH",
"948 673 OFFCURVE",
"972 664 OFFCURVE",
"988 660 CURVE",
"995 660 OFFCURVE",
"999 666 OFFCURVE",
"996 669 CURVE"
);
},
{
closed = 1;
nodes = (
"964 598 OFFCURVE",
"914 613 OFFCURVE",
"861 625 CURVE SMOOTH",
"808 636 OFFCURVE",
"751 644 OFFCURVE",
"696 644 CURVE SMOOTH",
"567 644 OFFCURVE",
"481 573 OFFCURVE",
"465 442 CURVE",
"466 435 OFFCURVE",
"472 433 OFFCURVE",
"475 440 CURVE",
"491 559 OFFCURVE",
"561 616 OFFCURVE",
"661 616 CURVE SMOOTH",
"749 616 OFFCURVE",
"848 594 OFFCURVE",
"937 565 CURVE",
"813 468 OFFCURVE",
"722 374 OFFCURVE",
"646 294 CURVE",
"623 293 OFFCURVE",
"602 293 OFFCURVE",
"584 293 CURVE",
"565 292 OFFCURVE",
"552 292 OFFCURVE",
"544 291 CURVE",
"539 290 OFFCURVE",
"533 289 OFFCURVE",
"528 287 CURVE SMOOTH",
"516 282 OFFCURVE",
"507 275 OFFCURVE",
"503 270 CURVE",
"501 267 OFFCURVE",
"502 266 OFFCURVE",
"505 265 CURVE",
"542 270 OFFCURVE",
"583 274 OFFCURVE",
"629 277 CURVE",
"594 240 OFFCURVE",
"563 207 OFFCURVE",
"534 180 CURVE SMOOTH",
"442 93 OFFCURVE",
"335 43 OFFCURVE",
"234 43 CURVE SMOOTH",
"157 43 OFFCURVE",
"109 75 OFFCURVE",
"89 116 CURVE SMOOTH",
"69 157 OFFCURVE",
"75 206 OFFCURVE",
"107 241 CURVE",
"108 250 OFFCURVE",
"101 254 OFFCURVE",
"97 251 CURVE",
"53 199 OFFCURVE",
"41 135 OFFCURVE",
"57 86 CURVE SMOOTH",
"72 37 OFFCURVE",
"114 0 OFFCURVE",
"182 0 CURVE SMOOTH",
"317 0 OFFCURVE",
"425 58 OFFCURVE",
"532 155 CURVE SMOOTH",
"571 190 OFFCURVE",
"611 231 OFFCURVE",
"655 278 CURVE",
"714 281 OFFCURVE",
"774 282 OFFCURVE",
"837 282 CURVE",
"825 227 OFFCURVE",
"819 172 OFFCURVE",
"819 119 CURVE SMOOTH",
"819 50 OFFCURVE",
"843 0 OFFCURVE",
"887 0 CURVE SMOOTH",
"903 0 OFFCURVE",
"923 13 OFFCURVE",
"943 31 CURVE SMOOTH",
"963 49 OFFCURVE",
"982 71 OFFCURVE",
"995 94 CURVE SMOOTH",
"998 99 OFFCURVE",
"992 103 OFFCURVE",
"988 100 CURVE",
"963 63 OFFCURVE",
"938 44 OFFCURVE",
"912 44 CURVE SMOOTH",
"873 44 OFFCURVE",
"859 81 OFFCURVE",
"859 145 CURVE SMOOTH",
"859 230 OFFCURVE",
"873 313 OFFCURVE",
"898 386 CURVE SMOOTH",
"922 459 OFFCURVE",
"957 522 OFFCURVE",
"1001 570 CURVE",
"1004 574 OFFCURVE",
"1006 577 OFFCURVE",
"1006 580 CURVE SMOOTH",
"1006 582 OFFCURVE",
"1005 584 OFFCURVE",
"1004 585 CURVE"
);
},
{
closed = 1;
nodes = (
"822 295 OFFCURVE",
"797 295 OFFCURVE",
"766 295 CURVE SMOOTH",
"735 295 OFFCURVE",
"703 295 OFFCURVE",
"671 294 CURVE",
"751 377 OFFCURVE",
"842 469 OFFCURVE",
"959 564 CURVE",
"903 488 OFFCURVE",
"863 392 OFFCURVE",
"840 295 CURVE"
);
}
);
width = 996;
}
);
note = Agrave;
unicode = 00C0;
},
{
glyphname = Aring;
lastChange = "2017-06-04 11:33:48 +0000";
layers = (
{
layerId = "05073167-317C-430E-AA64-F7AF394C318F";
paths = (
{
closed = 1;
nodes = (
"1008 753 OFFCURVE",
"1018 743 OFFCURVE",
"1018 722 CURVE SMOOTH",
"1018 698 OFFCURVE",
"1006 682 OFFCURVE",
"986 682 CURVE SMOOTH",
"965 682 OFFCURVE",
"956 695 OFFCURVE",
"956 714 CURVE SMOOTH",
"956 738 OFFCURVE",
"968 753 OFFCURVE",
"989 753 CURVE SMOOTH"
);
},
{
closed = 1;
nodes = (
"1009 670 OFFCURVE",
"1034 699 OFFCURVE",
"1034 730 CURVE SMOOTH",
"1034 750 OFFCURVE",
"1024 765 OFFCURVE",
"1001 765 CURVE SMOOTH",
"966 765 OFFCURVE",
"940 737 OFFCURVE",
"940 706 CURVE SMOOTH",
"940 686 OFFCURVE",
"952 670 OFFCURVE",
"973 670 CURVE SMOOTH"
);
},
{
closed = 1;
nodes = (
"964 598 OFFCURVE",
"914 613 OFFCURVE",
"861 625 CURVE SMOOTH",
"808 636 OFFCURVE",
"751 644 OFFCURVE",
"696 644 CURVE SMOOTH",
"567 644 OFFCURVE",
"481 573 OFFCURVE",
"465 442 CURVE",
"466 435 OFFCURVE",
"472 433 OFFCURVE",
"475 440 CURVE",
"491 559 OFFCURVE",
"561 616 OFFCURVE",
"661 616 CURVE SMOOTH",
"749 616 OFFCURVE",
"848 594 OFFCURVE",
"937 565 CURVE",
"813 468 OFFCURVE",
"722 374 OFFCURVE",
"646 294 CURVE",
"623 293 OFFCURVE",
"602 293 OFFCURVE",
"584 293 CURVE",
"565 292 OFFCURVE",
"552 292 OFFCURVE",
"544 291 CURVE",
"539 290 OFFCURVE",
"533 289 OFFCURVE",
"528 287 CURVE SMOOTH",
"516 282 OFFCURVE",
"507 275 OFFCURVE",
"503 270 CURVE",
"501 267 OFFCURVE",
"502 266 OFFCURVE",
"505 265 CURVE",
"542 270 OFFCURVE",
"583 274 OFFCURVE",
"629 277 CURVE",
"594 240 OFFCURVE",
"563 207 OFFCURVE",
"534 180 CURVE SMOOTH",
"442 93 OFFCURVE",
"335 43 OFFCURVE",
"234 43 CURVE SMOOTH",
"157 43 OFFCURVE",
"109 75 OFFCURVE",
"89 116 CURVE SMOOTH",
"69 157 OFFCURVE",
"75 206 OFFCURVE",
"107 241 CURVE",
"108 250 OFFCURVE",
"101 254 OFFCURVE",
"97 251 CURVE",
"53 199 OFFCURVE",
"41 135 OFFCURVE",
"57 86 CURVE SMOOTH",
"72 37 OFFCURVE",
"114 0 OFFCURVE",
"182 0 CURVE SMOOTH",
"317 0 OFFCURVE",
"425 58 OFFCURVE",
"532 155 CURVE SMOOTH",
"571 190 OFFCURVE",
"611 231 OFFCURVE",
"655 278 CURVE",
"714 281 OFFCURVE",
"774 282 OFFCURVE",
"837 282 CURVE",
"825 227 OFFCURVE",
"819 172 OFFCURVE",
"819 119 CURVE SMOOTH",
"819 50 OFFCURVE",
"843 0 OFFCURVE",
"887 0 CURVE SMOOTH",
"903 0 OFFCURVE",
"923 13 OFFCURVE",
"943 31 CURVE SMOOTH",
"963 49 OFFCURVE",
"982 71 OFFCURVE",
"995 94 CURVE SMOOTH",
"998 99 OFFCURVE",
"992 103 OFFCURVE",
"988 100 CURVE",
"963 63 OFFCURVE",
"938 44 OFFCURVE",
"912 44 CURVE SMOOTH",
"873 44 OFFCURVE",
"859 81 OFFCURVE",
"859 145 CURVE SMOOTH",
"859 230 OFFCURVE",
"873 313 OFFCURVE",
"898 386 CURVE SMOOTH",
"922 459 OFFCURVE",
"957 522 OFFCURVE",
"1001 570 CURVE",
"1004 574 OFFCURVE",
"1006 577 OFFCURVE",
"1006 580 CURVE SMOOTH",
"1006 582 OFFCURVE",
"1005 584 OFFCURVE",
"1004 585 CURVE"
);
},
{
closed = 1;
nodes = (
"822 295 OFFCURVE",
"797 295 OFFCURVE",
"766 295 CURVE SMOOTH",
"735 295 OFFCURVE",
"703 295 OFFCURVE",
"671 294 CURVE",
"751 377 OFFCURVE",
"842 469 OFFCURVE",
"959 564 CURVE",
"903 488 OFFCURVE",
"863 392 OFFCURVE",
"840 295 CURVE"
);
}
);
width = 996;
}
);
note = Aring;
unicode = 00C5;
},
{
glyphname = Atilde;
lastChange = "2017-06-04 11:33:48 +0000";
layers = (
{
layerId = "05073167-317C-430E-AA64-F7AF394C318F";
paths = (
{
closed = 1;
nodes = (
"867 669 OFFCURVE",
"872 664 OFFCURVE",
"877 667 CURVE",
"892 686 OFFCURVE",
"906 698 OFFCURVE",
"923 698 CURVE SMOOTH",
"936 698 OFFCURVE",
"950 690 OFFCURVE",
"964 682 CURVE",
"978 673 OFFCURVE",
"992 665 OFFCURVE",
"1011 665 CURVE SMOOTH",
"1051 665 OFFCURVE",
"1071 688 OFFCURVE",
"1087 724 CURVE",
"1088 728 OFFCURVE",
"1082 731 OFFCURVE",
"1079 728 CURVE",
"1066 700 OFFCURVE",
"1052 684 OFFCURVE",
"1028 684 CURVE SMOOTH",
"1007 684 OFFCURVE",
"991 693 OFFCURVE",
"977 702 CURVE",
"963 710 OFFCURVE",
"951 719 OFFCURVE",
"935 719 CURVE SMOOTH",
"912 719 OFFCURVE",
"885 694 OFFCURVE",
"870 673 CURVE SMOOTH"
);
},
{
closed = 1;
nodes = (
"964 598 OFFCURVE",
"914 613 OFFCURVE",
"861 625 CURVE SMOOTH",
"808 636 OFFCURVE",
"751 644 OFFCURVE",
"696 644 CURVE SMOOTH",
"567 644 OFFCURVE",
"481 573 OFFCURVE",
"465 442 CURVE",
"466 435 OFFCURVE",
"472 433 OFFCURVE",
"475 440 CURVE",
"491 559 OFFCURVE",
"561 616 OFFCURVE",
"661 616 CURVE SMOOTH",
"749 616 OFFCURVE",
"848 594 OFFCURVE",
"937 565 CURVE",
"813 468 OFFCURVE",
"722 374 OFFCURVE",
"646 294 CURVE",
"623 293 OFFCURVE",
"602 293 OFFCURVE",
"584 293 CURVE",
"565 292 OFFCURVE",
"552 292 OFFCURVE",
"544 291 CURVE",
"539 290 OFFCURVE",
"533 289 OFFCURVE",
"528 287 CURVE SMOOTH",
"516 282 OFFCURVE",
"507 275 OFFCURVE",
"503 270 CURVE",
"501 267 OFFCURVE",
"502 266 OFFCURVE",
"505 265 CURVE",
"542 270 OFFCURVE",
"583 274 OFFCURVE",
"629 277 CURVE",
"594 240 OFFCURVE",
"563 207 OFFCURVE",
"534 180 CURVE SMOOTH",
"442 93 OFFCURVE",
"335 43 OFFCURVE",
"234 43 CURVE SMOOTH",
"157 43 OFFCURVE",
"109 75 OFFCURVE",
"89 116 CURVE SMOOTH",
"69 157 OFFCURVE",
"75 206 OFFCURVE",
"107 241 CURVE",
"108 250 OFFCURVE",
"101 254 OFFCURVE",
"97 251 CURVE",
"53 199 OFFCURVE",
"41 135 OFFCURVE",
"57 86 CURVE SMOOTH",
"72 37 OFFCURVE",
"114 0 OFFCURVE",
"182 0 CURVE SMOOTH",
"317 0 OFFCURVE",
"425 58 OFFCURVE",
"532 155 CURVE SMOOTH",
"571 190 OFFCURVE",
"611 231 OFFCURVE",
"655 278 CURVE",
"714 281 OFFCURVE",
"774 282 OFFCURVE",
"837 282 CURVE",
"825 227 OFFCURVE",
"819 172 OFFCURVE",
"819 119 CURVE SMOOTH",
"819 50 OFFCURVE",
"843 0 OFFCURVE",
"887 0 CURVE SMOOTH",
"903 0 OFFCURVE",
"923 13 OFFCURVE",
"943 31 CURVE SMOOTH",
"963 49 OFFCURVE",
"982 71 OFFCURVE",
"995 94 CURVE SMOOTH",
"998 99 OFFCURVE",
"992 103 OFFCURVE",
"988 100 CURVE",
"963 63 OFFCURVE",
"938 44 OFFCURVE",
"912 44 CURVE SMOOTH",
"873 44 OFFCURVE",
"859 81 OFFCURVE",
"859 145 CURVE SMOOTH",
"859 230 OFFCURVE",
"873 313 OFFCURVE",
"898 386 CURVE SMOOTH",
"922 459 OFFCURVE",
"957 522 OFFCURVE",
"1001 570 CURVE",
"1004 574 OFFCURVE",
"1006 577 OFFCURVE",
"1006 580 CURVE SMOOTH",
"1006 582 OFFCURVE",
"1005 584 OFFCURVE",
"1004 585 CURVE"
);
},
{
closed = 1;
nodes = (
"822 295 OFFCURVE",
"797 295 OFFCURVE",
"766 295 CURVE SMOOTH",
"735 295 OFFCURVE",
"703 295 OFFCURVE",
"671 294 CURVE",
"751 377 OFFCURVE",
"842 469 OFFCURVE",
"959 564 CURVE",
"903 488 OFFCURVE",
"863 392 OFFCURVE",
"840 295 CURVE"
);
}
);
width = 996;
}
);
note = Atilde;
unicode = 00C3;
},
{
glyphname = C;
lastChange = "2017-06-04 11:33:48 +0000";
layers = (
{
layerId = "05073167-317C-430E-AA64-F7AF394C318F";
paths = (
{
closed = 1;
nodes = (
"349 644 OFFCURVE",
"250 597 OFFCURVE",
"180 525 CURVE SMOOTH",
"110 452 OFFCURVE",
"69 352 OFFCURVE",
"69 245 CURVE SMOOTH",
"69 176 OFFCURVE",
"94 114 OFFCURVE",
"139 70 CURVE SMOOTH",
"183 26 OFFCURVE",
"249 0 OFFCURVE",
"330 0 CURVE SMOOTH",
"389 0 OFFCURVE",
"441 10 OFFCURVE",
"484 26 CURVE",
"488 27 OFFCURVE",
"493 34 OFFCURVE",
"499 45 CURVE",
"504 56 OFFCURVE",
"510 69 OFFCURVE",
"516 84 CURVE SMOOTH",
"528 114 OFFCURVE",
"540 150 OFFCURVE",
"545 178 CURVE",
"545 185 OFFCURVE",
"537 187 OFFCURVE",
"534 180 CURVE",
"507 81 OFFCURVE",
"442 17 OFFCURVE",
"346 17 CURVE SMOOTH",
"274 17 OFFCURVE",
"218 45 OFFCURVE",
"179 91 CURVE SMOOTH",
"140 137 OFFCURVE",
"120 201 OFFCURVE",
"120 276 CURVE SMOOTH",
"120 379 OFFCURVE",
"153 466 OFFCURVE",
"210 528 CURVE SMOOTH",
"266 590 OFFCURVE",
"346 625 OFFCURVE",
"442 625 CURVE SMOOTH",
"479 625 OFFCURVE",
"511 620 OFFCURVE",
"539 609 CURVE SMOOTH",
"595 587 OFFCURVE",
"614 561 OFFCURVE",
"586 512 CURVE SMOOTH",
"583 507 OFFCURVE",
"590 502 OFFCURVE",
"594 505 CURVE",
"602 516 OFFCURVE",
"611 533 OFFCURVE",
"618 549 CURVE SMOOTH",
"625 565 OFFCURVE",
"630 581 OFFCURVE",
"630 592 CURVE SMOOTH",
"630 608 OFFCURVE",
"612 621 OFFCURVE",
"584 630 CURVE SMOOTH",
"555 639 OFFCURVE",
"514 644 OFFCURVE",
"466 644 CURVE SMOOTH"
);
}
);
width = 557;
}
);
note = C;
unicode = 0043;
},
{
glyphname = Ccedilla;
lastChange = "2017-06-04 11:33:48 +0000";
layers = (
{
layerId = "05073167-317C-430E-AA64-F7AF394C318F";
paths = (
{
closed = 1;
nodes = (
"629 607 OFFCURVE",
"612 621 OFFCURVE",
"583 630 CURVE SMOOTH",
"554 639 OFFCURVE",
"514 644 OFFCURVE",
"466 644 CURVE SMOOTH",
"349 644 OFFCURVE",
"250 597 OFFCURVE",
"180 524 CURVE SMOOTH",
"110 451 OFFCURVE",
"69 350 OFFCURVE",
"69 245 CURVE SMOOTH",
"69 176 OFFCURVE",
"93 115 OFFCURVE",
"138 71 CURVE SMOOTH",
"182 27 OFFCURVE",
"247 0 OFFCURVE",
"328 0 CURVE",
"311 -11 OFFCURVE",
"304 -33 OFFCURVE",
"309 -49 CURVE SMOOTH",
"317 -76 OFFCURVE",
"309 -94 OFFCURVE",
"274 -110 CURVE",
"271 -113 OFFCURVE",
"272 -119 OFFCURVE",
"276 -120 CURVE",
"323 -101 OFFCURVE",
"342 -64 OFFCURVE",
"330 -33 CURVE SMOOTH",
"326 -22 OFFCURVE",
"330 -8 OFFCURVE",
"341 0 CURVE",
"396 1 OFFCURVE",
"443 10 OFFCURVE",
"483 26 CURVE",
"487 27 OFFCURVE",
"492 34 OFFCURVE",
"498 45 CURVE SMOOTH",
"504 56 OFFCURVE",
"510 69 OFFCURVE",
"516 84 CURVE SMOOTH",
"528 114 OFFCURVE",
"539 149 OFFCURVE",
"544 177 CURVE",
"544 184 OFFCURVE",
"537 187 OFFCURVE",
"533 180 CURVE",
"506 81 OFFCURVE",
"441 17 OFFCURVE",
"345 17 CURVE SMOOTH",
"273 17 OFFCURVE",
"217 45 OFFCURVE",
"179 91 CURVE SMOOTH",
"141 137 OFFCURVE",
"120 201 OFFCURVE",
"120 276 CURVE SMOOTH",
"120 379 OFFCURVE",
"153 466 OFFCURVE",
"210 528 CURVE SMOOTH",
"266 590 OFFCURVE",
"346 625 OFFCURVE",
"442 625 CURVE SMOOTH",
"478 625 OFFCURVE",
"510 619 OFFCURVE",
"538 608 CURVE SMOOTH",
"594 585 OFFCURVE",
"613 561 OFFCURVE",
"585 512 CURVE",
"584 505 OFFCURVE",
"590 502 OFFCURVE",
"594 505 CURVE",
"602 516 OFFCURVE",
"610 532 OFFCURVE",
"618 548 CURVE",
"625 564 OFFCURVE",
"629 580 OFFCURVE",
"629 591 CURVE SMOOTH"
);
}
);
width = 557;
}
);
note = Ccedilla;
unicode = 00C7;
},
{
glyphname = E;
lastChange = "2017-06-04 11:33:48 +0000";
layers = (
{
layerId = "05073167-317C-430E-AA64-F7AF394C318F";
paths = (
{
closed = 1;
nodes = (
"269 548 OFFCURVE",
"280 574 OFFCURVE",
"302 594 CURVE SMOOTH",
"324 614 OFFCURVE",
"355 627 OFFCURVE",
"399 627 CURVE SMOOTH",
"452 627 OFFCURVE",
"497 597 OFFCURVE",
"512 573 CURVE SMOOTH",
"523 556 OFFCURVE",
"516 537 OFFCURVE",
"508 522 CURVE",
"507 517 OFFCURVE",
"513 514 OFFCURVE",
"516 517 CURVE",
"520 522 OFFCURVE",
"529 536 OFFCURVE",
"535 551 CURVE SMOOTH",
"541 566 OFFCURVE",
"546 580 OFFCURVE",
"546 591 CURVE SMOOTH",
"546 604 OFFCURVE",
"531 618 OFFCURVE",
"507 628 CURVE SMOOTH",
"483 638 OFFCURVE",
"451 644 OFFCURVE",
"419 644 CURVE SMOOTH",
"364 644 OFFCURVE",
"318 627 OFFCURVE",
"284 601 CURVE SMOOTH",
"250 575 OFFCURVE",
"229 539 OFFCURVE",
"229 502 CURVE SMOOTH",
"229 466 OFFCURVE",
"254 435 OFFCURVE",
"297 412 CURVE",
"228 400 OFFCURVE",
"169 368 OFFCURVE",
"127 324 CURVE SMOOTH",
"85 280 OFFCURVE",
"60 222 OFFCURVE",
"60 158 CURVE SMOOTH",
"60 117 OFFCURVE",
"76 77 OFFCURVE",
"105 48 CURVE SMOOTH",
"134 19 OFFCURVE",
"178 0 OFFCURVE",
"234 0 CURVE SMOOTH",
"268 0 OFFCURVE",
"302 4 OFFCURVE",
"335 11 CURVE SMOOTH",
"401 26 OFFCURVE",
"428 32 OFFCURVE",
"450 81 CURVE SMOOTH",
"461 106 OFFCURVE",
"470 137 OFFCURVE",
"478 174 CURVE",
"477 182 OFFCURVE",
"471 186 OFFCURVE",
"467 179 CURVE",
"436 66 OFFCURVE",
"367 18 OFFCURVE",
"258 18 CURVE SMOOTH",
"211 18 OFFCURVE",
"175 36 OFFCURVE",
"149 65 CURVE SMOOTH",
"123 94 OFFCURVE",
"108 135 OFFCURVE",
"108 182 CURVE SMOOTH",
"108 326 OFFCURVE",
"195 399 OFFCURVE",
"344 392 CURVE",
"347 393 OFFCURVE",
"350 394 OFFCURVE",
"355 397 CURVE SMOOTH",
"363 402 OFFCURVE",
"370 410 OFFCURVE",
"374 416 CURVE",
"375 419 OFFCURVE",
"375 421 OFFCURVE",
"373 422 CURVE",
"297 445 OFFCURVE",
"269 476 OFFCURVE",
"269 523 CURVE SMOOTH"
);
}
);
width = 494;
}
);
note = E;
unicode = 0045;
},
{
glyphname = Eacute;
lastChange = "2017-06-04 11:33:48 +0000";
layers = (
{
layerId = "05073167-317C-430E-AA64-F7AF394C318F";
paths = (
{
closed = 1;
nodes = (
"407 707 OFFCURVE",
"372 685 OFFCURVE",
"345 669 CURVE",
"343 667 OFFCURVE",
"342 665 OFFCURVE",
"342 662 CURVE SMOOTH",
"342 659 OFFCURVE",
"343 658 OFFCURVE",
"346 658 CURVE",
"366 665 OFFCURVE",
"392 675 OFFCURVE",
"416 685 CURVE SMOOTH",
"439 695 OFFCURVE",
"461 706 OFFCURVE",
"474 715 CURVE",
"478 718 OFFCURVE",
"476 721 OFFCURVE",
"473 724 CURVE",
"461 729 OFFCURVE",
"439 738 OFFCURVE",
"432 734 CURVE"
);
},
{
closed = 1;
nodes = (
"238 548 OFFCURVE",
"249 574 OFFCURVE",
"271 594 CURVE SMOOTH",
"293 614 OFFCURVE",
"324 627 OFFCURVE",
"368 627 CURVE SMOOTH",
"421 627 OFFCURVE",
"466 597 OFFCURVE",
"481 573 CURVE SMOOTH",
"492 556 OFFCURVE",
"485 537 OFFCURVE",
"477 522 CURVE",
"476 517 OFFCURVE",
"482 514 OFFCURVE",
"485 517 CURVE",
"489 522 OFFCURVE",
"498 536 OFFCURVE",
"504 551 CURVE SMOOTH",
"510 566 OFFCURVE",
"515 580 OFFCURVE",
"515 591 CURVE SMOOTH",
"515 604 OFFCURVE",
"500 618 OFFCURVE",
"476 628 CURVE SMOOTH",
"452 638 OFFCURVE",
"420 644 OFFCURVE",
"388 644 CURVE SMOOTH",
"333 644 OFFCURVE",
"287 627 OFFCURVE",
"253 601 CURVE SMOOTH",
"219 575 OFFCURVE",
"198 539 OFFCURVE",
"198 502 CURVE SMOOTH",
"198 466 OFFCURVE",
"223 435 OFFCURVE",
"266 412 CURVE",
"197 400 OFFCURVE",
"138 368 OFFCURVE",
"96 324 CURVE SMOOTH",
"54 280 OFFCURVE",
"29 222 OFFCURVE",
"29 158 CURVE SMOOTH",
"29 117 OFFCURVE",
"45 77 OFFCURVE",
"74 48 CURVE SMOOTH",
"103 19 OFFCURVE",
"147 0 OFFCURVE",
"203 0 CURVE SMOOTH",
"237 0 OFFCURVE",
"271 4 OFFCURVE",
"304 11 CURVE SMOOTH",
"370 26 OFFCURVE",
"397 32 OFFCURVE",
"419 81 CURVE SMOOTH",
"430 106 OFFCURVE",
"439 137 OFFCURVE",
"447 174 CURVE",
"446 182 OFFCURVE",
"440 186 OFFCURVE",
"436 179 CURVE",
"405 66 OFFCURVE",
"336 18 OFFCURVE",
"227 18 CURVE SMOOTH",
"180 18 OFFCURVE",
"144 36 OFFCURVE",
"118 65 CURVE SMOOTH",
"92 94 OFFCURVE",
"77 135 OFFCURVE",
"77 182 CURVE SMOOTH",
"77 326 OFFCURVE",
"164 399 OFFCURVE",
"313 392 CURVE",
"316 393 OFFCURVE",
"319 394 OFFCURVE",
"324 397 CURVE SMOOTH",
"332 402 OFFCURVE",
"339 410 OFFCURVE",
"343 416 CURVE",
"344 419 OFFCURVE",
"344 421 OFFCURVE",
"342 422 CURVE",
"266 445 OFFCURVE",
"238 476 OFFCURVE",
"238 523 CURVE SMOOTH"
);
}
);
width = 463;
}
);
note = Eacute;
unicode = 00C9;
},
{
glyphname = Ecircumflex;
lastChange = "2017-06-04 11:33:48 +0000";
layers = (
{
layerId = "05073167-317C-430E-AA64-F7AF394C318F";
paths = (
{
closed = 1;
nodes = (
"370 721 OFFCURVE",
"328 692 OFFCURVE",
"305 679 CURVE",
"302 673 OFFCURVE",
"303 670 OFFCURVE",
"310 670 CURVE",
"319 674 OFFCURVE",
"335 683 OFFCURVE",
"349 692 CURVE",
"356 696 OFFCURVE",
"362 700 OFFCURVE",
"369 704 CURVE SMOOTH",
"376 708 OFFCURVE",
"381 712 OFFCURVE",
"385 715 CURVE",
"406 698 OFFCURVE",
"426 682 OFFCURVE",
"451 671 CURVE",
"459 670 OFFCURVE",
"466 671 OFFCURVE",
"473 674 CURVE",
"479 677 OFFCURVE",
"480 681 OFFCURVE",
"477 684 CURVE",
"450 696 OFFCURVE",
"420 722 OFFCURVE",
"403 745 CURVE",
"398 749 OFFCURVE",
"394 749 OFFCURVE",
"391 746 CURVE"
);
},
{
closed = 1;
nodes = (
"238 548 OFFCURVE",
"249 574 OFFCURVE",
"271 594 CURVE SMOOTH",
"293 614 OFFCURVE",
"324 627 OFFCURVE",
"368 627 CURVE SMOOTH",
"421 627 OFFCURVE",
"466 597 OFFCURVE",
"481 573 CURVE SMOOTH",
"492 556 OFFCURVE",
"485 537 OFFCURVE",
"477 522 CURVE",
"476 517 OFFCURVE",
"482 514 OFFCURVE",
"485 517 CURVE",
"489 522 OFFCURVE",
"498 536 OFFCURVE",
"504 551 CURVE SMOOTH",
"510 566 OFFCURVE",
"515 580 OFFCURVE",
"515 591 CURVE SMOOTH",
"515 604 OFFCURVE",
"500 618 OFFCURVE",
"476 628 CURVE SMOOTH",
"452 638 OFFCURVE",
"420 644 OFFCURVE",
"388 644 CURVE SMOOTH",
"333 644 OFFCURVE",
"287 627 OFFCURVE",
"253 601 CURVE SMOOTH",
"219 575 OFFCURVE",
"198 539 OFFCURVE",
"198 502 CURVE SMOOTH",
"198 466 OFFCURVE",
"223 435 OFFCURVE",
"266 412 CURVE",
"197 400 OFFCURVE",
"138 368 OFFCURVE",
"96 324 CURVE SMOOTH",
"54 280 OFFCURVE",
"29 222 OFFCURVE",
"29 158 CURVE SMOOTH",
"29 117 OFFCURVE",
"45 77 OFFCURVE",
"74 48 CURVE SMOOTH",
"103 19 OFFCURVE",
"147 0 OFFCURVE",
"203 0 CURVE SMOOTH",
"237 0 OFFCURVE",
"271 4 OFFCURVE",
"304 11 CURVE SMOOTH",
"370 26 OFFCURVE",
"397 32 OFFCURVE",
"419 81 CURVE SMOOTH",
"430 106 OFFCURVE",
"439 137 OFFCURVE",
"447 174 CURVE",
"446 182 OFFCURVE",
"440 186 OFFCURVE",
"436 179 CURVE",
"405 66 OFFCURVE",
"336 18 OFFCURVE",
"227 18 CURVE SMOOTH",
"180 18 OFFCURVE",
"144 36 OFFCURVE",
"118 65 CURVE SMOOTH",
"92 94 OFFCURVE",
"77 135 OFFCURVE",
"77 182 CURVE SMOOTH",
"77 326 OFFCURVE",
"164 399 OFFCURVE",
"313 392 CURVE",
"316 393 OFFCURVE",
"319 394 OFFCURVE",
"324 397 CURVE SMOOTH",
"332 402 OFFCURVE",
"339 410 OFFCURVE",
"343 416 CURVE",
"344 419 OFFCURVE",
"344 421 OFFCURVE",
"342 422 CURVE",
"266 445 OFFCURVE",
"238 476 OFFCURVE",
"238 523 CURVE SMOOTH"
);
}
);
width = 463;
}
);
note = Ecircumflex;
unicode = 00CA;
},
{
glyphname = Edieresis;
lastChange = "2017-06-04 11:33:48 +0000";
layers = (
{
layerId = "05073167-317C-430E-AA64-F7AF394C318F";
paths = (
{
closed = 1;
nodes = (
"380 667 OFFCURVE",
"395 689 OFFCURVE",
"395 708 CURVE SMOOTH",
"395 717 OFFCURVE",
"392 721 OFFCURVE",
"386 721 CURVE SMOOTH",
"365 721 OFFCURVE",
"350 697 OFFCURVE",
"350 684 CURVE SMOOTH",
"350 673 OFFCURVE",
"354 667 OFFCURVE",
"361 667 CURVE SMOOTH"
);
},
{
closed = 1;
nodes = (
"454 667 OFFCURVE",
"470 689 OFFCURVE",
"470 708 CURVE SMOOTH",
"470 717 OFFCURVE",
"467 721 OFFCURVE",
"461 721 CURVE SMOOTH",
"441 721 OFFCURVE",
"426 697 OFFCURVE",
"426 684 CURVE SMOOTH",
"426 673 OFFCURVE",
"430 667 OFFCURVE",
"438 667 CURVE SMOOTH"
);
},
{
closed = 1;
nodes = (
"238 548 OFFCURVE",
"249 574 OFFCURVE",
"271 594 CURVE SMOOTH",
"293 614 OFFCURVE",
"324 627 OFFCURVE",
"368 627 CURVE SMOOTH",
"421 627 OFFCURVE",
"466 597 OFFCURVE",
"481 573 CURVE SMOOTH",
"492 556 OFFCURVE",
"485 537 OFFCURVE",
"477 522 CURVE",
"476 517 OFFCURVE",
"482 514 OFFCURVE",
"485 517 CURVE",
"489 522 OFFCURVE",
"498 536 OFFCURVE",
"504 551 CURVE SMOOTH",
"510 566 OFFCURVE",
"515 580 OFFCURVE",
"515 591 CURVE SMOOTH",
"515 604 OFFCURVE",
"500 618 OFFCURVE",
"476 628 CURVE SMOOTH",
"452 638 OFFCURVE",
"420 644 OFFCURVE",
"388 644 CURVE SMOOTH",
"333 644 OFFCURVE",
"287 627 OFFCURVE",
"253 601 CURVE SMOOTH",
"219 575 OFFCURVE",
"198 539 OFFCURVE",
"198 502 CURVE SMOOTH",
"198 466 OFFCURVE",
"223 435 OFFCURVE",
"266 412 CURVE",
"197 400 OFFCURVE",
"138 368 OFFCURVE",
"96 324 CURVE SMOOTH",
"54 280 OFFCURVE",
"29 222 OFFCURVE",
"29 158 CURVE SMOOTH",
"29 117 OFFCURVE",
"45 77 OFFCURVE",
"74 48 CURVE SMOOTH",
"103 19 OFFCURVE",
"147 0 OFFCURVE",
"203 0 CURVE SMOOTH",
"237 0 OFFCURVE",
"271 4 OFFCURVE",
"304 11 CURVE SMOOTH",
"370 26 OFFCURVE",
"397 32 OFFCURVE",
"419 81 CURVE SMOOTH",
"430 106 OFFCURVE",
"439 137 OFFCURVE",
"447 174 CURVE",
"446 182 OFFCURVE",
"440 186 OFFCURVE",
"436 179 CURVE",
"405 66 OFFCURVE",
"336 18 OFFCURVE",
"227 18 CURVE SMOOTH",
"180 18 OFFCURVE",
"144 36 OFFCURVE",
"118 65 CURVE SMOOTH",
"92 94 OFFCURVE",
"77 135 OFFCURVE",
"77 182 CURVE SMOOTH",
"77 326 OFFCURVE",
"164 399 OFFCURVE",
"313 392 CURVE",
"316 393 OFFCURVE",
"319 394 OFFCURVE",
"324 397 CURVE SMOOTH",
"332 402 OFFCURVE",
"339 410 OFFCURVE",
"343 416 CURVE",
"344 419 OFFCURVE",
"344 421 OFFCURVE",
"342 422 CURVE",
"266 445 OFFCURVE",
"238 476 OFFCURVE",
"238 523 CURVE SMOOTH"
);
}
);
width = 463;
}
);
note = Edieresis;
unicode = 00CB;
},
{
glyphname = Egrave;
lastChange = "2017-06-04 11:33:48 +0000";
layers = (
{
layerId = "05073167-317C-430E-AA64-F7AF394C318F";
paths = (
{
closed = 1;
nodes = (
"433 689 OFFCURVE",
"401 712 OFFCURVE",
"378 731 CURVE",
"375 734 OFFCURVE",
"351 728 OFFCURVE",
"338 717 CURVE",
"337 716 OFFCURVE",
"336 714 OFFCURVE",
"336 713 CURVE SMOOTH",
"336 711 OFFCURVE",
"337 710 OFFCURVE",
"338 709 CURVE",
"353 701 OFFCURVE",
"375 691 OFFCURVE",
"398 682 CURVE SMOOTH",
"421 673 OFFCURVE",
"445 664 OFFCURVE",
"461 660 CURVE",
"468 660 OFFCURVE",
"472 666 OFFCURVE",
"469 669 CURVE"
);
},
{
closed = 1;
nodes = (
"238 548 OFFCURVE",
"249 574 OFFCURVE",
"271 594 CURVE SMOOTH",
"293 614 OFFCURVE",
"324 627 OFFCURVE",
"368 627 CURVE SMOOTH",
"421 627 OFFCURVE",
"466 597 OFFCURVE",
"481 573 CURVE SMOOTH",
"492 556 OFFCURVE",
"485 537 OFFCURVE",
"477 522 CURVE",
"476 517 OFFCURVE",
"482 514 OFFCURVE",
"485 517 CURVE",
"489 522 OFFCURVE",
"498 536 OFFCURVE",
"504 551 CURVE SMOOTH",
"510 566 OFFCURVE",
"515 580 OFFCURVE",
"515 591 CURVE SMOOTH",
"515 604 OFFCURVE",
"500 618 OFFCURVE",
"476 628 CURVE SMOOTH",
"452 638 OFFCURVE",
"420 644 OFFCURVE",
"388 644 CURVE SMOOTH",
"333 644 OFFCURVE",
"287 627 OFFCURVE",
"253 601 CURVE SMOOTH",
"219 575 OFFCURVE",
"198 539 OFFCURVE",
"198 502 CURVE SMOOTH",
"198 466 OFFCURVE",
"223 435 OFFCURVE",
"266 412 CURVE",
"197 400 OFFCURVE",
"138 368 OFFCURVE",
"96 324 CURVE SMOOTH",
"54 280 OFFCURVE",
"29 222 OFFCURVE",
"29 158 CURVE SMOOTH",
"29 117 OFFCURVE",
"45 77 OFFCURVE",
"74 48 CURVE SMOOTH",
"103 19 OFFCURVE",
"147 0 OFFCURVE",
"203 0 CURVE SMOOTH",
"237 0 OFFCURVE",
"271 4 OFFCURVE",
"304 11 CURVE SMOOTH",
"370 26 OFFCURVE",
"397 32 OFFCURVE",
"419 81 CURVE SMOOTH",
"430 106 OFFCURVE",
"439 137 OFFCURVE",
"447 174 CURVE",
"446 182 OFFCURVE",
"440 186 OFFCURVE",
"436 179 CURVE",
"405 66 OFFCURVE",
"336 18 OFFCURVE",
"227 18 CURVE SMOOTH",
"180 18 OFFCURVE",
"144 36 OFFCURVE",
"118 65 CURVE SMOOTH",
"92 94 OFFCURVE",
"77 135 OFFCURVE",
"77 182 CURVE SMOOTH",
"77 326 OFFCURVE",
"164 399 OFFCURVE",
"313 392 CURVE",
"316 393 OFFCURVE",
"319 394 OFFCURVE",
"324 397 CURVE SMOOTH",
"332 402 OFFCURVE",
"339 410 OFFCURVE",
"343 416 CURVE",
"344 419 OFFCURVE",
"344 421 OFFCURVE",
"342 422 CURVE",
"266 445 OFFCURVE",
"238 476 OFFCURVE",
"238 523 CURVE SMOOTH"
);
}
);
width = 463;
}
);
note = Egrave;
unicode = 00C8;
},
{
glyphname = F;
lastChange = "2017-06-04 11:33:48 +0000";
layers = (
{
layerId = "05073167-317C-430E-AA64-F7AF394C318F";
paths = (
{
closed = 1;
nodes = (
"803 612 OFFCURVE",
"774 615 OFFCURVE",
"747 619 CURVE SMOOTH",
"719 623 OFFCURVE",
"692 627 OFFCURVE",
"666 631 CURVE SMOOTH",
"614 638 OFFCURVE",
"564 644 OFFCURVE",
"515 644 CURVE SMOOTH",
"388 644 OFFCURVE",
"298 582 OFFCURVE",
"269 487 CURVE",
"269 480 OFFCURVE",
"274 478 OFFCURVE",
"278 481 CURVE",
"309 573 OFFCURVE",
"378 614 OFFCURVE",
"478 614 CURVE SMOOTH",
"538 614 OFFCURVE",
"605 604 OFFCURVE",
"677 593 CURVE",
"642 580 OFFCURVE",
"617 560 OFFCURVE",
"596 529 CURVE SMOOTH",
"575 498 OFFCURVE",
"559 455 OFFCURVE",
"543 398 CURVE SMOOTH",
"536 374 OFFCURVE",
"530 351 OFFCURVE",
"523 330 CURVE",
"472 329 OFFCURVE",
"423 327 OFFCURVE",
"368 323 CURVE",
"365 322 OFFCURVE",
"360 321 OFFCURVE",
"355 319 CURVE SMOOTH",
"343 314 OFFCURVE",
"332 309 OFFCURVE",
"327 305 CURVE",
"324 302 OFFCURVE",
"324 301 OFFCURVE",
"326 300 CURVE",
"390 309 OFFCURVE",
"452 314 OFFCURVE",
"519 317 CURVE",
"484 212 OFFCURVE",
"447 140 OFFCURVE",
"403 96 CURVE SMOOTH",
"358 51 OFFCURVE",
"306 33 OFFCURVE",
"239 33 CURVE SMOOTH",
"183 33 OFFCURVE",
"143 46 OFFCURVE",
"118 68 CURVE SMOOTH",
"93 90 OFFCURVE",
"81 119 OFFCURVE",
"81 154 CURVE SMOOTH",
"81 191 OFFCURVE",
"92 210 OFFCURVE",
"116 229 CURVE",
"119 233 OFFCURVE",
"117 240 OFFCURVE",
"110 240 CURVE",
"71 213 OFFCURVE",
"50 172 OFFCURVE",
"50 133 CURVE SMOOTH",
"50 53 OFFCURVE",
"98 0 OFFCURVE",
"194 0 CURVE SMOOTH",
"359 0 OFFCURVE",
"477 99 OFFCURVE",
"556 319 CURVE",
"588 320 OFFCURVE",
"622 321 OFFCURVE",
"657 321 CURVE",
"662 322 OFFCURVE",
"666 324 OFFCURVE",
"667 326 CURVE SMOOTH",
"668 328 OFFCURVE",
"666 330 OFFCURVE",
"663 331 CURVE",
"645 331 OFFCURVE",
"628 331 OFFCURVE",
"611 331 CURVE SMOOTH",
"594 331 OFFCURVE",
"577 331 OFFCURVE",
"560 330 CURVE",
"565 344 OFFCURVE",
"570 358 OFFCURVE",
"574 373 CURVE SMOOTH",
"578 388 OFFCURVE",
"582 403 OFFCURVE",
"587 418 CURVE",
"603 477 OFFCURVE",
"619 516 OFFCURVE",
"636 542 CURVE SMOOTH",
"653 568 OFFCURVE",
"673 582 OFFCURVE",
"700 590 CURVE",
"732 585 OFFCURVE",
"765 580 OFFCURVE",
"797 577 CURVE",
"806 577 OFFCURVE",
"818 583 OFFCURVE",
"826 590 CURVE SMOOTH",
"834 597 OFFCURVE",
"838 605 OFFCURVE",
"833 609 CURVE"
);
}
);
width = 626;
}
);
note = F;
unicode = 0046;
},
{
glyphname = G;
lastChange = "2017-06-04 11:33:48 +0000";
layers = (
{
layerId = "05073167-317C-430E-AA64-F7AF394C318F";
paths = (
{
closed = 1;
nodes = (
"626 611 OFFCURVE",
"662 585 OFFCURVE",
"662 549 CURVE SMOOTH",
"662 522 OFFCURVE",
"654 502 OFFCURVE",
"635 473 CURVE",
"634 468 OFFCURVE",
"640 463 OFFCURVE",
"645 466 CURVE",
"654 481 OFFCURVE",
"667 501 OFFCURVE",
"678 522 CURVE SMOOTH",
"689 542 OFFCURVE",
"696 563 OFFCURVE",
"696 578 CURVE SMOOTH",
"696 614 OFFCURVE",
"660 643 OFFCURVE",
"601 643 CURVE SMOOTH",
"489 643 OFFCURVE",
"389 583 OFFCURVE",
"317 500 CURVE SMOOTH",
"244 416 OFFCURVE",
"200 309 OFFCURVE",
"200 216 CURVE SMOOTH",
"200 135 OFFCURVE",
"243 82 OFFCURVE",
"328 82 CURVE SMOOTH",
"393 82 OFFCURVE",
"445 108 OFFCURVE",
"486 143 CURVE",
"419 -76 OFFCURVE",
"311 -168 OFFCURVE",
"167 -168 CURVE SMOOTH",
"63 -168 OFFCURVE",
"5 -103 OFFCURVE",
"5 -10 CURVE SMOOTH",
"5 38 OFFCURVE",
"21 71 OFFCURVE",
"54 89 CURVE",
"58 94 OFFCURVE",
"56 103 OFFCURVE",
"49 100 CURVE SMOOTH",
"-14 71 OFFCURVE",
"-37 23 OFFCURVE",
"-37 -34 CURVE SMOOTH",
"-37 -75 OFFCURVE",
"-21 -113 OFFCURVE",
"9 -141 CURVE SMOOTH",
"39 -169 OFFCURVE",
"84 -186 OFFCURVE",
"145 -186 CURVE SMOOTH",
"232 -186 OFFCURVE",
"313 -158 OFFCURVE",
"384 -91 CURVE SMOOTH",
"455 -24 OFFCURVE",
"514 81 OFFCURVE",
"558 236 CURVE",
"558 243 OFFCURVE",
"547 244 OFFCURVE",
"536 242 CURVE SMOOTH",
"524 240 OFFCURVE",
"511 234 OFFCURVE",
"510 226 CURVE",
"487 146 OFFCURVE",
"426 101 OFFCURVE",
"349 101 CURVE SMOOTH",
"281 101 OFFCURVE",
"249 148 OFFCURVE",
"249 239 CURVE SMOOTH",
"249 344 OFFCURVE",
"284 439 OFFCURVE",
"342 505 CURVE SMOOTH",
"400 571 OFFCURVE",
"481 611 OFFCURVE",
"573 611 CURVE SMOOTH"
);
}
);
width = 571;
}
);
note = G;
unicode = 0047;
},
{
glyphname = H;
lastChange = "2017-06-04 11:33:48 +0000";
layers = (
{
layerId = "05073167-317C-430E-AA64-F7AF394C318F";
paths = (
{
closed = 1;
nodes = (
"1045 681 OFFCURVE",
"978 641 OFFCURVE",
"915 566 CURVE SMOOTH",
"851 491 OFFCURVE",
"791 383 OFFCURVE",
"746 246 CURVE",
"662 266 OFFCURVE",
"567 281 OFFCURVE",
"479 288 CURVE",
"484 303 OFFCURVE",
"490 319 OFFCURVE",
"495 336 CURVE SMOOTH",
"500 353 OFFCURVE",
"505 370 OFFCURVE",
"510 387 CURVE",
"527 454 OFFCURVE",
"541 499 OFFCURVE",
"557 531 CURVE SMOOTH",
"573 563 OFFCURVE",
"591 580 OFFCURVE",
"618 591 CURVE SMOOTH",
"628 595 OFFCURVE",
"634 599 OFFCURVE",
"637 602 CURVE SMOOTH",
"640 605 OFFCURVE",
"640 609 OFFCURVE",
"637 613 CURVE",
"596 630 OFFCURVE",
"542 645 OFFCURVE",
"487 645 CURVE SMOOTH",
"408 645 OFFCURVE",
"352 622 OFFCURVE",
"317 585 CURVE SMOOTH",
"282 548 OFFCURVE",
"270 496 OFFCURVE",
"282 440 CURVE",
"286 435 OFFCURVE",
"291 436 OFFCURVE",
"292 443 CURVE",
"283 488 OFFCURVE",
"292 531 OFFCURVE",
"318 563 CURVE SMOOTH",
"344 595 OFFCURVE",
"388 615 OFFCURVE",
"451 615 CURVE SMOOTH",
"507 615 OFFCURVE",
"555 604 OFFCURVE",
"590 591 CURVE",
"565 578 OFFCURVE",
"543 558 OFFCURVE",
"523 520 CURVE SMOOTH",
"502 482 OFFCURVE",
"481 428 OFFCURVE",
"460 349 CURVE SMOOTH",
"457 338 OFFCURVE",
"454 328 OFFCURVE",
"451 319 CURVE SMOOTH",
"448 309 OFFCURVE",
"445 299 OFFCURVE",
"442 290 CURVE",
"435 291 OFFCURVE",
"427 291 OFFCURVE",
"420 291 CURVE SMOOTH",
"413 291 OFFCURVE",
"405 291 OFFCURVE",
"398 291 CURVE SMOOTH",
"287 291 OFFCURVE",
"201 267 OFFCURVE",
"142 231 CURVE SMOOTH",
"82 194 OFFCURVE",
"50 144 OFFCURVE",
"50 92 CURVE SMOOTH",
"50 37 OFFCURVE",
"85 0 OFFCURVE",
"154 0 CURVE SMOOTH",
"219 0 OFFCURVE",
"281 20 OFFCURVE",
"335 64 CURVE SMOOTH",
"389 108 OFFCURVE",
"436 177 OFFCURVE",
"473 274 CURVE",
"569 266 OFFCURVE",
"659 246 OFFCURVE",
"738 222 CURVE",
"718 163 OFFCURVE",
"690 71 OFFCURVE",
"706 31 CURVE",
"713 10 OFFCURVE",
"727 0 OFFCURVE",
"747 0 CURVE SMOOTH",
"763 0 OFFCURVE",
"783 13 OFFCURVE",
"803 31 CURVE SMOOTH",
"823 49 OFFCURVE",
"841 71 OFFCURVE",
"856 94 CURVE",
"857 101 OFFCURVE",
"852 104 OFFCURVE",
"848 100 CURVE",
"823 63 OFFCURVE",
"798 44 OFFCURVE",
"772 44 CURVE SMOOTH",
"743 44 OFFCURVE",
"738 83 OFFCURVE",
"759 161 CURVE SMOOTH",
"764 178 OFFCURVE",
"769 195 OFFCURVE",
"773 211 CURVE",
"780 208 OFFCURVE",
"784 207 OFFCURVE",
"787 206 CURVE",
"800 205 OFFCURVE",
"812 207 OFFCURVE",
"822 212 CURVE",
"831 217 OFFCURVE",
"834 220 OFFCURVE",
"831 223 CURVE",
"815 227 OFFCURVE",
"798 232 OFFCURVE",
"781 237 CURVE",
"828 394 OFFCURVE",
"875 495 OFFCURVE",
"926 558 CURVE SMOOTH",
"977 621 OFFCURVE",
"1029 644 OFFCURVE",
"1088 644 CURVE SMOOTH",
"1127 644 OFFCURVE",
"1141 620 OFFCURVE",
"1132 589 CURVE",
"1132 584 OFFCURVE",
"1136 582 OFFCURVE",
"1139 585 CURVE",
"1147 598 OFFCURVE",
"1152 617 OFFCURVE",
"1152 636 CURVE SMOOTH",
"1152 660 OFFCURVE",
"1137 681 OFFCURVE",
"1109 681 CURVE SMOOTH"
);
},
{
closed = 1;
nodes = (
"117 24 OFFCURVE",
"80 55 OFFCURVE",
"80 112 CURVE SMOOTH",
"80 156 OFFCURVE",
"107 197 OFFCURVE",
"158 228 CURVE SMOOTH",
"209 259 OFFCURVE",
"284 278 OFFCURVE",
"379 278 CURVE SMOOTH",
"389 278 OFFCURVE",
"399 278 OFFCURVE",
"409 278 CURVE SMOOTH",
"418 278 OFFCURVE",
"428 277 OFFCURVE",
"438 276 CURVE",
"406 180 OFFCURVE",
"371 118 OFFCURVE",
"330 79 CURVE SMOOTH",
"289 39 OFFCURVE",
"240 24 OFFCURVE",
"181 24 CURVE SMOOTH"
);
}
);
width = 865;
}
);
note = H;
unicode = 0048;
},
{
glyphname = I;
lastChange = "2017-06-04 11:33:48 +0000";
layers = (
{
layerId = "05073167-317C-430E-AA64-F7AF394C318F";
paths = (
{
closed = 1;
nodes = (
"634 645 OFFCURVE",
"538 601 OFFCURVE",
"470 536 CURVE SMOOTH",
"401 471 OFFCURVE",
"358 386 OFFCURVE",
"358 303 CURVE SMOOTH",
"358 227 OFFCURVE",
"395 175 OFFCURVE",
"463 171 CURVE",
"400 68 OFFCURVE",
"319 29 OFFCURVE",
"214 29 CURVE SMOOTH",
"130 29 OFFCURVE",
"89 68 OFFCURVE",
"89 113 CURVE SMOOTH",
"89 144 OFFCURVE",
"109 174 OFFCURVE",
"150 197 CURVE",
"153 200 OFFCURVE",
"153 205 OFFCURVE",
"146 206 CURVE",
"87 179 OFFCURVE",
"50 134 OFFCURVE",
"50 93 CURVE SMOOTH",
"50 41 OFFCURVE",
"101 0 OFFCURVE",
"181 0 CURVE SMOOTH",
"308 0 OFFCURVE",
"411 60 OFFCURVE",
"488 172 CURVE",
"511 175 OFFCURVE",
"529 182 OFFCURVE",
"543 191 CURVE",
"546 195 OFFCURVE",
"544 199 OFFCURVE",
"540 198 CURVE",
"531 193 OFFCURVE",
"513 185 OFFCURVE",
"494 182 CURVE",
"535 245 OFFCURVE",
"568 323 OFFCURVE",
"592 414 CURVE SMOOTH",
"612 491 OFFCURVE",
"630 538 OFFCURVE",
"650 566 CURVE SMOOTH",
"670 594 OFFCURVE",
"690 605 OFFCURVE",
"717 613 CURVE",
"722 616 OFFCURVE",
"730 623 OFFCURVE",
"735 630 CURVE SMOOTH",
"740 637 OFFCURVE",
"742 642 OFFCURVE",
"738 645 CURVE"
);
},
{
closed = 1;
nodes = (
"526 304 OFFCURVE",
"500 234 OFFCURVE",
"469 181 CURVE",
"409 185 OFFCURVE",
"371 227 OFFCURVE",
"371 307 CURVE SMOOTH",
"371 370 OFFCURVE",
"401 439 OFFCURVE",
"454 495 CURVE SMOOTH",
"506 551 OFFCURVE",
"582 595 OFFCURVE",
"674 606 CURVE",
"643 587 OFFCURVE",
"619 562 OFFCURVE",
"599 527 CURVE SMOOTH",
"579 492 OFFCURVE",
"564 448 OFFCURVE",
"549 392 CURVE SMOOTH"
);
}
);
width = 554;
}
);
note = I;
unicode = 0049;
},
{
glyphname = Iacute;
lastChange = "2017-06-04 11:33:48 +0000";
layers = (
{
layerId = "05073167-317C-430E-AA64-F7AF394C318F";
paths = (
{
closed = 1;
nodes = (
"575 707 OFFCURVE",
"540 685 OFFCURVE",
"513 669 CURVE",
"511 667 OFFCURVE",
"510 665 OFFCURVE",
"510 662 CURVE SMOOTH",
"510 659 OFFCURVE",
"511 658 OFFCURVE",
"514 658 CURVE",
"534 665 OFFCURVE",
"560 675 OFFCURVE",
"584 685 CURVE SMOOTH",
"607 695 OFFCURVE",
"629 706 OFFCURVE",
"642 715 CURVE",
"646 718 OFFCURVE",
"644 721 OFFCURVE",
"641 724 CURVE",
"629 729 OFFCURVE",
"607 738 OFFCURVE",
"600 734 CURVE"
);
},
{
closed = 1;
nodes = (
"594 645 OFFCURVE",
"498 601 OFFCURVE",
"430 536 CURVE SMOOTH",
"361 471 OFFCURVE",
"318 386 OFFCURVE",
"318 303 CURVE SMOOTH",
"318 227 OFFCURVE",
"355 175 OFFCURVE",
"423 171 CURVE",
"360 68 OFFCURVE",
"279 29 OFFCURVE",
"174 29 CURVE SMOOTH",
"90 29 OFFCURVE",
"49 68 OFFCURVE",
"49 113 CURVE SMOOTH",
"49 144 OFFCURVE",
"69 174 OFFCURVE",
"110 197 CURVE",
"113 200 OFFCURVE",
"113 205 OFFCURVE",
"106 206 CURVE",
"47 179 OFFCURVE",
"10 134 OFFCURVE",
"10 93 CURVE SMOOTH",
"10 41 OFFCURVE",
"61 0 OFFCURVE",
"141 0 CURVE SMOOTH",
"268 0 OFFCURVE",
"371 60 OFFCURVE",
"448 172 CURVE",
"471 175 OFFCURVE",
"489 182 OFFCURVE",
"503 191 CURVE",
"506 195 OFFCURVE",
"504 199 OFFCURVE",
"500 198 CURVE",
"491 193 OFFCURVE",
"473 185 OFFCURVE",
"454 182 CURVE",
"495 245 OFFCURVE",
"528 323 OFFCURVE",
"552 414 CURVE SMOOTH",
"572 491 OFFCURVE",
"590 538 OFFCURVE",
"610 566 CURVE SMOOTH",
"630 594 OFFCURVE",
"650 605 OFFCURVE",
"677 613 CURVE",
"682 616 OFFCURVE",
"690 623 OFFCURVE",
"695 630 CURVE SMOOTH",
"700 637 OFFCURVE",
"702 642 OFFCURVE",
"698 645 CURVE"
);
},
{
closed = 1;
nodes = (
"486 304 OFFCURVE",
"460 234 OFFCURVE",
"429 181 CURVE",
"369 185 OFFCURVE",
"331 227 OFFCURVE",
"331 307 CURVE SMOOTH",
"331 370 OFFCURVE",
"361 439 OFFCURVE",
"414 495 CURVE SMOOTH",
"466 551 OFFCURVE",
"542 595 OFFCURVE",
"634 606 CURVE",
"603 587 OFFCURVE",
"579 562 OFFCURVE",
"559 527 CURVE SMOOTH",
"539 492 OFFCURVE",
"524 448 OFFCURVE",
"509 392 CURVE SMOOTH"
);
}
);
width = 514;
}
);
note = Iacute;
unicode = 00CD;
},
{
glyphname = Icircumflex;
lastChange = "2017-06-04 11:33:48 +0000";
layers = (
{
layerId = "05073167-317C-430E-AA64-F7AF394C318F";
paths = (
{
closed = 1;
nodes = (
"568 721 OFFCURVE",
"526 692 OFFCURVE",
"503 679 CURVE",
"500 673 OFFCURVE",
"501 670 OFFCURVE",
"508 670 CURVE",
"517 674 OFFCURVE",
"533 683 OFFCURVE",
"547 692 CURVE",
"554 696 OFFCURVE",
"560 700 OFFCURVE",
"567 704 CURVE SMOOTH",
"574 708 OFFCURVE",
"579 712 OFFCURVE",
"583 715 CURVE",
"604 698 OFFCURVE",
"624 682 OFFCURVE",
"649 671 CURVE",
"657 670 OFFCURVE",
"664 671 OFFCURVE",
"671 674 CURVE",
"677 677 OFFCURVE",
"678 681 OFFCURVE",
"675 684 CURVE",
"648 696 OFFCURVE",
"618 722 OFFCURVE",
"601 745 CURVE",
"596 749 OFFCURVE",
"592 749 OFFCURVE",
"589 746 CURVE"
);
},
{
closed = 1;
nodes = (
"594 645 OFFCURVE",
"498 601 OFFCURVE",
"430 536 CURVE SMOOTH",
"361 471 OFFCURVE",
"318 386 OFFCURVE",
"318 303 CURVE SMOOTH",
"318 227 OFFCURVE",
"355 175 OFFCURVE",
"423 171 CURVE",
"360 68 OFFCURVE",
"279 29 OFFCURVE",
"174 29 CURVE SMOOTH",
"90 29 OFFCURVE",
"49 68 OFFCURVE",
"49 113 CURVE SMOOTH",
"49 144 OFFCURVE",
"69 174 OFFCURVE",
"110 197 CURVE",
"113 200 OFFCURVE",
"113 205 OFFCURVE",
"106 206 CURVE",
"47 179 OFFCURVE",
"10 134 OFFCURVE",
"10 93 CURVE SMOOTH",
"10 41 OFFCURVE",
"61 0 OFFCURVE",
"141 0 CURVE SMOOTH",
"268 0 OFFCURVE",
"371 60 OFFCURVE",
"448 172 CURVE",
"471 175 OFFCURVE",
"489 182 OFFCURVE",
"503 191 CURVE",
"506 195 OFFCURVE",
"504 199 OFFCURVE",
"500 198 CURVE",
"491 193 OFFCURVE",
"473 185 OFFCURVE",
"454 182 CURVE",
"495 245 OFFCURVE",
"528 323 OFFCURVE",
"552 414 CURVE SMOOTH",
"572 491 OFFCURVE",
"590 538 OFFCURVE",
"610 566 CURVE SMOOTH",
"630 594 OFFCURVE",
"650 605 OFFCURVE",
"677 613 CURVE",
"682 616 OFFCURVE",
"690 623 OFFCURVE",
"695 630 CURVE SMOOTH",
"700 637 OFFCURVE",
"702 642 OFFCURVE",
"698 645 CURVE"
);
},
{
closed = 1;
nodes = (
"486 304 OFFCURVE",
"460 234 OFFCURVE",
"429 181 CURVE",
"369 185 OFFCURVE",
"331 227 OFFCURVE",
"331 307 CURVE SMOOTH",
"331 370 OFFCURVE",
"361 439 OFFCURVE",
"414 495 CURVE SMOOTH",
"466 551 OFFCURVE",
"542 595 OFFCURVE",
"634 606 CURVE",
"603 587 OFFCURVE",
"579 562 OFFCURVE",
"559 527 CURVE SMOOTH",
"539 492 OFFCURVE",
"524 448 OFFCURVE",
"509 392 CURVE SMOOTH"
);
}
);
width = 514;
}
);
note = Icircumflex;
unicode = 00CE;
},
{
glyphname = Idieresis;
lastChange = "2017-06-04 11:33:48 +0000";
layers = (
{
layerId = "05073167-317C-430E-AA64-F7AF394C318F";
paths = (
{
closed = 1;
nodes = (
"564 667 OFFCURVE",
"579 689 OFFCURVE",
"579 708 CURVE SMOOTH",
"579 717 OFFCURVE",
"576 721 OFFCURVE",
"570 721 CURVE SMOOTH",
"549 721 OFFCURVE",
"534 697 OFFCURVE",
"534 684 CURVE SMOOTH",
"534 673 OFFCURVE",
"538 667 OFFCURVE",
"545 667 CURVE SMOOTH"
);
},
{
closed = 1;
nodes = (
"638 667 OFFCURVE",
"654 689 OFFCURVE",
"654 708 CURVE SMOOTH",
"654 717 OFFCURVE",
"651 721 OFFCURVE",
"645 721 CURVE SMOOTH",
"625 721 OFFCURVE",
"610 697 OFFCURVE",
"610 684 CURVE SMOOTH",
"610 673 OFFCURVE",
"614 667 OFFCURVE",
"622 667 CURVE SMOOTH"
);
},
{
closed = 1;
nodes = (
"594 645 OFFCURVE",
"498 601 OFFCURVE",
"430 536 CURVE SMOOTH",
"361 471 OFFCURVE",
"318 386 OFFCURVE",
"318 303 CURVE SMOOTH",
"318 227 OFFCURVE",
"355 175 OFFCURVE",
"423 171 CURVE",
"360 68 OFFCURVE",
"279 29 OFFCURVE",
"174 29 CURVE SMOOTH",
"90 29 OFFCURVE",
"49 68 OFFCURVE",
"49 113 CURVE SMOOTH",
"49 144 OFFCURVE",
"69 174 OFFCURVE",
"110 197 CURVE",
"113 200 OFFCURVE",
"113 205 OFFCURVE",
"106 206 CURVE",
"47 179 OFFCURVE",
"10 134 OFFCURVE",
"10 93 CURVE SMOOTH",
"10 41 OFFCURVE",
"61 0 OFFCURVE",
"141 0 CURVE SMOOTH",
"268 0 OFFCURVE",
"371 60 OFFCURVE",
"448 172 CURVE",
"471 175 OFFCURVE",
"489 182 OFFCURVE",
"503 191 CURVE",
"506 195 OFFCURVE",
"504 199 OFFCURVE",
"500 198 CURVE",
"491 193 OFFCURVE",
"473 185 OFFCURVE",
"454 182 CURVE",
"495 245 OFFCURVE",
"528 323 OFFCURVE",
"552 414 CURVE SMOOTH",
"572 491 OFFCURVE",
"590 538 OFFCURVE",
"610 566 CURVE SMOOTH",
"630 594 OFFCURVE",
"650 605 OFFCURVE",
"677 613 CURVE",
"682 616 OFFCURVE",
"690 623 OFFCURVE",
"695 630 CURVE SMOOTH",
"700 637 OFFCURVE",
"702 642 OFFCURVE",
"698 645 CURVE"
);
},
{
closed = 1;
nodes = (
"486 304 OFFCURVE",
"460 234 OFFCURVE",
"429 181 CURVE",
"369 185 OFFCURVE",
"331 227 OFFCURVE",
"331 307 CURVE SMOOTH",
"331 370 OFFCURVE",
"361 439 OFFCURVE",
"414 495 CURVE SMOOTH",
"466 551 OFFCURVE",
"542 595 OFFCURVE",
"634 606 CURVE",
"603 587 OFFCURVE",
"579 562 OFFCURVE",
"559 527 CURVE SMOOTH",
"539 492 OFFCURVE",
"524 448 OFFCURVE",
"509 392 CURVE SMOOTH"
);
}
);
width = 514;
}
);
note = Idieresis;
unicode = 00CF;
},
{
glyphname = Igrave;
lastChange = "2017-06-04 11:33:48 +0000";
layers = (
{
layerId = "05073167-317C-430E-AA64-F7AF394C318F";
paths = (
{
closed = 1;
nodes = (
"579 689 OFFCURVE",
"547 712 OFFCURVE",
"524 731 CURVE",
"521 734 OFFCURVE",
"497 728 OFFCURVE",
"484 717 CURVE",
"483 716 OFFCURVE",
"482 714 OFFCURVE",
"482 713 CURVE SMOOTH",
"482 711 OFFCURVE",
"483 710 OFFCURVE",
"484 709 CURVE",
"499 701 OFFCURVE",
"521 691 OFFCURVE",
"544 682 CURVE SMOOTH",
"567 673 OFFCURVE",
"591 664 OFFCURVE",
"607 660 CURVE",
"614 660 OFFCURVE",
"618 666 OFFCURVE",
"615 669 CURVE"
);
},
{
closed = 1;
nodes = (
"594 645 OFFCURVE",
"498 601 OFFCURVE",
"430 536 CURVE SMOOTH",
"361 471 OFFCURVE",
"318 386 OFFCURVE",
"318 303 CURVE SMOOTH",
"318 227 OFFCURVE",
"355 175 OFFCURVE",
"423 171 CURVE",
"360 68 OFFCURVE",
"279 29 OFFCURVE",
"174 29 CURVE SMOOTH",
"90 29 OFFCURVE",
"49 68 OFFCURVE",
"49 113 CURVE SMOOTH",
"49 144 OFFCURVE",
"69 174 OFFCURVE",
"110 197 CURVE",
"113 200 OFFCURVE",
"113 205 OFFCURVE",
"106 206 CURVE",
"47 179 OFFCURVE",
"10 134 OFFCURVE",
"10 93 CURVE SMOOTH",
"10 41 OFFCURVE",
"61 0 OFFCURVE",
"141 0 CURVE SMOOTH",
"268 0 OFFCURVE",
"371 60 OFFCURVE",
"448 172 CURVE",
"471 175 OFFCURVE",
"489 182 OFFCURVE",
"503 191 CURVE",
"506 195 OFFCURVE",
"504 199 OFFCURVE",
"500 198 CURVE",
"491 193 OFFCURVE",
"473 185 OFFCURVE",
"454 182 CURVE",
"495 245 OFFCURVE",
"528 323 OFFCURVE",
"552 414 CURVE SMOOTH",
"572 491 OFFCURVE",
"590 538 OFFCURVE",
"610 566 CURVE SMOOTH",
"630 594 OFFCURVE",
"650 605 OFFCURVE",
"677 613 CURVE",
"682 616 OFFCURVE",
"690 623 OFFCURVE",
"695 630 CURVE SMOOTH",
"700 637 OFFCURVE",
"702 642 OFFCURVE",
"698 645 CURVE"
);
},
{
closed = 1;
nodes = (
"486 304 OFFCURVE",
"460 234 OFFCURVE",
"429 181 CURVE",
"369 185 OFFCURVE",
"331 227 OFFCURVE",
"331 307 CURVE SMOOTH",
"331 370 OFFCURVE",
"361 439 OFFCURVE",
"414 495 CURVE SMOOTH",
"466 551 OFFCURVE",
"542 595 OFFCURVE",
"634 606 CURVE",
"603 587 OFFCURVE",
"579 562 OFFCURVE",
"559 527 CURVE SMOOTH",
"539 492 OFFCURVE",
"524 448 OFFCURVE",
"509 392 CURVE SMOOTH"
);
}
);
width = 514;
}
);
note = Igrave;
unicode = 00CC;
},
{
glyphname = J;
lastChange = "2017-06-04 11:33:48 +0000";
layers = (
{
layerId = "05073167-317C-430E-AA64-F7AF394C318F";
paths = (
{
closed = 1;
nodes = (
"718 644 OFFCURVE",
"622 600 OFFCURVE",
"554 535 CURVE SMOOTH",
"485 470 OFFCURVE",
"442 385 OFFCURVE",
"442 302 CURVE SMOOTH",
"442 222 OFFCURVE",
"489 172 OFFCURVE",
"560 169 CURVE",
"509 52 OFFCURVE",
"451 -30 OFFCURVE",
"386 -82 CURVE SMOOTH",
"321 -134 OFFCURVE",
"248 -157 OFFCURVE",
"169 -157 CURVE SMOOTH",
"72 -157 OFFCURVE",
"35 -113 OFFCURVE",
"35 -46 CURVE SMOOTH",
"35 2 OFFCURVE",
"60 50 OFFCURVE",
"103 90 CURVE SMOOTH",
"146 130 OFFCURVE",
"205 162 OFFCURVE",
"276 175 CURVE",
"279 176 OFFCURVE",
"281 178 OFFCURVE",
"281 181 CURVE SMOOTH",
"281 184 OFFCURVE",
"279 185 OFFCURVE",
"276 185 CURVE",
"196 170 OFFCURVE",
"127 132 OFFCURVE",
"79 84 CURVE SMOOTH",
"30 36 OFFCURVE",
"0 -21 OFFCURVE",
"0 -72 CURVE SMOOTH",
"0 -136 OFFCURVE",
"43 -185 OFFCURVE",
"135 -185 CURVE SMOOTH",
"223 -185 OFFCURVE",
"309 -157 OFFCURVE",
"386 -98 CURVE SMOOTH",
"463 -39 OFFCURVE",
"534 49 OFFCURVE",
"591 172 CURVE",
"611 175 OFFCURVE",
"627 181 OFFCURVE",
"639 190 CURVE",
"641 195 OFFCURVE",
"640 197 OFFCURVE",
"635 197 CURVE",
"627 192 OFFCURVE",
"611 185 OFFCURVE",
"595 182 CURVE",
"626 250 OFFCURVE",
"652 325 OFFCURVE",
"675 413 CURVE SMOOTH",
"692 482 OFFCURVE",
"710 528 OFFCURVE",
"730 559 CURVE SMOOTH",
"750 590 OFFCURVE",
"773 604 OFFCURVE",
"801 612 CURVE",
"806 615 OFFCURVE",
"814 622 OFFCURVE",
"819 629 CURVE",
"823 636 OFFCURVE",
"826 641 OFFCURVE",
"822 644 CURVE"
);
},
{
closed = 1;
nodes = (
"612 310 OFFCURVE",
"589 240 OFFCURVE",
"564 179 CURVE",
"496 183 OFFCURVE",
"455 229 OFFCURVE",
"455 306 CURVE SMOOTH",
"455 369 OFFCURVE",
"485 438 OFFCURVE",
"538 495 CURVE SMOOTH",
"590 551 OFFCURVE",
"666 594 OFFCURVE",
"758 606 CURVE",
"703 574 OFFCURVE",
"662 507 OFFCURVE",
"633 391 CURVE SMOOTH"
);
}
);
width = 634;
}
);
note = J;
unicode = 004A;
},
{
glyphname = K;
lastChange = "2017-06-04 11:33:48 +0000";
layers = (
{
layerId = "05073167-317C-430E-AA64-F7AF394C318F";
paths = (
{
closed = 1;
nodes = (
"564 428 OFFCURVE",
"578 484 OFFCURVE",
"594 521 CURVE SMOOTH",
"610 558 OFFCURVE",
"630 578 OFFCURVE",
"658 590 CURVE",
"668 595 OFFCURVE",
"675 599 OFFCURVE",
"678 602 CURVE SMOOTH",
"681 605 OFFCURVE",
"681 608 OFFCURVE",
"678 612 CURVE",
"637 631 OFFCURVE",
"583 644 OFFCURVE",
"527 644 CURVE SMOOTH",
"424 644 OFFCURVE",
"348 607 OFFCURVE",
"302 550 CURVE SMOOTH",
"256 493 OFFCURVE",
"238 415 OFFCURVE",
"257 332 CURVE",
"261 325 OFFCURVE",
"268 329 OFFCURVE",
"268 336 CURVE",
"252 413 OFFCURVE",
"266 483 OFFCURVE",
"306 532 CURVE SMOOTH",
"345 581 OFFCURVE",
"408 612 OFFCURVE",
"491 612 CURVE SMOOTH",
"546 612 OFFCURVE",
"593 602 OFFCURVE",
"628 589 CURVE",
"601 574 OFFCURVE",
"579 555 OFFCURVE",
"559 513 CURVE SMOOTH",
"539 471 OFFCURVE",
"521 409 OFFCURVE",
"504 313 CURVE SMOOTH",
"485 209 OFFCURVE",
"453 137 OFFCURVE",
"405 92 CURVE SMOOTH",
"357 47 OFFCURVE",
"294 27 OFFCURVE",
"213 27 CURVE SMOOTH",
"132 27 OFFCURVE",
"85 72 OFFCURVE",
"85 136 CURVE SMOOTH",
"85 177 OFFCURVE",
"104 213 OFFCURVE",
"139 232 CURVE",
"142 237 OFFCURVE",
"140 242 OFFCURVE",
"132 242 CURVE",
"108 230 OFFCURVE",
"87 211 OFFCURVE",
"73 187 CURVE SMOOTH",
"59 163 OFFCURVE",
"50 135 OFFCURVE",
"50 108 CURVE SMOOTH",
"50 47 OFFCURVE",
"92 0 OFFCURVE",
"187 0 CURVE SMOOTH",
"278 0 OFFCURVE",
"359 30 OFFCURVE",
"423 88 CURVE SMOOTH",
"486 146 OFFCURVE",
"531 232 OFFCURVE",
"551 347 CURVE SMOOTH"
);
},
{
closed = 1;
nodes = (
"667 437 OFFCURVE",
"725 498 OFFCURVE",
"780 540 CURVE SMOOTH",
"835 582 OFFCURVE",
"886 606 OFFCURVE",
"923 606 CURVE SMOOTH",
"967 606 OFFCURVE",
"981 579 OFFCURVE",
"974 547 CURVE",
"975 542 OFFCURVE",
"980 540 OFFCURVE",
"984 544 CURVE",
"993 565 OFFCURVE",
"996 578 OFFCURVE",
"996 597 CURVE SMOOTH",
"996 625 OFFCURVE",
"978 644 OFFCURVE",
"955 644 CURVE SMOOTH",
"904 644 OFFCURVE",
"843 612 OFFCURVE",
"779 561 CURVE SMOOTH",
"715 510 OFFCURVE",
"649 438 OFFCURVE",
"589 361 CURVE",
"584 354 OFFCURVE",
"583 348 OFFCURVE",
"585 341 CURVE SMOOTH",
"608 250 OFFCURVE",
"634 165 OFFCURVE",
"670 102 CURVE SMOOTH",
"706 39 OFFCURVE",
"752 0 OFFCURVE",
"813 0 CURVE SMOOTH",
"865 0 OFFCURVE",
"900 28 OFFCURVE",
"920 65 CURVE",
"921 72 OFFCURVE",
"916 77 OFFCURVE",
"912 73 CURVE",
"897 49 OFFCURVE",
"871 32 OFFCURVE",
"842 32 CURVE SMOOTH",
"785 32 OFFCURVE",
"742 64 OFFCURVE",
"707 122 CURVE SMOOTH",
"672 180 OFFCURVE",
"644 264 OFFCURVE",
"615 368 CURVE"
);
}
);
width = 936;
}
);
note = K;
unicode = 004B;
},
{
glyphname = L;
lastChange = "2017-06-04 11:33:48 +0000";
layers = (
{
layerId = "05073167-317C-430E-AA64-F7AF394C318F";
paths = (
{
closed = 1;
nodes = (
"593 644 OFFCURVE",
"534 606 OFFCURVE",
"486 542 CURVE SMOOTH",
"437 477 OFFCURVE",
"397 383 OFFCURVE",
"368 274 CURVE SMOOTH",
"345 189 OFFCURVE",
"319 127 OFFCURVE",
"289 88 CURVE",
"238 107 OFFCURVE",
"191 124 OFFCURVE",
"139 124 CURVE SMOOTH",
"106 124 OFFCURVE",
"79 114 OFFCURVE",
"60 100 CURVE SMOOTH",
"40 86 OFFCURVE",
"30 66 OFFCURVE",
"30 49 CURVE SMOOTH",
"30 25 OFFCURVE",
"56 0 OFFCURVE",
"107 0 CURVE SMOOTH",
"177 0 OFFCURVE",
"234 18 OFFCURVE",
"279 54 CURVE",
"336 27 OFFCURVE",
"394 0 OFFCURVE",
"473 0 CURVE SMOOTH",
"562 0 OFFCURVE",
"612 38 OFFCURVE",
"644 110 CURVE SMOOTH",
"647 117 OFFCURVE",
"641 121 OFFCURVE",
"636 118 CURVE",
"605 57 OFFCURVE",
"568 39 OFFCURVE",
"505 39 CURVE SMOOTH",
"426 39 OFFCURVE",
"365 59 OFFCURVE",
"308 82 CURVE",
"352 131 OFFCURVE",
"385 203 OFFCURVE",
"410 299 CURVE SMOOTH",
"441 419 OFFCURVE",
"471 495 OFFCURVE",
"505 540 CURVE SMOOTH",
"539 585 OFFCURVE",
"578 601 OFFCURVE",
"626 601 CURVE SMOOTH",
"643 601 OFFCURVE",
"657 598 OFFCURVE",
"668 591 CURVE SMOOTH",
"690 578 OFFCURVE",
"699 556 OFFCURVE",
"699 531 CURVE SMOOTH",
"699 518 OFFCURVE",
"697 506 OFFCURVE",
"692 494 CURVE",
"691 487 OFFCURVE",
"697 485 OFFCURVE",
"702 489 CURVE",
"714 513 OFFCURVE",
"725 544 OFFCURVE",
"725 571 CURVE SMOOTH",
"725 612 OFFCURVE",
"703 644 OFFCURVE",
"660 644 CURVE SMOOTH"
);
},
{
closed = 1;
nodes = (
"88 21 OFFCURVE",
"59 43 OFFCURVE",
"59 70 CURVE SMOOTH",
"59 89 OFFCURVE",
"74 102 OFFCURVE",
"111 102 CURVE SMOOTH",
"170 102 OFFCURVE",
"216 84 OFFCURVE",
"263 61 CURVE",
"228 32 OFFCURVE",
"190 21 OFFCURVE",
"139 21 CURVE SMOOTH"
);
}
);
width = 657;
}
);
note = L;
unicode = 004C;
},
{
glyphname = M;
lastChange = "2017-06-04 11:33:48 +0000";
layers = (
{
layerId = "05073167-317C-430E-AA64-F7AF394C318F";
paths = (
{
closed = 1;
nodes = (
"1195 599 OFFCURVE",
"1097 513 OFFCURVE",
"1006 413 CURVE SMOOTH",
"915 313 OFFCURVE",
"832 200 OFFCURVE",
"769 89 CURVE",
"796 238 OFFCURVE",
"831 387 OFFCURVE",
"898 520 CURVE SMOOTH",
"913 548 OFFCURVE",
"922 564 OFFCURVE",
"941 576 CURVE",
"944 580 OFFCURVE",
"943 587 OFFCURVE",
"938 587 CURVE",
"937 586 OFFCURVE",
"935 586 OFFCURVE",
"934 586 CURVE SMOOTH",
"932 586 OFFCURVE",
"930 586 OFFCURVE",
"929 585 CURVE",
"889 598 OFFCURVE",
"839 613 OFFCURVE",
"786 625 CURVE SMOOTH",
"733 636 OFFCURVE",
"676 644 OFFCURVE",
"621 644 CURVE SMOOTH",
"490 644 OFFCURVE",
"405 573 OFFCURVE",
"390 442 CURVE",
"391 435 OFFCURVE",
"397 433 OFFCURVE",
"400 440 CURVE",
"415 559 OFFCURVE",
"486 616 OFFCURVE",
"586 616 CURVE SMOOTH",
"679 616 OFFCURVE",
"786 591 OFFCURVE",
"879 559 CURVE",
"782 412 OFFCURVE",
"685 283 OFFCURVE",
"584 188 CURVE SMOOTH",
"483 93 OFFCURVE",
"376 36 OFFCURVE",
"259 36 CURVE SMOOTH",
"203 36 OFFCURVE",
"161 55 OFFCURVE",
"133 84 CURVE SMOOTH",
"104 113 OFFCURVE",
"89 154 OFFCURVE",
"89 198 CURVE SMOOTH",
"89 254 OFFCURVE",
"104 285 OFFCURVE",
"145 312 CURVE",
"148 317 OFFCURVE",
"145 325 OFFCURVE",
"140 322 CURVE",
"81 291 OFFCURVE",
"51 235 OFFCURVE",
"51 171 CURVE SMOOTH",
"51 122 OFFCURVE",
"67 80 OFFCURVE",
"98 49 CURVE SMOOTH",
"129 18 OFFCURVE",
"171 0 OFFCURVE",
"226 0 CURVE SMOOTH",
"341 0 OFFCURVE",
"446 47 OFFCURVE",
"549 133 CURVE SMOOTH",
"652 219 OFFCURVE",
"753 345 OFFCURVE",
"860 505 CURVE",
"795 369 OFFCURVE",
"746 214 OFFCURVE",
"721 7 CURVE",
"721 2 OFFCURVE",
"723 0 OFFCURVE",
"728 0 CURVE SMOOTH",
"736 0 OFFCURVE",
"755 20 OFFCURVE",
"760 29 CURVE",
"805 125 OFFCURVE",
"876 232 OFFCURVE",
"956 330 CURVE SMOOTH",
"1035 428 OFFCURVE",
"1123 517 OFFCURVE",
"1206 578 CURVE",
"1151 515 OFFCURVE",
"1109 437 OFFCURVE",
"1081 357 CURVE SMOOTH",
"1053 276 OFFCURVE",
"1039 193 OFFCURVE",
"1039 124 CURVE SMOOTH",
"1039 82 OFFCURVE",
"1046 51 OFFCURVE",
"1059 31 CURVE SMOOTH",
"1072 10 OFFCURVE",
"1088 0 OFFCURVE",
"1105 0 CURVE SMOOTH",
"1121 0 OFFCURVE",
"1141 13 OFFCURVE",
"1161 31 CURVE SMOOTH",
"1181 49 OFFCURVE",
"1199 71 OFFCURVE",
"1214 94 CURVE",
"1215 99 OFFCURVE",
"1209 104 OFFCURVE",
"1205 100 CURVE",
"1180 63 OFFCURVE",
"1155 44 OFFCURVE",
"1130 44 CURVE SMOOTH",
"1115 44 OFFCURVE",
"1103 54 OFFCURVE",
"1094 75 CURVE SMOOTH",
"1085 95 OFFCURVE",
"1081 123 OFFCURVE",
"1081 159 CURVE SMOOTH",
"1081 238 OFFCURVE",
"1102 331 OFFCURVE",
"1139 418 CURVE SMOOTH",
"1176 505 OFFCURVE",
"1228 586 OFFCURVE",
"1292 642 CURVE",
"1296 647 OFFCURVE",
"1293 656 OFFCURVE",
"1286 656 CURVE"
);
}
);
width = 1219;
}
);
note = M;
unicode = 004D;
},
{
glyphname = N;
lastChange = "2017-06-04 11:33:48 +0000";
layers = (
{
layerId = "05073167-317C-430E-AA64-F7AF394C318F";
paths = (
{
closed = 1;
nodes = (
"1173 644 OFFCURVE",
"1130 611 OFFCURVE",
"1088 558 CURVE SMOOTH",
"1046 505 OFFCURVE",
"1007 432 OFFCURVE",
"976 353 CURVE SMOOTH",
"945 273 OFFCURVE",
"923 186 OFFCURVE",
"914 106 CURVE",
"887 197 OFFCURVE",
"852 287 OFFCURVE",
"808 367 CURVE SMOOTH",
"764 447 OFFCURVE",
"711 516 OFFCURVE",
"654 567 CURVE",
"657 584 OFFCURVE",
"659 602 OFFCURVE",
"660 621 CURVE",
"659 624 OFFCURVE",
"658 625 OFFCURVE",
"655 624 CURVE",
"652 622 OFFCURVE",
"650 619 OFFCURVE",
"647 615 CURVE",
"641 606 OFFCURVE",
"634 594 OFFCURVE",
"633 586 CURVE",
"633 584 LINE",
"582 623 OFFCURVE",
"528 644 OFFCURVE",
"472 644 CURVE SMOOTH",
"432 644 OFFCURVE",
"397 632 OFFCURVE",
"370 614 CURVE SMOOTH",
"343 596 OFFCURVE",
"322 570 OFFCURVE",
"310 545 CURVE",
"311 538 OFFCURVE",
"317 537 OFFCURVE",
"321 540 CURVE",
"340 576 OFFCURVE",
"382 611 OFFCURVE",
"446 611 CURVE SMOOTH",
"511 611 OFFCURVE",
"571 587 OFFCURVE",
"627 540 CURVE",
"604 383 OFFCURVE",
"559 258 OFFCURVE",
"496 174 CURVE SMOOTH",
"432 89 OFFCURVE",
"351 43 OFFCURVE",
"259 43 CURVE SMOOTH",
"166 43 OFFCURVE",
"112 83 OFFCURVE",
"91 132 CURVE SMOOTH",
"70 181 OFFCURVE",
"81 240 OFFCURVE",
"120 279 CURVE",
"123 286 OFFCURVE",
"119 291 OFFCURVE",
"112 290 CURVE",
"55 238 OFFCURVE",
"38 165 OFFCURVE",
"59 106 CURVE SMOOTH",
"80 46 OFFCURVE",
"139 0 OFFCURVE",
"234 0 CURVE SMOOTH",
"326 0 OFFCURVE",
"415 48 OFFCURVE",
"488 137 CURVE SMOOTH",
"561 226 OFFCURVE",
"618 357 OFFCURVE",
"647 522 CURVE",
"755 422 OFFCURVE",
"839 243 OFFCURVE",
"899 15 CURVE",
"902 7 OFFCURVE",
"905 0 OFFCURVE",
"910 0 CURVE SMOOTH",
"913 0 OFFCURVE",
"916 1 OFFCURVE",
"917 4 CURVE",
"918 6 OFFCURVE",
"919 11 OFFCURVE",
"919 18 CURVE",
"923 121 OFFCURVE",
"948 239 OFFCURVE",
"989 343 CURVE SMOOTH",
"1030 446 OFFCURVE",
"1086 536 OFFCURVE",
"1151 583 CURVE SMOOTH",
"1176 602 OFFCURVE",
"1204 604 OFFCURVE",
"1225 597 CURVE",
"1246 589 OFFCURVE",
"1262 571 OFFCURVE",
"1265 547 CURVE",
"1268 539 OFFCURVE",
"1276 540 OFFCURVE",
"1277 548 CURVE",
"1277 619 OFFCURVE",
"1253 644 OFFCURVE",
"1216 644 CURVE SMOOTH"
);
}
);
width = 990;
}
);
note = N;
unicode = 004E;
},
{
glyphname = Ntilde;
lastChange = "2017-06-04 11:33:48 +0000";
layers = (
{
layerId = "05073167-317C-430E-AA64-F7AF394C318F";
paths = (
{
closed = 1;
nodes = (
"610 669 OFFCURVE",
"615 664 OFFCURVE",
"620 667 CURVE",
"635 686 OFFCURVE",
"649 698 OFFCURVE",
"666 698 CURVE SMOOTH",
"679 698 OFFCURVE",
"693 690 OFFCURVE",
"707 682 CURVE",
"721 673 OFFCURVE",
"735 665 OFFCURVE",
"754 665 CURVE SMOOTH",
"794 665 OFFCURVE",
"814 688 OFFCURVE",
"830 724 CURVE",
"831 728 OFFCURVE",
"825 731 OFFCURVE",
"822 728 CURVE",
"809 700 OFFCURVE",
"795 684 OFFCURVE",
"771 684 CURVE SMOOTH",
"750 684 OFFCURVE",
"734 693 OFFCURVE",
"720 702 CURVE",
"706 710 OFFCURVE",
"694 719 OFFCURVE",
"678 719 CURVE SMOOTH",
"655 719 OFFCURVE",
"628 694 OFFCURVE",
"613 673 CURVE SMOOTH"
);
},
{
closed = 1;
nodes = (
"979 644 OFFCURVE",
"936 611 OFFCURVE",
"894 558 CURVE SMOOTH",
"852 505 OFFCURVE",
"813 432 OFFCURVE",
"782 353 CURVE SMOOTH",
"751 273 OFFCURVE",
"729 186 OFFCURVE",
"720 106 CURVE",
"693 197 OFFCURVE",
"658 287 OFFCURVE",
"614 367 CURVE SMOOTH",
"570 447 OFFCURVE",
"517 516 OFFCURVE",
"460 567 CURVE",
"463 584 OFFCURVE",
"465 602 OFFCURVE",
"466 621 CURVE",
"465 624 OFFCURVE",
"464 625 OFFCURVE",
"461 624 CURVE",
"458 622 OFFCURVE",
"456 619 OFFCURVE",
"453 615 CURVE",
"447 606 OFFCURVE",
"440 594 OFFCURVE",
"439 586 CURVE",
"439 584 LINE",
"388 623 OFFCURVE",
"334 644 OFFCURVE",
"278 644 CURVE SMOOTH",
"238 644 OFFCURVE",
"203 632 OFFCURVE",
"176 614 CURVE SMOOTH",
"149 596 OFFCURVE",
"128 570 OFFCURVE",
"116 545 CURVE",
"117 538 OFFCURVE",
"123 537 OFFCURVE",
"127 540 CURVE",
"146 576 OFFCURVE",
"188 611 OFFCURVE",
"252 611 CURVE SMOOTH",
"317 611 OFFCURVE",
"377 587 OFFCURVE",
"433 540 CURVE",
"410 383 OFFCURVE",
"365 258 OFFCURVE",
"302 174 CURVE SMOOTH",
"238 89 OFFCURVE",
"157 43 OFFCURVE",
"65 43 CURVE SMOOTH",
"-28 43 OFFCURVE",
"-82 83 OFFCURVE",
"-103 132 CURVE SMOOTH",
"-124 181 OFFCURVE",
"-113 240 OFFCURVE",
"-74 279 CURVE",
"-71 286 OFFCURVE",
"-75 291 OFFCURVE",
"-82 290 CURVE",
"-139 238 OFFCURVE",
"-156 165 OFFCURVE",
"-135 106 CURVE SMOOTH",
"-114 46 OFFCURVE",
"-55 0 OFFCURVE",
"40 0 CURVE SMOOTH",
"132 0 OFFCURVE",
"221 48 OFFCURVE",
"294 137 CURVE SMOOTH",
"367 226 OFFCURVE",
"424 357 OFFCURVE",
"453 522 CURVE",
"561 422 OFFCURVE",
"645 243 OFFCURVE",
"705 15 CURVE",
"708 7 OFFCURVE",
"711 0 OFFCURVE",
"716 0 CURVE SMOOTH",
"719 0 OFFCURVE",
"722 1 OFFCURVE",
"723 4 CURVE",
"724 6 OFFCURVE",
"725 11 OFFCURVE",
"725 18 CURVE",
"729 121 OFFCURVE",
"754 239 OFFCURVE",
"795 343 CURVE SMOOTH",
"836 446 OFFCURVE",
"892 536 OFFCURVE",
"957 583 CURVE SMOOTH",
"982 602 OFFCURVE",
"1010 604 OFFCURVE",
"1031 597 CURVE",
"1052 589 OFFCURVE",
"1068 571 OFFCURVE",
"1071 547 CURVE",
"1074 539 OFFCURVE",
"1082 540 OFFCURVE",
"1083 548 CURVE",
"1083 619 OFFCURVE",
"1059 644 OFFCURVE",
"1022 644 CURVE SMOOTH"
);
}
);
width = 796;
}
);
note = Ntilde;
unicode = 00D1;
},
{
glyphname = O;
lastChange = "2017-06-04 11:33:48 +0000";
layers = (
{
layerId = "05073167-317C-430E-AA64-F7AF394C318F";
paths = (
{
closed = 1;
nodes = (
"341 645 OFFCURVE",
"247 592 OFFCURVE",
"179 515 CURVE SMOOTH",
"111 438 OFFCURVE",
"70 333 OFFCURVE",
"70 232 CURVE SMOOTH",
"70 171 OFFCURVE",
"89 113 OFFCURVE",
"125 70 CURVE SMOOTH",
"161 27 OFFCURVE",
"214 0 OFFCURVE",
"285 0 CURVE SMOOTH",
"377 0 OFFCURVE",
"469 48 OFFCURVE",
"537 122 CURVE SMOOTH",
"605 196 OFFCURVE",
"651 297 OFFCURVE",
"651 406 CURVE SMOOTH",
"651 475 OFFCURVE",
"631 534 OFFCURVE",
"596 577 CURVE SMOOTH",
"560 620 OFFCURVE",
"509 645 OFFCURVE",
"446 645 CURVE SMOOTH"
);
},
{
closed = 1;
nodes = (
"260 31 OFFCURVE",
"205 55 OFFCURVE",
"169 96 CURVE SMOOTH",
"132 137 OFFCURVE",
"112 196 OFFCURVE",
"112 265 CURVE SMOOTH",
"112 361 OFFCURVE",
"143 447 OFFCURVE",
"196 510 CURVE SMOOTH",
"249 573 OFFCURVE",
"325 611 OFFCURVE",
"414 611 CURVE SMOOTH",
"537 611 OFFCURVE",
"611 523 OFFCURVE",
"611 376 CURVE SMOOTH",
"611 273 OFFCURVE",
"574 187 OFFCURVE",
"521 127 CURVE SMOOTH",
"468 66 OFFCURVE",
"397 31 OFFCURVE",
"328 31 CURVE SMOOTH"
);
}
);
width = 606;
}
);
note = O;
unicode = 004F;
},
{
glyphname = Oacute;
lastChange = "2017-06-04 11:33:48 +0000";
layers = (
{
layerId = "05073167-317C-430E-AA64-F7AF394C318F";
paths = (
{
closed = 1;
nodes = (
"443 707 OFFCURVE",
"408 685 OFFCURVE",
"381 669 CURVE",
"379 667 OFFCURVE",
"378 665 OFFCURVE",
"378 662 CURVE SMOOTH",
"378 659 OFFCURVE",
"379 658 OFFCURVE",
"382 658 CURVE",
"402 665 OFFCURVE",
"428 675 OFFCURVE",
"452 685 CURVE SMOOTH",
"475 695 OFFCURVE",
"497 706 OFFCURVE",
"510 715 CURVE",
"514 718 OFFCURVE",
"512 721 OFFCURVE",
"509 724 CURVE",
"497 729 OFFCURVE",
"475 738 OFFCURVE",
"468 734 CURVE"
);
},
{
closed = 1;
nodes = (
"343 645 OFFCURVE",
"249 592 OFFCURVE",
"181 515 CURVE SMOOTH",
"113 438 OFFCURVE",
"72 333 OFFCURVE",
"72 232 CURVE SMOOTH",
"72 171 OFFCURVE",
"91 113 OFFCURVE",
"127 70 CURVE SMOOTH",
"163 27 OFFCURVE",
"216 0 OFFCURVE",
"287 0 CURVE SMOOTH",
"379 0 OFFCURVE",
"471 48 OFFCURVE",
"539 122 CURVE SMOOTH",
"607 196 OFFCURVE",
"653 297 OFFCURVE",
"653 406 CURVE SMOOTH",
"653 475 OFFCURVE",
"633 534 OFFCURVE",
"598 577 CURVE SMOOTH",
"562 620 OFFCURVE",
"511 645 OFFCURVE",
"448 645 CURVE SMOOTH"
);
},
{
closed = 1;
nodes = (
"262 31 OFFCURVE",
"207 55 OFFCURVE",
"171 96 CURVE SMOOTH",
"134 137 OFFCURVE",
"114 196 OFFCURVE",
"114 265 CURVE SMOOTH",
"114 361 OFFCURVE",
"145 447 OFFCURVE",
"198 510 CURVE SMOOTH",
"251 573 OFFCURVE",
"327 611 OFFCURVE",
"416 611 CURVE SMOOTH",
"539 611 OFFCURVE",
"613 523 OFFCURVE",
"613 376 CURVE SMOOTH",
"613 273 OFFCURVE",
"576 187 OFFCURVE",
"523 127 CURVE SMOOTH",
"470 66 OFFCURVE",
"399 31 OFFCURVE",
"330 31 CURVE SMOOTH"
);
}
);
width = 608;
}
);
note = Oacute;
unicode = 00D3;
},
{
glyphname = Ocircumflex;
lastChange = "2017-06-04 11:33:48 +0000";
layers = (
{
layerId = "05073167-317C-430E-AA64-F7AF394C318F";
paths = (
{
closed = 1;
nodes = (
"429 721 OFFCURVE",
"387 692 OFFCURVE",
"364 679 CURVE",
"361 673 OFFCURVE",
"362 670 OFFCURVE",
"369 670 CURVE",
"378 674 OFFCURVE",
"394 683 OFFCURVE",
"408 692 CURVE",
"415 696 OFFCURVE",
"421 700 OFFCURVE",
"428 704 CURVE SMOOTH",
"435 708 OFFCURVE",
"440 712 OFFCURVE",
"444 715 CURVE",
"465 698 OFFCURVE",
"485 682 OFFCURVE",
"510 671 CURVE",
"518 670 OFFCURVE",
"525 671 OFFCURVE",
"532 674 CURVE",
"538 677 OFFCURVE",
"539 681 OFFCURVE",
"536 684 CURVE",
"509 696 OFFCURVE",
"479 722 OFFCURVE",
"462 745 CURVE",
"457 749 OFFCURVE",
"453 749 OFFCURVE",
"450 746 CURVE"
);
},
{
closed = 1;
nodes = (
"343 645 OFFCURVE",
"249 592 OFFCURVE",
"181 515 CURVE SMOOTH",
"113 438 OFFCURVE",
"72 333 OFFCURVE",
"72 232 CURVE SMOOTH",
"72 171 OFFCURVE",
"91 113 OFFCURVE",
"127 70 CURVE SMOOTH",
"163 27 OFFCURVE",
"216 0 OFFCURVE",
"287 0 CURVE SMOOTH",
"379 0 OFFCURVE",
"471 48 OFFCURVE",
"539 122 CURVE SMOOTH",
"607 196 OFFCURVE",
"653 297 OFFCURVE",
"653 406 CURVE SMOOTH",
"653 475 OFFCURVE",
"633 534 OFFCURVE",
"598 577 CURVE SMOOTH",
"562 620 OFFCURVE",
"511 645 OFFCURVE",
"448 645 CURVE SMOOTH"
);
},
{
closed = 1;
nodes = (
"262 31 OFFCURVE",
"207 55 OFFCURVE",
"171 96 CURVE SMOOTH",
"134 137 OFFCURVE",
"114 196 OFFCURVE",
"114 265 CURVE SMOOTH",
"114 361 OFFCURVE",
"145 447 OFFCURVE",
"198 510 CURVE SMOOTH",
"251 573 OFFCURVE",
"327 611 OFFCURVE",
"416 611 CURVE SMOOTH",
"539 611 OFFCURVE",
"613 523 OFFCURVE",
"613 376 CURVE SMOOTH",
"613 273 OFFCURVE",
"576 187 OFFCURVE",
"523 127 CURVE SMOOTH",
"470 66 OFFCURVE",
"399 31 OFFCURVE",
"330 31 CURVE SMOOTH"
);
}
);
width = 608;
}
);
note = Ocircumflex;
unicode = 00D4;
},
{
glyphname = Odieresis;
lastChange = "2017-06-04 11:33:48 +0000";
layers = (
{
layerId = "05073167-317C-430E-AA64-F7AF394C318F";
paths = (
{
closed = 1;
nodes = (
"425 667 OFFCURVE",
"440 689 OFFCURVE",
"440 708 CURVE SMOOTH",
"440 717 OFFCURVE",
"437 721 OFFCURVE",
"431 721 CURVE SMOOTH",
"410 721 OFFCURVE",
"395 697 OFFCURVE",
"395 684 CURVE SMOOTH",
"395 673 OFFCURVE",
"399 667 OFFCURVE",
"406 667 CURVE SMOOTH"
);
},
{
closed = 1;
nodes = (
"499 667 OFFCURVE",
"515 689 OFFCURVE",
"515 708 CURVE SMOOTH",
"515 717 OFFCURVE",
"512 721 OFFCURVE",
"506 721 CURVE SMOOTH",
"486 721 OFFCURVE",
"471 697 OFFCURVE",
"471 684 CURVE SMOOTH",
"471 673 OFFCURVE",
"475 667 OFFCURVE",
"483 667 CURVE SMOOTH"
);
},
{
closed = 1;
nodes = (
"343 645 OFFCURVE",
"249 592 OFFCURVE",
"181 515 CURVE SMOOTH",
"113 438 OFFCURVE",
"72 333 OFFCURVE",
"72 232 CURVE SMOOTH",
"72 171 OFFCURVE",
"91 113 OFFCURVE",
"127 70 CURVE SMOOTH",
"163 27 OFFCURVE",
"216 0 OFFCURVE",
"287 0 CURVE SMOOTH",
"379 0 OFFCURVE",
"471 48 OFFCURVE",
"539 122 CURVE SMOOTH",
"607 196 OFFCURVE",
"653 297 OFFCURVE",
"653 406 CURVE SMOOTH",
"653 475 OFFCURVE",
"633 534 OFFCURVE",
"598 577 CURVE SMOOTH",
"562 620 OFFCURVE",
"511 645 OFFCURVE",
"448 645 CURVE SMOOTH"
);
},
{
closed = 1;
nodes = (
"262 31 OFFCURVE",
"207 55 OFFCURVE",
"171 96 CURVE SMOOTH",
"134 137 OFFCURVE",
"114 196 OFFCURVE",
"114 265 CURVE SMOOTH",
"114 361 OFFCURVE",
"145 447 OFFCURVE",
"198 510 CURVE SMOOTH",
"251 573 OFFCURVE",
"327 611 OFFCURVE",
"416 611 CURVE SMOOTH",
"539 611 OFFCURVE",
"613 523 OFFCURVE",
"613 376 CURVE SMOOTH",
"613 273 OFFCURVE",
"576 187 OFFCURVE",
"523 127 CURVE SMOOTH",
"470 66 OFFCURVE",
"399 31 OFFCURVE",
"330 31 CURVE SMOOTH"
);
}
);
width = 608;
}
);
note = Odieresis;
unicode = 00D6;
},
{
glyphname = Ograve;
lastChange = "2017-06-04 11:33:48 +0000";
layers = (
{
layerId = "05073167-317C-430E-AA64-F7AF394C318F";
paths = (
{
closed = 1;
nodes = (
"458 689 OFFCURVE",
"426 712 OFFCURVE",
"403 731 CURVE",
"400 734 OFFCURVE",
"376 728 OFFCURVE",
"363 717 CURVE",
"362 716 OFFCURVE",
"361 714 OFFCURVE",
"361 713 CURVE SMOOTH",
"361 711 OFFCURVE",
"362 710 OFFCURVE",
"363 709 CURVE",
"378 701 OFFCURVE",
"400 691 OFFCURVE",
"423 682 CURVE SMOOTH",
"446 673 OFFCURVE",
"470 664 OFFCURVE",
"486 660 CURVE",
"493 660 OFFCURVE",
"497 666 OFFCURVE",
"494 669 CURVE"
);
},
{
closed = 1;
nodes = (
"343 645 OFFCURVE",
"249 592 OFFCURVE",
"181 515 CURVE SMOOTH",
"113 438 OFFCURVE",
"72 333 OFFCURVE",
"72 232 CURVE SMOOTH",
"72 171 OFFCURVE",
"91 113 OFFCURVE",
"127 70 CURVE SMOOTH",
"163 27 OFFCURVE",
"216 0 OFFCURVE",
"287 0 CURVE SMOOTH",
"379 0 OFFCURVE",
"471 48 OFFCURVE",
"539 122 CURVE SMOOTH",
"607 196 OFFCURVE",
"653 297 OFFCURVE",
"653 406 CURVE SMOOTH",
"653 475 OFFCURVE",
"633 534 OFFCURVE",
"598 577 CURVE SMOOTH",
"562 620 OFFCURVE",
"511 645 OFFCURVE",
"448 645 CURVE SMOOTH"
);
},
{
closed = 1;
nodes = (
"262 31 OFFCURVE",
"207 55 OFFCURVE",
"171 96 CURVE SMOOTH",
"134 137 OFFCURVE",
"114 196 OFFCURVE",
"114 265 CURVE SMOOTH",
"114 361 OFFCURVE",
"145 447 OFFCURVE",
"198 510 CURVE SMOOTH",
"251 573 OFFCURVE",
"327 611 OFFCURVE",
"416 611 CURVE SMOOTH",
"539 611 OFFCURVE",
"613 523 OFFCURVE",
"613 376 CURVE SMOOTH",
"613 273 OFFCURVE",
"576 187 OFFCURVE",
"523 127 CURVE SMOOTH",
"470 66 OFFCURVE",
"399 31 OFFCURVE",
"330 31 CURVE SMOOTH"
);
}
);
width = 608;
}
);
note = Ograve;
unicode = 00D2;
},
{
glyphname = Oslash;
lastChange = "2017-06-04 11:33:48 +0000";
layers = (
{
layerId = "05073167-317C-430E-AA64-F7AF394C318F";
paths = (
{
closed = 1;
nodes = (
"571 627 OFFCURVE",
"582 641 OFFCURVE",
"591 652 CURVE",
"594 661 OFFCURVE",
"581 664 OFFCURVE",
"573 657 CURVE",
"564 646 OFFCURVE",
"555 634 OFFCURVE",
"544 619 CURVE",
"515 636 OFFCURVE",
"482 644 OFFCURVE",
"446 644 CURVE SMOOTH",
"375 644 OFFCURVE",
"311 621 OFFCURVE",
"255 583 CURVE SMOOTH",
"199 545 OFFCURVE",
"153 490 OFFCURVE",
"121 430 CURVE SMOOTH",
"89 369 OFFCURVE",
"70 300 OFFCURVE",
"70 232 CURVE SMOOTH",
"70 164 OFFCURVE",
"92 101 OFFCURVE",
"136 57 CURVE",
"116 30 OFFCURVE",
"99 7 OFFCURVE",
"86 -12 CURVE",
"83 -20 OFFCURVE",
"97 -23 OFFCURVE",
"104 -15 CURVE",
"115 1 OFFCURVE",
"129 22 OFFCURVE",
"148 47 CURVE",
"183 18 OFFCURVE",
"228 0 OFFCURVE",
"285 0 CURVE SMOOTH",
"377 0 OFFCURVE",
"468 48 OFFCURVE",
"537 122 CURVE SMOOTH",
"605 196 OFFCURVE",
"650 297 OFFCURVE",
"650 406 CURVE SMOOTH",
"650 497 OFFCURVE",
"618 570 OFFCURVE",
"559 610 CURVE"
);
},
{
closed = 1;
nodes = (
"112 360 OFFCURVE",
"143 446 OFFCURVE",
"196 509 CURVE SMOOTH",
"248 572 OFFCURVE",
"324 610 OFFCURVE",
"413 610 CURVE SMOOTH",
"453 610 OFFCURVE",
"488 601 OFFCURVE",
"517 583 CURVE",
"468 516 OFFCURVE",
"406 431 OFFCURVE",
"343 344 CURVE SMOOTH",
"280 257 OFFCURVE",
"217 170 OFFCURVE",
"165 99 CURVE",
"130 140 OFFCURVE",
"112 196 OFFCURVE",
"112 265 CURVE SMOOTH"
);
},
{
closed = 1;
nodes = (
"263 30 OFFCURVE",
"213 51 OFFCURVE",
"176 87 CURVE",
"225 156 OFFCURVE",
"290 246 OFFCURVE",
"354 334 CURVE SMOOTH",
"418 421 OFFCURVE",
"482 508 OFFCURVE",
"531 573 CURVE",
"582 534 OFFCURVE",
"610 467 OFFCURVE",
"610 376 CURVE SMOOTH",
"610 273 OFFCURVE",
"574 186 OFFCURVE",
"521 126 CURVE SMOOTH",
"468 65 OFFCURVE",
"396 30 OFFCURVE",
"327 30 CURVE SMOOTH"
);
}
);
width = 605;
}
);
note = Oslash;
unicode = 00D8;
},
{
glyphname = Otilde;
lastChange = "2017-06-04 11:33:48 +0000";
layers = (
{
layerId = "05073167-317C-430E-AA64-F7AF394C318F";
paths = (
{
closed = 1;
nodes = (
"342 669 OFFCURVE",
"347 664 OFFCURVE",
"352 667 CURVE",
"367 686 OFFCURVE",
"381 698 OFFCURVE",
"398 698 CURVE SMOOTH",
"411 698 OFFCURVE",
"425 690 OFFCURVE",
"439 682 CURVE",
"453 673 OFFCURVE",
"467 665 OFFCURVE",
"486 665 CURVE SMOOTH",
"526 665 OFFCURVE",
"546 688 OFFCURVE",
"562 724 CURVE",
"563 728 OFFCURVE",
"557 731 OFFCURVE",
"554 728 CURVE",
"541 700 OFFCURVE",
"527 684 OFFCURVE",
"503 684 CURVE SMOOTH",
"482 684 OFFCURVE",
"466 693 OFFCURVE",
"452 702 CURVE",
"438 710 OFFCURVE",
"426 719 OFFCURVE",
"410 719 CURVE SMOOTH",
"387 719 OFFCURVE",
"360 694 OFFCURVE",
"345 673 CURVE SMOOTH"
);
},
{
closed = 1;
nodes = (
"343 645 OFFCURVE",
"249 592 OFFCURVE",
"181 515 CURVE SMOOTH",
"113 438 OFFCURVE",
"72 333 OFFCURVE",
"72 232 CURVE SMOOTH",
"72 171 OFFCURVE",
"91 113 OFFCURVE",
"127 70 CURVE SMOOTH",
"163 27 OFFCURVE",
"216 0 OFFCURVE",
"287 0 CURVE SMOOTH",
"379 0 OFFCURVE",
"471 48 OFFCURVE",
"539 122 CURVE SMOOTH",
"607 196 OFFCURVE",
"653 297 OFFCURVE",
"653 406 CURVE SMOOTH",
"653 475 OFFCURVE",
"633 534 OFFCURVE",
"598 577 CURVE SMOOTH",
"562 620 OFFCURVE",
"511 645 OFFCURVE",
"448 645 CURVE SMOOTH"
);
},
{
closed = 1;
nodes = (
"262 31 OFFCURVE",
"207 55 OFFCURVE",
"171 96 CURVE SMOOTH",
"134 137 OFFCURVE",
"114 196 OFFCURVE",
"114 265 CURVE SMOOTH",
"114 361 OFFCURVE",
"145 447 OFFCURVE",
"198 510 CURVE SMOOTH",
"251 573 OFFCURVE",
"327 611 OFFCURVE",
"416 611 CURVE SMOOTH",
"539 611 OFFCURVE",
"613 523 OFFCURVE",
"613 376 CURVE SMOOTH",
"613 273 OFFCURVE",
"576 187 OFFCURVE",
"523 127 CURVE SMOOTH",
"470 66 OFFCURVE",
"399 31 OFFCURVE",
"330 31 CURVE SMOOTH"
);
}
);
width = 608;
}
);
note = Otilde;
unicode = 00D5;
},
{
glyphname = P;
lastChange = "2017-06-04 11:33:48 +0000";
layers = (
{
layerId = "05073167-317C-430E-AA64-F7AF394C318F";
paths = (
{
closed = 1;
nodes = (
"708 656 OFFCURVE",
"726 665 OFFCURVE",
"749 672 CURVE",
"756 675 OFFCURVE",
"755 680 OFFCURVE",
"748 680 CURVE",
"718 673 OFFCURVE",
"692 660 OFFCURVE",
"669 643 CURVE",
"666 644 OFFCURVE",
"662 644 OFFCURVE",
"659 644 CURVE SMOOTH",
"655 644 OFFCURVE",
"651 644 OFFCURVE",
"647 644 CURVE SMOOTH",
"474 644 OFFCURVE",
"370 561 OFFCURVE",
"325 428 CURVE",
"325 423 OFFCURVE",
"326 419 OFFCURVE",
"328 418 CURVE",
"330 416 OFFCURVE",
"332 416 OFFCURVE",
"334 418 CURVE",
"373 551 OFFCURVE",
"475 620 OFFCURVE",
"616 620 CURVE SMOOTH",
"621 620 OFFCURVE",
"625 620 OFFCURVE",
"630 620 CURVE SMOOTH",
"634 620 OFFCURVE",
"638 620 OFFCURVE",
"642 619 CURVE",
"591 567 OFFCURVE",
"557 485 OFFCURVE",
"526 372 CURVE SMOOTH",
"519 347 OFFCURVE",
"512 324 OFFCURVE",
"505 303 CURVE",
"492 320 OFFCURVE",
"483 342 OFFCURVE",
"477 368 CURVE",
"474 372 OFFCURVE",
"469 369 OFFCURVE",
"468 364 CURVE",
"475 333 OFFCURVE",
"485 308 OFFCURVE",
"500 287 CURVE",
"465 187 OFFCURVE",
"429 123 OFFCURVE",
"386 84 CURVE SMOOTH",
"342 44 OFFCURVE",
"291 30 OFFCURVE",
"230 30 CURVE SMOOTH",
"179 30 OFFCURVE",
"141 45 OFFCURVE",
"114 70 CURVE SMOOTH",
"87 95 OFFCURVE",
"73 129 OFFCURVE",
"73 168 CURVE SMOOTH",
"73 209 OFFCURVE",
"92 248 OFFCURVE",
"131 269 CURVE",
"134 275 OFFCURVE",
"132 277 OFFCURVE",
"125 276 CURVE",
"102 265 OFFCURVE",
"83 245 OFFCURVE",
"71 222 CURVE SMOOTH",
"58 198 OFFCURVE",
"50 171 OFFCURVE",
"50 146 CURVE SMOOTH",
"50 109 OFFCURVE",
"63 72 OFFCURVE",
"89 45 CURVE SMOOTH",
"115 18 OFFCURVE",
"152 0 OFFCURVE",
"203 0 CURVE SMOOTH",
"334 0 OFFCURVE",
"446 79 OFFCURVE",
"526 259 CURVE",
"553 237 OFFCURVE",
"588 226 OFFCURVE",
"633 226 CURVE SMOOTH",
"709 226 OFFCURVE",
"769 250 OFFCURVE",
"810 290 CURVE SMOOTH",
"850 329 OFFCURVE",
"873 383 OFFCURVE",
"873 444 CURVE SMOOTH",
"873 491 OFFCURVE",
"857 535 OFFCURVE",
"826 571 CURVE SMOOTH",
"795 607 OFFCURVE",
"750 633 OFFCURVE",
"691 641 CURVE"
);
},
{
closed = 1;
nodes = (
"596 246 OFFCURVE",
"560 256 OFFCURVE",
"533 275 CURVE",
"551 318 OFFCURVE",
"567 367 OFFCURVE",
"581 420 CURVE SMOOTH",
"604 507 OFFCURVE",
"631 572 OFFCURVE",
"667 616 CURVE",
"719 607 OFFCURVE",
"760 582 OFFCURVE",
"788 550 CURVE SMOOTH",
"815 517 OFFCURVE",
"829 474 OFFCURVE",
"829 427 CURVE SMOOTH",
"829 376 OFFCURVE",
"811 331 OFFCURVE",
"779 299 CURVE SMOOTH",
"746 266 OFFCURVE",
"699 246 OFFCURVE",
"643 246 CURVE SMOOTH"
);
}
);
width = 783;
}
);
note = P;
unicode = 0050;
},
{
glyphname = Q;
lastChange = "2017-06-04 11:33:48 +0000";
layers = (
{
layerId = "05073167-317C-430E-AA64-F7AF394C318F";
paths = (
{
closed = 1;
nodes = (
"322 644 OFFCURVE",
"246 601 OFFCURVE",
"192 535 CURVE SMOOTH",
"138 469 OFFCURVE",
"104 380 OFFCURVE",
"104 289 CURVE SMOOTH",
"104 246 OFFCURVE",
"115 209 OFFCURVE",
"135 182 CURVE SMOOTH",
"155 154 OFFCURVE",
"183 137 OFFCURVE",
"219 137 CURVE SMOOTH",
"250 137 OFFCURVE",
"277 148 OFFCURVE",
"289 163 CURVE",
"290 168 OFFCURVE",
"287 173 OFFCURVE",
"282 172 CURVE",
"273 163 OFFCURVE",
"256 160 OFFCURVE",
"233 164 CURVE SMOOTH",
"170 175 OFFCURVE",
"139 232 OFFCURVE",
"139 304 CURVE SMOOTH",
"139 399 OFFCURVE",
"165 478 OFFCURVE",
"210 534 CURVE SMOOTH",
"255 590 OFFCURVE",
"318 623 OFFCURVE",
"393 623 CURVE SMOOTH",
"449 623 OFFCURVE",
"491 601 OFFCURVE",
"520 563 CURVE SMOOTH",
"549 525 OFFCURVE",
"564 470 OFFCURVE",
"564 409 CURVE SMOOTH",
"564 298 OFFCURVE",
"516 206 OFFCURVE",
"444 140 CURVE SMOOTH",
"371 74 OFFCURVE",
"272 36 OFFCURVE",
"169 36 CURVE SMOOTH",
"160 36 OFFCURVE",
"149 39 OFFCURVE",
"137 44 CURVE SMOOTH",
"125 49 OFFCURVE",
"115 52 OFFCURVE",
"107 52 CURVE SMOOTH",
"95 52 OFFCURVE",
"83 48 OFFCURVE",
"70 41 CURVE SMOOTH",
"55 33 OFFCURVE",
"59 25 OFFCURVE",
"66 22 CURVE",
"88 23 OFFCURVE",
"114 18 OFFCURVE",
"143 8 CURVE SMOOTH",
"202 -13 OFFCURVE",
"267 -46 OFFCURVE",
"336 -82 CURVE SMOOTH",
"371 -100 OFFCURVE",
"405 -116 OFFCURVE",
"438 -131 CURVE SMOOTH",
"466 -144 OFFCURVE",
"489 -152 OFFCURVE",
"513 -158 CURVE SMOOTH",
"536 -164 OFFCURVE",
"558 -167 OFFCURVE",
"586 -167 CURVE SMOOTH",
"666 -167 OFFCURVE",
"722 -131 OFFCURVE",
"758 -80 CURVE",
"761 -73 OFFCURVE",
"753 -71 OFFCURVE",
"749 -74 CURVE",
"717 -109 OFFCURVE",
"675 -127 OFFCURVE",
"607 -127 CURVE SMOOTH",
"556 -127 OFFCURVE",
"519 -118 OFFCURVE",
"468 -98 CURVE SMOOTH",
"420 -79 OFFCURVE",
"370 -55 OFFCURVE",
"326 -33 CURVE SMOOTH",
"281 -11 OFFCURVE",
"239 9 OFFCURVE",
"204 21 CURVE",
"312 34 OFFCURVE",
"413 85 OFFCURVE",
"488 158 CURVE SMOOTH",
"563 230 OFFCURVE",
"611 326 OFFCURVE",
"611 430 CURVE SMOOTH",
"611 494 OFFCURVE",
"593 547 OFFCURVE",
"558 585 CURVE SMOOTH",
"523 623 OFFCURVE",
"472 644 OFFCURVE",
"407 644 CURVE SMOOTH"
);
}
);
width = 563;
}
);
note = Q;
unicode = 0051;
},
{
glyphname = R;
lastChange = "2017-06-04 11:33:48 +0000";
layers = (
{
layerId = "05073167-317C-430E-AA64-F7AF394C318F";
paths = (
{
closed = 1;
nodes = (
"832 46 OFFCURVE",
"813 32 OFFCURVE",
"785 32 CURVE SMOOTH",
"745 32 OFFCURVE",
"710 44 OFFCURVE",
"679 85 CURVE SMOOTH",
"648 125 OFFCURVE",
"623 194 OFFCURVE",
"602 309 CURVE",
"657 306 OFFCURVE",
"710 324 OFFCURVE",
"750 356 CURVE SMOOTH",
"789 388 OFFCURVE",
"815 435 OFFCURVE",
"815 488 CURVE SMOOTH",
"815 528 OFFCURVE",
"799 566 OFFCURVE",
"771 595 CURVE SMOOTH",
"743 624 OFFCURVE",
"704 644 OFFCURVE",
"657 644 CURVE",
"673 657 OFFCURVE",
"691 666 OFFCURVE",
"710 671 CURVE",
"713 672 OFFCURVE",
"715 674 OFFCURVE",
"715 677 CURVE SMOOTH",
"715 679 OFFCURVE",
"713 680 OFFCURVE",
"710 680 CURVE",
"679 673 OFFCURVE",
"655 660 OFFCURVE",
"632 643 CURVE",
"481 638 OFFCURVE",
"375 577 OFFCURVE",
"311 484 CURVE",
"308 477 OFFCURVE",
"315 474 OFFCURVE",
"319 477 CURVE",
"384 570 OFFCURVE",
"480 617 OFFCURVE",
"605 620 CURVE",
"554 567 OFFCURVE",
"519 486 OFFCURVE",
"487 371 CURVE SMOOTH",
"450 236 OFFCURVE",
"411 151 OFFCURVE",
"364 100 CURVE SMOOTH",
"317 48 OFFCURVE",
"261 30 OFFCURVE",
"192 30 CURVE SMOOTH",
"115 30 OFFCURVE",
"72 67 OFFCURVE",
"72 136 CURVE SMOOTH",
"72 176 OFFCURVE",
"91 216 OFFCURVE",
"131 236 CURVE",
"132 243 OFFCURVE",
"130 245 OFFCURVE",
"124 244 CURVE",
"79 221 OFFCURVE",
"49 165 OFFCURVE",
"49 114 CURVE SMOOTH",
"49 83 OFFCURVE",
"58 55 OFFCURVE",
"78 34 CURVE SMOOTH",
"97 13 OFFCURVE",
"125 0 OFFCURVE",
"165 0 CURVE SMOOTH",
"248 0 OFFCURVE",
"323 31 OFFCURVE",
"387 99 CURVE SMOOTH",
"451 167 OFFCURVE",
"504 272 OFFCURVE",
"543 419 CURVE SMOOTH",
"567 508 OFFCURVE",
"595 576 OFFCURVE",
"632 619 CURVE",
"721 612 OFFCURVE",
"775 551 OFFCURVE",
"775 466 CURVE SMOOTH",
"775 394 OFFCURVE",
"734 344 OFFCURVE",
"665 328 CURVE",
"654 325 OFFCURVE",
"644 324 OFFCURVE",
"636 324 CURVE SMOOTH",
"619 324 OFFCURVE",
"607 327 OFFCURVE",
"600 329 CURVE SMOOTH",
"596 330 OFFCURVE",
"593 330 OFFCURVE",
"591 329 CURVE",
"584 326 OFFCURVE",
"578 323 OFFCURVE",
"574 322 CURVE",
"566 318 OFFCURVE",
"559 316 OFFCURVE",
"559 308 CURVE",
"576 227 OFFCURVE",
"595 149 OFFCURVE",
"625 93 CURVE SMOOTH",
"655 36 OFFCURVE",
"694 0 OFFCURVE",
"753 0 CURVE SMOOTH",
"796 0 OFFCURVE",
"834 28 OFFCURVE",
"863 72 CURVE",
"864 79 OFFCURVE",
"856 79 OFFCURVE",
"853 75 CURVE SMOOTH"
);
}
);
width = 854;
}
);
note = R;
unicode = 0052;
},
{
glyphname = S;
lastChange = "2017-06-04 11:33:48 +0000";
layers = (
{
layerId = "05073167-317C-430E-AA64-F7AF394C318F";
paths = (
{
closed = 1;
nodes = (
"50 50 OFFCURVE",
"114 0 OFFCURVE",
"231 0 CURVE SMOOTH",
"294 0 OFFCURVE",
"352 19 OFFCURVE",
"393 52 CURVE SMOOTH",
"434 85 OFFCURVE",
"460 132 OFFCURVE",
"460 187 CURVE SMOOTH",
"460 212 OFFCURVE",
"456 235 OFFCURVE",
"449 256 CURVE",
"433 298 OFFCURVE",
"410 335 OFFCURVE",
"384 371 CURVE SMOOTH",
"371 388 OFFCURVE",
"358 406 OFFCURVE",
"347 424 CURVE SMOOTH",
"324 459 OFFCURVE",
"307 493 OFFCURVE",
"307 533 CURVE SMOOTH",
"307 582 OFFCURVE",
"346 619 OFFCURVE",
"403 619 CURVE SMOOTH",
"459 619 OFFCURVE",
"496 588 OFFCURVE",
"496 549 CURVE SMOOTH",
"496 530 OFFCURVE",
"492 516 OFFCURVE",
"483 505 CURVE",
"483 498 OFFCURVE",
"487 494 OFFCURVE",
"492 497 CURVE",
"507 517 OFFCURVE",
"525 546 OFFCURVE",
"525 569 CURVE SMOOTH",
"525 608 OFFCURVE",
"488 644 OFFCURVE",
"428 644 CURVE SMOOTH",
"385 644 OFFCURVE",
"348 628 OFFCURVE",
"321 602 CURVE SMOOTH",
"294 576 OFFCURVE",
"277 539 OFFCURVE",
"277 499 CURVE SMOOTH",
"277 478 OFFCURVE",
"281 458 OFFCURVE",
"288 440 CURVE SMOOTH",
"303 404 OFFCURVE",
"326 371 OFFCURVE",
"351 338 CURVE SMOOTH",
"364 321 OFFCURVE",
"376 304 OFFCURVE",
"387 286 CURVE SMOOTH",
"409 249 OFFCURVE",
"425 209 OFFCURVE",
"425 158 CURVE SMOOTH",
"425 82 OFFCURVE",
"368 23 OFFCURVE",
"247 23 CURVE SMOOTH",
"196 23 OFFCURVE",
"157 38 OFFCURVE",
"130 60 CURVE SMOOTH",
"102 82 OFFCURVE",
"87 112 OFFCURVE",
"87 147 CURVE SMOOTH",
"87 182 OFFCURVE",
"99 206 OFFCURVE",
"123 219 CURVE",
"126 223 OFFCURVE",
"123 232 OFFCURVE",
"118 229 CURVE",
"74 206 OFFCURVE",
"50 166 OFFCURVE",
"50 121 CURVE SMOOTH"
);
}
);
width = 480;
}
);
note = S;
unicode = 0053;
},
{
glyphname = Scaron;
lastChange = "2017-06-04 11:33:48 +0000";
layers = (
{
layerId = "05073167-317C-430E-AA64-F7AF394C318F";
paths = (
{
closed = 1;
nodes = (
"464 698 OFFCURVE",
"506 725 OFFCURVE",
"529 738 CURVE",
"532 743 OFFCURVE",
"531 748 OFFCURVE",
"524 748 CURVE",
"519 745 OFFCURVE",
"514 742 OFFCURVE",
"507 739 CURVE",
"500 735 OFFCURVE",
"493 731 OFFCURVE",
"486 727 CURVE",
"472 718 OFFCURVE",
"457 709 OFFCURVE",
"449 702 CURVE",
"429 719 OFFCURVE",
"408 735 OFFCURVE",
"384 746 CURVE",
"375 747 OFFCURVE",
"368 746 OFFCURVE",
"362 743 CURVE SMOOTH",
"356 740 OFFCURVE",
"355 736 OFFCURVE",
"358 733 CURVE",
"383 722 OFFCURVE",
"414 695 OFFCURVE",
"431 672 CURVE",
"435 669 OFFCURVE",
"439 668 OFFCURVE",
"443 671 CURVE"
);
},
{
closed = 1;
nodes = (
"50 50 OFFCURVE",
"114 0 OFFCURVE",
"231 0 CURVE SMOOTH",
"294 0 OFFCURVE",
"352 19 OFFCURVE",
"393 52 CURVE SMOOTH",
"434 85 OFFCURVE",
"460 132 OFFCURVE",
"460 187 CURVE SMOOTH",
"460 212 OFFCURVE",
"456 235 OFFCURVE",
"449 256 CURVE",
"433 298 OFFCURVE",
"410 335 OFFCURVE",
"384 371 CURVE SMOOTH",
"371 388 OFFCURVE",
"358 406 OFFCURVE",
"347 424 CURVE SMOOTH",
"324 459 OFFCURVE",
"307 493 OFFCURVE",
"307 533 CURVE SMOOTH",
"307 582 OFFCURVE",
"346 619 OFFCURVE",
"403 619 CURVE SMOOTH",
"459 619 OFFCURVE",
"496 588 OFFCURVE",
"496 549 CURVE SMOOTH",
"496 530 OFFCURVE",
"492 516 OFFCURVE",
"483 505 CURVE",
"483 498 OFFCURVE",
"487 494 OFFCURVE",
"492 497 CURVE",
"507 517 OFFCURVE",
"525 546 OFFCURVE",
"525 569 CURVE SMOOTH",
"525 608 OFFCURVE",
"488 644 OFFCURVE",
"428 644 CURVE SMOOTH",
"385 644 OFFCURVE",
"348 628 OFFCURVE",
"321 602 CURVE SMOOTH",
"294 576 OFFCURVE",
"277 539 OFFCURVE",
"277 499 CURVE SMOOTH",
"277 478 OFFCURVE",
"281 458 OFFCURVE",
"288 440 CURVE SMOOTH",
"303 404 OFFCURVE",
"326 371 OFFCURVE",
"351 338 CURVE SMOOTH",
"364 321 OFFCURVE",
"376 304 OFFCURVE",
"387 286 CURVE SMOOTH",
"409 249 OFFCURVE",
"425 209 OFFCURVE",
"425 158 CURVE SMOOTH",
"425 82 OFFCURVE",
"368 23 OFFCURVE",
"247 23 CURVE SMOOTH",
"196 23 OFFCURVE",
"157 38 OFFCURVE",
"130 60 CURVE SMOOTH",
"102 82 OFFCURVE",
"87 112 OFFCURVE",
"87 147 CURVE SMOOTH",
"87 182 OFFCURVE",
"99 206 OFFCURVE",
"123 219 CURVE",
"126 223 OFFCURVE",
"123 232 OFFCURVE",
"118 229 CURVE",
"74 206 OFFCURVE",
"50 166 OFFCURVE",
"50 121 CURVE SMOOTH"
);
}
);
width = 480;
}
);
note = Scaron;
unicode = 0160;
},
{
glyphname = T;
lastChange = "2017-06-04 11:33:48 +0000";
layers = (
{
layerId = "05073167-317C-430E-AA64-F7AF394C318F";
paths = (
{
closed = 1;
nodes = (
"713 616 OFFCURVE",
"598 644 OFFCURVE",
"455 644 CURVE SMOOTH",
"359 644 OFFCURVE",
"288 612 OFFCURVE",
"244 563 CURVE SMOOTH",
"200 514 OFFCURVE",
"182 448 OFFCURVE",
"190 383 CURVE",
"193 378 OFFCURVE",
"197 378 OFFCURVE",
"201 384 CURVE",
"193 444 OFFCURVE",
"211 502 OFFCURVE",
"250 543 CURVE SMOOTH",
"289 584 OFFCURVE",
"347 611 OFFCURVE",
"422 611 CURVE SMOOTH",
"517 611 OFFCURVE",
"615 597 OFFCURVE",
"704 574 CURVE",
"620 551 OFFCURVE",
"553 457 OFFCURVE",
"505 308 CURVE SMOOTH",
"470 201 OFFCURVE",
"433 133 OFFCURVE",
"389 91 CURVE SMOOTH",
"344 49 OFFCURVE",
"291 33 OFFCURVE",
"227 33 CURVE SMOOTH",
"134 33 OFFCURVE",
"86 75 OFFCURVE",
"86 143 CURVE SMOOTH",
"86 174 OFFCURVE",
"94 187 OFFCURVE",
"113 202 CURVE",
"116 206 OFFCURVE",
"114 213 OFFCURVE",
"109 213 CURVE",
"70 186 OFFCURVE",
"50 153 OFFCURVE",
"50 113 CURVE SMOOTH",
"50 85 OFFCURVE",
"60 56 OFFCURVE",
"83 36 CURVE SMOOTH",
"106 15 OFFCURVE",
"140 1 OFFCURVE",
"188 1 CURVE SMOOTH",
"363 1 OFFCURVE",
"487 114 OFFCURVE",
"556 339 CURVE SMOOTH",
"603 492 OFFCURVE",
"660 559 OFFCURVE",
"735 566 CURVE",
"752 562 OFFCURVE",
"768 557 OFFCURVE",
"784 552 CURVE",
"789 550 OFFCURVE",
"797 557 OFFCURVE",
"808 572 CURVE",
"813 578 OFFCURVE",
"813 583 OFFCURVE",
"809 587 CURVE"
);
}
);
width = 577;
}
);
note = T;
unicode = 0054;
},
{
glyphname = U;
lastChange = "2017-06-04 11:33:48 +0000";
layers = (
{
layerId = "05073167-317C-430E-AA64-F7AF394C318F";
paths = (
{
closed = 1;
nodes = (
"370 523 OFFCURVE",
"315 449 OFFCURVE",
"276 370 CURVE SMOOTH",
"237 290 OFFCURVE",
"216 206 OFFCURVE",
"216 125 CURVE SMOOTH",
"216 45 OFFCURVE",
"249 0 OFFCURVE",
"313 0 CURVE SMOOTH",
"430 0 OFFCURVE",
"549 118 OFFCURVE",
"670 346 CURVE",
"627 239 OFFCURVE",
"608 145 OFFCURVE",
"608 78 CURVE SMOOTH",
"608 35 OFFCURVE",
"624 0 OFFCURVE",
"661 0 CURVE SMOOTH",
"677 0 OFFCURVE",
"697 13 OFFCURVE",
"717 31 CURVE SMOOTH",
"737 49 OFFCURVE",
"755 71 OFFCURVE",
"770 94 CURVE",
"771 99 OFFCURVE",
"764 104 OFFCURVE",
"760 100 CURVE",
"736 63 OFFCURVE",
"711 44 OFFCURVE",
"686 44 CURVE SMOOTH",
"661 44 OFFCURVE",
"649 63 OFFCURVE",
"649 101 CURVE SMOOTH",
"649 145 OFFCURVE",
"663 210 OFFCURVE",
"684 280 CURVE SMOOTH",
"705 350 OFFCURVE",
"734 426 OFFCURVE",
"763 491 CURVE SMOOTH",
"791 555 OFFCURVE",
"822 609 OFFCURVE",
"846 637 CURVE",
"846 642 OFFCURVE",
"841 644 OFFCURVE",
"830 644 CURVE SMOOTH",
"811 644 OFFCURVE",
"791 633 OFFCURVE",
"786 622 CURVE SMOOTH",
"695 421 OFFCURVE",
"619 274 OFFCURVE",
"549 178 CURVE SMOOTH",
"479 81 OFFCURVE",
"413 35 OFFCURVE",
"344 35 CURVE SMOOTH",
"293 35 OFFCURVE",
"260 65 OFFCURVE",
"260 153 CURVE SMOOTH",
"260 233 OFFCURVE",
"280 317 OFFCURVE",
"318 395 CURVE SMOOTH",
"356 473 OFFCURVE",
"409 544 OFFCURVE",
"480 600 CURVE SMOOTH",
"486 605 OFFCURVE",
"487 609 OFFCURVE",
"483 612 CURVE",
"442 631 OFFCURVE",
"388 644 OFFCURVE",
"332 644 CURVE SMOOTH",
"237 644 OFFCURVE",
"165 603 OFFCURVE",
"121 541 CURVE SMOOTH",
"77 479 OFFCURVE",
"59 396 OFFCURVE",
"78 312 CURVE",
"81 307 OFFCURVE",
"88 311 OFFCURVE",
"89 316 CURVE",
"74 385 OFFCURVE",
"86 460 OFFCURVE",
"121 517 CURVE SMOOTH",
"156 573 OFFCURVE",
"215 612 OFFCURVE",
"296 612 CURVE SMOOTH",
"351 612 OFFCURVE",
"406 599 OFFCURVE",
"441 586 CURVE"
);
}
);
width = 752;
}
);
note = U;
unicode = 0055;
},
{
glyphname = Uacute;
lastChange = "2017-06-04 11:33:48 +0000";
layers = (
{
layerId = "05073167-317C-430E-AA64-F7AF394C318F";
paths = (
{
closed = 1;
nodes = (
"622 707 OFFCURVE",
"587 685 OFFCURVE",
"560 669 CURVE",
"558 667 OFFCURVE",
"557 665 OFFCURVE",
"557 662 CURVE SMOOTH",
"557 659 OFFCURVE",
"558 658 OFFCURVE",
"561 658 CURVE",
"581 665 OFFCURVE",
"607 675 OFFCURVE",
"631 685 CURVE SMOOTH",
"654 695 OFFCURVE",
"676 706 OFFCURVE",
"689 715 CURVE",
"693 718 OFFCURVE",
"691 721 OFFCURVE",
"688 724 CURVE",
"676 729 OFFCURVE",
"654 738 OFFCURVE",
"647 734 CURVE"
);
},
{
closed = 1;
nodes = (
"336 523 OFFCURVE",
"281 449 OFFCURVE",
"242 370 CURVE SMOOTH",
"203 290 OFFCURVE",
"182 206 OFFCURVE",
"182 125 CURVE SMOOTH",
"182 45 OFFCURVE",
"215 0 OFFCURVE",
"279 0 CURVE SMOOTH",
"396 0 OFFCURVE",
"515 118 OFFCURVE",
"636 346 CURVE",
"593 239 OFFCURVE",
"574 145 OFFCURVE",
"574 78 CURVE SMOOTH",
"574 35 OFFCURVE",
"590 0 OFFCURVE",
"627 0 CURVE SMOOTH",
"643 0 OFFCURVE",
"663 13 OFFCURVE",
"683 31 CURVE SMOOTH",
"703 49 OFFCURVE",
"721 71 OFFCURVE",
"736 94 CURVE",
"737 99 OFFCURVE",
"730 104 OFFCURVE",
"726 100 CURVE",
"702 63 OFFCURVE",
"677 44 OFFCURVE",
"652 44 CURVE SMOOTH",
"627 44 OFFCURVE",
"615 63 OFFCURVE",
"615 101 CURVE SMOOTH",
"615 145 OFFCURVE",
"629 210 OFFCURVE",
"650 280 CURVE SMOOTH",
"671 350 OFFCURVE",
"700 426 OFFCURVE",
"729 491 CURVE SMOOTH",
"757 555 OFFCURVE",
"788 609 OFFCURVE",
"812 637 CURVE",
"812 642 OFFCURVE",
"807 644 OFFCURVE",
"796 644 CURVE SMOOTH",
"777 644 OFFCURVE",
"757 633 OFFCURVE",
"752 622 CURVE SMOOTH",
"661 421 OFFCURVE",
"585 274 OFFCURVE",
"515 178 CURVE SMOOTH",
"445 81 OFFCURVE",
"379 35 OFFCURVE",
"310 35 CURVE SMOOTH",
"259 35 OFFCURVE",
"226 65 OFFCURVE",
"226 153 CURVE SMOOTH",
"226 233 OFFCURVE",
"246 317 OFFCURVE",
"284 395 CURVE SMOOTH",
"322 473 OFFCURVE",
"375 544 OFFCURVE",
"446 600 CURVE SMOOTH",
"452 605 OFFCURVE",
"453 609 OFFCURVE",
"449 612 CURVE",
"408 631 OFFCURVE",
"354 644 OFFCURVE",
"298 644 CURVE SMOOTH",
"203 644 OFFCURVE",
"131 603 OFFCURVE",
"87 541 CURVE SMOOTH",
"43 479 OFFCURVE",
"25 396 OFFCURVE",
"44 312 CURVE",
"47 307 OFFCURVE",
"54 311 OFFCURVE",
"55 316 CURVE",
"40 385 OFFCURVE",
"52 460 OFFCURVE",
"87 517 CURVE SMOOTH",
"122 573 OFFCURVE",
"181 612 OFFCURVE",
"262 612 CURVE SMOOTH",
"317 612 OFFCURVE",
"372 599 OFFCURVE",
"407 586 CURVE"
);
}
);
width = 717;
}
);
note = Uacute;
unicode = 00DA;
},
{
glyphname = Ucircumflex;
lastChange = "2017-06-04 11:33:48 +0000";
layers = (
{
layerId = "05073167-317C-430E-AA64-F7AF394C318F";
paths = (
{
closed = 1;
nodes = (
"582 721 OFFCURVE",
"540 692 OFFCURVE",
"517 679 CURVE",
"514 673 OFFCURVE",
"515 670 OFFCURVE",
"522 670 CURVE",
"531 674 OFFCURVE",
"547 683 OFFCURVE",
"561 692 CURVE",
"568 696 OFFCURVE",
"574 700 OFFCURVE",
"581 704 CURVE SMOOTH",
"588 708 OFFCURVE",
"593 712 OFFCURVE",
"597 715 CURVE",
"618 698 OFFCURVE",
"638 682 OFFCURVE",
"663 671 CURVE",
"671 670 OFFCURVE",
"678 671 OFFCURVE",
"685 674 CURVE",
"691 677 OFFCURVE",
"692 681 OFFCURVE",
"689 684 CURVE",
"662 696 OFFCURVE",
"632 722 OFFCURVE",
"615 745 CURVE",
"610 749 OFFCURVE",
"606 749 OFFCURVE",
"603 746 CURVE"
);
},
{
closed = 1;
nodes = (
"336 523 OFFCURVE",
"281 449 OFFCURVE",
"242 370 CURVE SMOOTH",
"203 290 OFFCURVE",
"182 206 OFFCURVE",
"182 125 CURVE SMOOTH",
"182 45 OFFCURVE",
"215 0 OFFCURVE",
"279 0 CURVE SMOOTH",
"396 0 OFFCURVE",
"515 118 OFFCURVE",
"636 346 CURVE",
"593 239 OFFCURVE",
"574 145 OFFCURVE",
"574 78 CURVE SMOOTH",
"574 35 OFFCURVE",
"590 0 OFFCURVE",
"627 0 CURVE SMOOTH",
"643 0 OFFCURVE",
"663 13 OFFCURVE",
"683 31 CURVE SMOOTH",
"703 49 OFFCURVE",
"721 71 OFFCURVE",
"736 94 CURVE",
"737 99 OFFCURVE",
"730 104 OFFCURVE",
"726 100 CURVE",
"702 63 OFFCURVE",
"677 44 OFFCURVE",
"652 44 CURVE SMOOTH",
"627 44 OFFCURVE",
"615 63 OFFCURVE",
"615 101 CURVE SMOOTH",
"615 145 OFFCURVE",
"629 210 OFFCURVE",
"650 280 CURVE SMOOTH",
"671 350 OFFCURVE",
"700 426 OFFCURVE",
"729 491 CURVE SMOOTH",
"757 555 OFFCURVE",
"788 609 OFFCURVE",
"812 637 CURVE",
"812 642 OFFCURVE",
"807 644 OFFCURVE",
"796 644 CURVE SMOOTH",
"777 644 OFFCURVE",
"757 633 OFFCURVE",
"752 622 CURVE SMOOTH",
"661 421 OFFCURVE",
"585 274 OFFCURVE",
"515 178 CURVE SMOOTH",
"445 81 OFFCURVE",
"379 35 OFFCURVE",
"310 35 CURVE SMOOTH",
"259 35 OFFCURVE",
"226 65 OFFCURVE",
"226 153 CURVE SMOOTH",
"226 233 OFFCURVE",
"246 317 OFFCURVE",
"284 395 CURVE SMOOTH",
"322 473 OFFCURVE",
"375 544 OFFCURVE",
"446 600 CURVE SMOOTH",
"452 605 OFFCURVE",
"453 609 OFFCURVE",
"449 612 CURVE",
"408 631 OFFCURVE",
"354 644 OFFCURVE",
"298 644 CURVE SMOOTH",
"203 644 OFFCURVE",
"131 603 OFFCURVE",
"87 541 CURVE SMOOTH",
"43 479 OFFCURVE",
"25 396 OFFCURVE",
"44 312 CURVE",
"47 307 OFFCURVE",
"54 311 OFFCURVE",
"55 316 CURVE",
"40 385 OFFCURVE",
"52 460 OFFCURVE",
"87 517 CURVE SMOOTH",
"122 573 OFFCURVE",
"181 612 OFFCURVE",
"262 612 CURVE SMOOTH",
"317 612 OFFCURVE",
"372 599 OFFCURVE",
"407 586 CURVE"
);
}
);
width = 718;
}
);
note = Ucircumflex;
unicode = 00DB;
},
{
glyphname = Udieresis;
lastChange = "2017-06-04 11:33:48 +0000";
layers = (
{
layerId = "05073167-317C-430E-AA64-F7AF394C318F";
paths = (
{
closed = 1;
nodes = (
"572 667 OFFCURVE",
"587 689 OFFCURVE",
"587 708 CURVE SMOOTH",
"587 717 OFFCURVE",
"584 721 OFFCURVE",
"578 721 CURVE SMOOTH",
"557 721 OFFCURVE",
"542 697 OFFCURVE",
"542 684 CURVE SMOOTH",
"542 673 OFFCURVE",
"546 667 OFFCURVE",
"553 667 CURVE SMOOTH"
);
},
{
closed = 1;
nodes = (
"646 667 OFFCURVE",
"662 689 OFFCURVE",
"662 708 CURVE SMOOTH",
"662 717 OFFCURVE",
"659 721 OFFCURVE",
"653 721 CURVE SMOOTH",
"633 721 OFFCURVE",
"618 697 OFFCURVE",
"618 684 CURVE SMOOTH",
"618 673 OFFCURVE",
"622 667 OFFCURVE",
"630 667 CURVE SMOOTH"
);
},
{
closed = 1;
nodes = (
"336 523 OFFCURVE",
"281 449 OFFCURVE",
"242 370 CURVE SMOOTH",
"203 290 OFFCURVE",
"182 206 OFFCURVE",
"182 125 CURVE SMOOTH",
"182 45 OFFCURVE",
"215 0 OFFCURVE",
"279 0 CURVE SMOOTH",
"396 0 OFFCURVE",
"515 118 OFFCURVE",
"636 346 CURVE",
"593 239 OFFCURVE",
"574 145 OFFCURVE",
"574 78 CURVE SMOOTH",
"574 35 OFFCURVE",
"590 0 OFFCURVE",
"627 0 CURVE SMOOTH",
"643 0 OFFCURVE",
"663 13 OFFCURVE",
"683 31 CURVE SMOOTH",
"703 49 OFFCURVE",
"721 71 OFFCURVE",
"736 94 CURVE",
"737 99 OFFCURVE",
"730 104 OFFCURVE",
"726 100 CURVE",
"702 63 OFFCURVE",
"677 44 OFFCURVE",
"652 44 CURVE SMOOTH",
"627 44 OFFCURVE",
"615 63 OFFCURVE",
"615 101 CURVE SMOOTH",
"615 145 OFFCURVE",
"629 210 OFFCURVE",
"650 280 CURVE SMOOTH",
"671 350 OFFCURVE",
"700 426 OFFCURVE",
"729 491 CURVE SMOOTH",
"757 555 OFFCURVE",
"788 609 OFFCURVE",
"812 637 CURVE",
"812 642 OFFCURVE",
"807 644 OFFCURVE",
"796 644 CURVE SMOOTH",
"777 644 OFFCURVE",
"757 633 OFFCURVE",
"752 622 CURVE SMOOTH",
"661 421 OFFCURVE",
"585 274 OFFCURVE",
"515 178 CURVE SMOOTH",
"445 81 OFFCURVE",
"379 35 OFFCURVE",
"310 35 CURVE SMOOTH",
"259 35 OFFCURVE",
"226 65 OFFCURVE",
"226 153 CURVE SMOOTH",
"226 233 OFFCURVE",
"246 317 OFFCURVE",
"284 395 CURVE SMOOTH",
"322 473 OFFCURVE",
"375 544 OFFCURVE",
"446 600 CURVE SMOOTH",
"452 605 OFFCURVE",
"453 609 OFFCURVE",
"449 612 CURVE",
"408 631 OFFCURVE",
"354 644 OFFCURVE",
"298 644 CURVE SMOOTH",
"203 644 OFFCURVE",
"131 603 OFFCURVE",
"87 541 CURVE SMOOTH",
"43 479 OFFCURVE",
"25 396 OFFCURVE",
"44 312 CURVE",
"47 307 OFFCURVE",
"54 311 OFFCURVE",
"55 316 CURVE",
"40 385 OFFCURVE",
"52 460 OFFCURVE",
"87 517 CURVE SMOOTH",
"122 573 OFFCURVE",
"181 612 OFFCURVE",
"262 612 CURVE SMOOTH",
"317 612 OFFCURVE",
"372 599 OFFCURVE",
"407 586 CURVE"
);
}
);
width = 718;
}
);
note = Udieresis;
unicode = 00DC;
},
{
glyphname = Ugrave;
lastChange = "2017-06-04 11:33:48 +0000";
layers = (
{
layerId = "05073167-317C-430E-AA64-F7AF394C318F";
paths = (
{
closed = 1;
nodes = (
"612 689 OFFCURVE",
"580 712 OFFCURVE",
"557 731 CURVE",
"554 734 OFFCURVE",
"530 728 OFFCURVE",
"517 717 CURVE",
"516 716 OFFCURVE",
"515 714 OFFCURVE",
"515 713 CURVE SMOOTH",
"515 711 OFFCURVE",
"516 710 OFFCURVE",
"517 709 CURVE",
"532 701 OFFCURVE",
"554 691 OFFCURVE",
"577 682 CURVE SMOOTH",
"600 673 OFFCURVE",
"624 664 OFFCURVE",
"640 660 CURVE",
"647 660 OFFCURVE",
"651 666 OFFCURVE",
"648 669 CURVE"
);
},
{
closed = 1;
nodes = (
"336 523 OFFCURVE",
"281 449 OFFCURVE",
"242 370 CURVE SMOOTH",
"203 290 OFFCURVE",
"182 206 OFFCURVE",
"182 125 CURVE SMOOTH",
"182 45 OFFCURVE",
"215 0 OFFCURVE",
"279 0 CURVE SMOOTH",
"396 0 OFFCURVE",
"515 118 OFFCURVE",
"636 346 CURVE",
"593 239 OFFCURVE",
"574 145 OFFCURVE",
"574 78 CURVE SMOOTH",
"574 35 OFFCURVE",
"590 0 OFFCURVE",
"627 0 CURVE SMOOTH",
"643 0 OFFCURVE",
"663 13 OFFCURVE",
"683 31 CURVE SMOOTH",
"703 49 OFFCURVE",
"721 71 OFFCURVE",
"736 94 CURVE",
"737 99 OFFCURVE",
"730 104 OFFCURVE",
"726 100 CURVE",
"702 63 OFFCURVE",
"677 44 OFFCURVE",
"652 44 CURVE SMOOTH",
"627 44 OFFCURVE",
"615 63 OFFCURVE",
"615 101 CURVE SMOOTH",
"615 145 OFFCURVE",
"629 210 OFFCURVE",
"650 280 CURVE SMOOTH",
"671 350 OFFCURVE",
"700 426 OFFCURVE",
"729 491 CURVE SMOOTH",
"757 555 OFFCURVE",
"788 609 OFFCURVE",
"812 637 CURVE",
"812 642 OFFCURVE",
"807 644 OFFCURVE",
"796 644 CURVE SMOOTH",
"777 644 OFFCURVE",
"757 633 OFFCURVE",
"752 622 CURVE SMOOTH",
"661 421 OFFCURVE",
"585 274 OFFCURVE",
"515 178 CURVE SMOOTH",
"445 81 OFFCURVE",
"379 35 OFFCURVE",
"310 35 CURVE SMOOTH",
"259 35 OFFCURVE",
"226 65 OFFCURVE",
"226 153 CURVE SMOOTH",
"226 233 OFFCURVE",
"246 317 OFFCURVE",
"284 395 CURVE SMOOTH",
"322 473 OFFCURVE",
"375 544 OFFCURVE",
"446 600 CURVE SMOOTH",
"452 605 OFFCURVE",
"453 609 OFFCURVE",
"449 612 CURVE",
"408 631 OFFCURVE",
"354 644 OFFCURVE",
"298 644 CURVE SMOOTH",
"203 644 OFFCURVE",
"131 603 OFFCURVE",
"87 541 CURVE SMOOTH",
"43 479 OFFCURVE",
"25 396 OFFCURVE",
"44 312 CURVE",
"47 307 OFFCURVE",
"54 311 OFFCURVE",
"55 316 CURVE",
"40 385 OFFCURVE",
"52 460 OFFCURVE",
"87 517 CURVE SMOOTH",
"122 573 OFFCURVE",
"181 612 OFFCURVE",
"262 612 CURVE SMOOTH",
"317 612 OFFCURVE",
"372 599 OFFCURVE",
"407 586 CURVE"
);
}
);
width = 717;
}
);
note = Ugrave;
unicode = 00D9;
},
{
glyphname = V;
lastChange = "2017-06-04 11:33:48 +0000";
layers = (
{
layerId = "05073167-317C-430E-AA64-F7AF394C318F";
paths = (
{
closed = 1;
nodes = (
"751 559 OFFCURVE",
"741 589 OFFCURVE",
"723 610 CURVE SMOOTH",
"705 631 OFFCURVE",
"680 644 OFFCURVE",
"652 644 CURVE SMOOTH",
"641 644 OFFCURVE",
"626 635 OFFCURVE",
"612 621 CURVE SMOOTH",
"598 607 OFFCURVE",
"584 588 OFFCURVE",
"577 569 CURVE",
"577 562 OFFCURVE",
"582 559 OFFCURVE",
"586 562 CURVE",
"599 589 OFFCURVE",
"615 603 OFFCURVE",
"634 602 CURVE SMOOTH",
"681 599 OFFCURVE",
"715 559 OFFCURVE",
"715 492 CURVE SMOOTH",
"715 415 OFFCURVE",
"687 349 OFFCURVE",
"636 283 CURVE SMOOTH",
"585 217 OFFCURVE",
"509 150 OFFCURVE",
"416 73 CURVE",
"441 166 OFFCURVE",
"456 261 OFFCURVE",
"456 346 CURVE SMOOTH",
"456 430 OFFCURVE",
"443 505 OFFCURVE",
"414 558 CURVE SMOOTH",
"385 611 OFFCURVE",
"341 644 OFFCURVE",
"280 644 CURVE SMOOTH",
"180 644 OFFCURVE",
"109 556 OFFCURVE",
"70 389 CURVE",
"70 384 OFFCURVE",
"77 382 OFFCURVE",
"80 387 CURVE",
"119 534 OFFCURVE",
"172 612 OFFCURVE",
"263 612 CURVE SMOOTH",
"326 612 OFFCURVE",
"368 572 OFFCURVE",
"394 511 CURVE SMOOTH",
"420 450 OFFCURVE",
"427 367 OFFCURVE",
"423 283 CURVE SMOOTH",
"418 198 OFFCURVE",
"398 110 OFFCURVE",
"369 39 CURVE SMOOTH",
"365 30 OFFCURVE",
"361 20 OFFCURVE",
"359 12 CURVE SMOOTH",
"357 4 OFFCURVE",
"358 -1 OFFCURVE",
"367 -1 CURVE",
"415 46 OFFCURVE",
"462 91 OFFCURVE",
"508 133 CURVE SMOOTH",
"554 174 OFFCURVE",
"595 216 OFFCURVE",
"631 257 CURVE SMOOTH",
"703 339 OFFCURVE",
"751 423 OFFCURVE",
"751 526 CURVE SMOOTH"
);
}
);
width = 661;
}
);
note = V;
unicode = 0056;
},
{
glyphname = W;
lastChange = "2017-06-04 11:33:48 +0000";
layers = (
{
layerId = "05073167-317C-430E-AA64-F7AF394C318F";
paths = (
{
closed = 1;
nodes = (
"577 31 OFFCURVE",
"577 27 OFFCURVE",
"576 23 CURVE",
"575 18 OFFCURVE",
"574 14 OFFCURVE",
"574 11 CURVE SMOOTH",
"574 4 OFFCURVE",
"575 0 OFFCURVE",
"582 0 CURVE SMOOTH",
"593 0 OFFCURVE",
"600 11 OFFCURVE",
"611 27 CURVE",
"648 90 OFFCURVE",
"696 144 OFFCURVE",
"744 197 CURVE SMOOTH",
"791 249 OFFCURVE",
"838 302 OFFCURVE",
"874 360 CURVE SMOOTH",
"909 418 OFFCURVE",
"932 482 OFFCURVE",
"932 562 CURVE SMOOTH",
"932 607 OFFCURVE",
"911 644 OFFCURVE",
"879 644 CURVE SMOOTH",
"856 644 OFFCURVE",
"830 610 OFFCURVE",
"815 573 CURVE",
"815 566 OFFCURVE",
"818 563 OFFCURVE",
"825 566 CURVE",
"834 586 OFFCURVE",
"846 606 OFFCURVE",
"862 605 CURVE",
"885 602 OFFCURVE",
"897 572 OFFCURVE",
"897 529 CURVE SMOOTH",
"897 479 OFFCURVE",
"887 434 OFFCURVE",
"867 393 CURVE SMOOTH",
"827 312 OFFCURVE",
"765 240 OFFCURVE",
"700 170 CURVE SMOOTH",
"667 135 OFFCURVE",
"638 98 OFFCURVE",
"613 60 CURVE",
"616 83 OFFCURVE",
"616 109 OFFCURVE",
"615 137 CURVE SMOOTH",
"612 193 OFFCURVE",
"607 253 OFFCURVE",
"601 313 CURVE SMOOTH",
"598 343 OFFCURVE",
"596 371 OFFCURVE",
"597 398 CURVE",
"597 451 OFFCURVE",
"604 499 OFFCURVE",
"627 528 CURVE SMOOTH",
"642 547 OFFCURVE",
"652 556 OFFCURVE",
"671 568 CURVE",
"675 573 OFFCURVE",
"675 580 OFFCURVE",
"674 587 CURVE SMOOTH",
"673 594 OFFCURVE",
"669 598 OFFCURVE",
"665 597 CURVE",
"609 546 OFFCURVE",
"550 469 OFFCURVE",
"495 382 CURVE SMOOTH",
"439 295 OFFCURVE",
"389 201 OFFCURVE",
"353 118 CURVE",
"382 205 OFFCURVE",
"402 293 OFFCURVE",
"409 372 CURVE SMOOTH",
"416 451 OFFCURVE",
"409 520 OFFCURVE",
"388 570 CURVE SMOOTH",
"367 620 OFFCURVE",
"330 649 OFFCURVE",
"275 649 CURVE SMOOTH",
"211 649 OFFCURVE",
"160 621 OFFCURVE",
"125 577 CURVE SMOOTH",
"89 533 OFFCURVE",
"69 473 OFFCURVE",
"72 409 CURVE",
"72 402 OFFCURVE",
"80 404 OFFCURVE",
"83 412 CURVE",
"83 469 OFFCURVE",
"98 520 OFFCURVE",
"126 556 CURVE SMOOTH",
"153 592 OFFCURVE",
"193 613 OFFCURVE",
"242 613 CURVE SMOOTH",
"314 613 OFFCURVE",
"365 558 OFFCURVE",
"381 458 CURVE SMOOTH",
"396 358 OFFCURVE",
"376 214 OFFCURVE",
"308 35 CURVE SMOOTH",
"303 22 OFFCURVE",
"302 13 OFFCURVE",
"303 8 CURVE SMOOTH",
"304 3 OFFCURVE",
"308 0 OFFCURVE",
"313 0 CURVE SMOOTH",
"319 0 OFFCURVE",
"324 6 OFFCURVE",
"327 17 CURVE SMOOTH",
"330 28 OFFCURVE",
"336 45 OFFCURVE",
"346 68 CURVE SMOOTH",
"383 153 OFFCURVE",
"416 221 OFFCURVE",
"452 285 CURVE SMOOTH",
"488 348 OFFCURVE",
"527 406 OFFCURVE",
"576 477 CURVE",
"565 458 OFFCURVE",
"560 431 OFFCURVE",
"560 398 CURVE SMOOTH",
"560 330 OFFCURVE",
"568 246 OFFCURVE",
"576 159 CURVE SMOOTH",
"579 115 OFFCURVE",
"580 74 OFFCURVE",
"577 35 CURVE"
);
}
);
width = 822;
}
);
note = W;
unicode = 0057;
},
{
glyphname = X;
lastChange = "2017-06-04 11:33:48 +0000";
layers = (
{
layerId = "05073167-317C-430E-AA64-F7AF394C318F";
paths = (
{
closed = 1;
nodes = (
"754 645 OFFCURVE",
"693 615 OFFCURVE",
"637 566 CURVE SMOOTH",
"581 517 OFFCURVE",
"531 445 OFFCURVE",
"494 364 CURVE",
"487 397 OFFCURVE",
"482 431 OFFCURVE",
"479 465 CURVE SMOOTH",
"475 498 OFFCURVE",
"471 528 OFFCURVE",
"466 555 CURVE SMOOTH",
"457 608 OFFCURVE",
"442 645 OFFCURVE",
"413 645 CURVE SMOOTH",
"398 645 OFFCURVE",
"376 630 OFFCURVE",
"356 607 CURVE SMOOTH",
"335 583 OFFCURVE",
"314 552 OFFCURVE",
"299 520 CURVE",
"296 512 OFFCURVE",
"304 507 OFFCURVE",
"311 514 CURVE",
"336 562 OFFCURVE",
"362 597 OFFCURVE",
"389 597 CURVE SMOOTH",
"400 597 OFFCURVE",
"409 591 OFFCURVE",
"416 578 CURVE",
"428 553 OFFCURVE",
"437 505 OFFCURVE",
"447 437 CURVE SMOOTH",
"452 403 OFFCURVE",
"458 365 OFFCURVE",
"467 323 CURVE",
"424 240 OFFCURVE",
"380 170 OFFCURVE",
"330 121 CURVE SMOOTH",
"280 72 OFFCURVE",
"227 43 OFFCURVE",
"168 43 CURVE SMOOTH",
"121 43 OFFCURVE",
"97 61 OFFCURVE",
"93 92 CURVE SMOOTH",
"89 120 OFFCURVE",
"96 147 OFFCURVE",
"117 178 CURVE",
"120 186 OFFCURVE",
"110 190 OFFCURVE",
"106 186 CURVE",
"90 162 OFFCURVE",
"76 136 OFFCURVE",
"66 113 CURVE SMOOTH",
"56 89 OFFCURVE",
"50 69 OFFCURVE",
"50 58 CURVE SMOOTH",
"50 27 OFFCURVE",
"85 1 OFFCURVE",
"141 1 CURVE SMOOTH",
"249 1 OFFCURVE",
"367 102 OFFCURVE",
"471 302 CURVE",
"471 301 LINE",
"488 222 OFFCURVE",
"515 147 OFFCURVE",
"552 92 CURVE SMOOTH",
"589 36 OFFCURVE",
"636 1 OFFCURVE",
"695 1 CURVE SMOOTH",
"742 1 OFFCURVE",
"775 27 OFFCURVE",
"810 107 CURVE",
"810 116 OFFCURVE",
"804 120 OFFCURVE",
"800 115 CURVE",
"779 63 OFFCURVE",
"750 43 OFFCURVE",
"715 43 CURVE SMOOTH",
"615 43 OFFCURVE",
"539 156 OFFCURVE",
"499 340 CURVE",
"534 413 OFFCURVE",
"577 478 OFFCURVE",
"625 524 CURVE SMOOTH",
"672 570 OFFCURVE",
"721 597 OFFCURVE",
"768 597 CURVE SMOOTH",
"805 597 OFFCURVE",
"818 579 OFFCURVE",
"818 544 CURVE SMOOTH",
"818 529 OFFCURVE",
"815 514 OFFCURVE",
"808 498 CURVE",
"807 491 OFFCURVE",
"814 488 OFFCURVE",
"819 491 CURVE",
"834 516 OFFCURVE",
"846 559 OFFCURVE",
"846 590 CURVE SMOOTH",
"846 627 OFFCURVE",
"833 645 OFFCURVE",
"814 645 CURVE SMOOTH"
);
}
);
width = 813;
}
);
note = X;
unicode = 0058;
},
{
glyphname = Y;
lastChange = "2017-06-04 11:33:48 +0000";
layers = (
{
layerId = "05073167-317C-430E-AA64-F7AF394C318F";
paths = (
{
closed = 1;
nodes = (
"402 644 OFFCURVE",
"376 630 OFFCURVE",
"353 613 CURVE SMOOTH",
"329 596 OFFCURVE",
"311 574 OFFCURVE",
"302 559 CURVE",
"301 552 OFFCURVE",
"307 546 OFFCURVE",
"312 551 CURVE",
"320 566 OFFCURVE",
"335 581 OFFCURVE",
"351 593 CURVE SMOOTH",
"367 605 OFFCURVE",
"385 614 OFFCURVE",
"401 614 CURVE SMOOTH",
"418 614 OFFCURVE",
"428 606 OFFCURVE",
"429 581 CURVE SMOOTH",
"430 556 OFFCURVE",
"421 515 OFFCURVE",
"400 448 CURVE SMOOTH",
"379 380 OFFCURVE",
"354 305 OFFCURVE",
"343 232 CURVE SMOOTH",
"334 171 OFFCURVE",
"358 134 OFFCURVE",
"418 134 CURVE SMOOTH",
"458 134 OFFCURVE",
"507 157 OFFCURVE",
"555 197 CURVE SMOOTH",
"603 236 OFFCURVE",
"651 290 OFFCURVE",
"688 351 CURVE",
"605 183 OFFCURVE",
"532 71 OFFCURVE",
"457 2 CURVE SMOOTH",
"382 -67 OFFCURVE",
"306 -94 OFFCURVE",
"221 -94 CURVE SMOOTH",
"105 -94 OFFCURVE",
"46 -30 OFFCURVE",
"46 71 CURVE SMOOTH",
"46 115 OFFCURVE",
"58 154 OFFCURVE",
"86 185 CURVE SMOOTH",
"114 216 OFFCURVE",
"157 237 OFFCURVE",
"218 245 CURVE",
"225 252 OFFCURVE",
"226 258 OFFCURVE",
"219 259 CURVE",
"148 251 OFFCURVE",
"96 223 OFFCURVE",
"61 185 CURVE SMOOTH",
"25 147 OFFCURVE",
"7 97 OFFCURVE",
"7 46 CURVE SMOOTH",
"7 -1 OFFCURVE",
"23 -44 OFFCURVE",
"53 -76 CURVE SMOOTH",
"83 -108 OFFCURVE",
"127 -128 OFFCURVE",
"183 -128 CURVE SMOOTH",
"302 -128 OFFCURVE",
"405 -85 OFFCURVE",
"513 32 CURVE SMOOTH",
"621 148 OFFCURVE",
"734 338 OFFCURVE",
"871 630 CURVE",
"873 639 OFFCURVE",
"870 644 OFFCURVE",
"863 644 CURVE SMOOTH",
"853 644 OFFCURVE",
"842 639 OFFCURVE",
"829 628 CURVE",
"754 477 OFFCURVE",
"685 363 OFFCURVE",
"622 286 CURVE SMOOTH",
"559 209 OFFCURVE",
"499 171 OFFCURVE",
"441 171 CURVE SMOOTH",
"389 171 OFFCURVE",
"376 201 OFFCURVE",
"384 258 CURVE SMOOTH",
"395 325 OFFCURVE",
"417 387 OFFCURVE",
"444 468 CURVE SMOOTH",
"465 533 OFFCURVE",
"473 577 OFFCURVE",
"469 605 CURVE SMOOTH",
"465 633 OFFCURVE",
"451 644 OFFCURVE",
"427 644 CURVE SMOOTH"
);
}
);
width = 662;
}
);
note = Y;
unicode = 0059;
},
{
glyphname = Yacute;
lastChange = "2017-06-04 11:33:48 +0000";
layers = (
{
layerId = "05073167-317C-430E-AA64-F7AF394C318F";
paths = (
{
closed = 1;
nodes = (
"663 707 OFFCURVE",
"628 685 OFFCURVE",
"601 669 CURVE",
"599 667 OFFCURVE",
"598 665 OFFCURVE",
"598 662 CURVE SMOOTH",
"598 659 OFFCURVE",
"599 658 OFFCURVE",
"602 658 CURVE",
"622 665 OFFCURVE",
"648 675 OFFCURVE",
"672 685 CURVE SMOOTH",
"695 695 OFFCURVE",
"717 706 OFFCURVE",
"730 715 CURVE",
"734 718 OFFCURVE",
"732 721 OFFCURVE",
"729 724 CURVE",
"717 729 OFFCURVE",
"695 738 OFFCURVE",
"688 734 CURVE"
);
},
{
closed = 1;
nodes = (
"402 644 OFFCURVE",
"376 630 OFFCURVE",
"353 613 CURVE SMOOTH",
"329 596 OFFCURVE",
"311 574 OFFCURVE",
"302 559 CURVE",
"301 552 OFFCURVE",
"307 546 OFFCURVE",
"312 551 CURVE",
"320 566 OFFCURVE",
"335 581 OFFCURVE",
"351 593 CURVE SMOOTH",
"367 605 OFFCURVE",
"385 614 OFFCURVE",
"401 614 CURVE SMOOTH",
"418 614 OFFCURVE",
"428 606 OFFCURVE",
"429 581 CURVE SMOOTH",
"430 556 OFFCURVE",
"421 515 OFFCURVE",
"400 448 CURVE SMOOTH",
"379 380 OFFCURVE",
"354 305 OFFCURVE",
"343 232 CURVE SMOOTH",
"334 171 OFFCURVE",
"358 134 OFFCURVE",
"418 134 CURVE SMOOTH",
"458 134 OFFCURVE",
"507 157 OFFCURVE",
"555 197 CURVE SMOOTH",
"603 236 OFFCURVE",
"651 290 OFFCURVE",
"688 351 CURVE",
"605 183 OFFCURVE",
"532 71 OFFCURVE",
"457 2 CURVE SMOOTH",
"382 -67 OFFCURVE",
"306 -94 OFFCURVE",
"221 -94 CURVE SMOOTH",
"105 -94 OFFCURVE",
"46 -30 OFFCURVE",
"46 71 CURVE SMOOTH",
"46 115 OFFCURVE",
"58 154 OFFCURVE",
"86 185 CURVE SMOOTH",
"114 216 OFFCURVE",
"157 237 OFFCURVE",
"218 245 CURVE",
"225 252 OFFCURVE",
"226 258 OFFCURVE",
"219 259 CURVE",
"148 251 OFFCURVE",
"96 223 OFFCURVE",
"61 185 CURVE SMOOTH",
"25 147 OFFCURVE",
"7 97 OFFCURVE",
"7 46 CURVE SMOOTH",
"7 -1 OFFCURVE",
"23 -44 OFFCURVE",
"53 -76 CURVE SMOOTH",
"83 -108 OFFCURVE",
"127 -128 OFFCURVE",
"183 -128 CURVE SMOOTH",
"302 -128 OFFCURVE",
"405 -85 OFFCURVE",
"513 32 CURVE SMOOTH",
"621 148 OFFCURVE",
"734 338 OFFCURVE",
"871 630 CURVE",
"873 639 OFFCURVE",
"870 644 OFFCURVE",
"863 644 CURVE SMOOTH",
"853 644 OFFCURVE",
"842 639 OFFCURVE",
"829 628 CURVE",
"754 477 OFFCURVE",
"685 363 OFFCURVE",
"622 286 CURVE SMOOTH",
"559 209 OFFCURVE",
"499 171 OFFCURVE",
"441 171 CURVE SMOOTH",
"389 171 OFFCURVE",
"376 201 OFFCURVE",
"384 258 CURVE SMOOTH",
"395 325 OFFCURVE",
"417 387 OFFCURVE",
"444 468 CURVE SMOOTH",
"465 533 OFFCURVE",
"473 577 OFFCURVE",
"469 605 CURVE SMOOTH",
"465 633 OFFCURVE",
"451 644 OFFCURVE",
"427 644 CURVE SMOOTH"
);
}
);
width = 662;
}
);
note = Yacute;
unicode = 00DD;
},
{
glyphname = Ydieresis;
lastChange = "2017-06-04 11:33:48 +0000";
layers = (
{
layerId = "05073167-317C-430E-AA64-F7AF394C318F";
paths = (
{
closed = 1;
nodes = (
"610 667 OFFCURVE",
"625 689 OFFCURVE",
"625 708 CURVE SMOOTH",
"625 717 OFFCURVE",
"622 721 OFFCURVE",
"616 721 CURVE SMOOTH",
"595 721 OFFCURVE",
"580 697 OFFCURVE",
"580 684 CURVE SMOOTH",
"580 673 OFFCURVE",
"584 667 OFFCURVE",
"591 667 CURVE SMOOTH"
);
},
{
closed = 1;
nodes = (
"684 667 OFFCURVE",
"700 689 OFFCURVE",
"700 708 CURVE SMOOTH",
"700 717 OFFCURVE",
"697 721 OFFCURVE",
"691 721 CURVE SMOOTH",
"671 721 OFFCURVE",
"656 697 OFFCURVE",
"656 684 CURVE SMOOTH",
"656 673 OFFCURVE",
"660 667 OFFCURVE",
"668 667 CURVE SMOOTH"
);
},
{
closed = 1;
nodes = (
"402 644 OFFCURVE",
"376 630 OFFCURVE",
"353 613 CURVE SMOOTH",
"329 596 OFFCURVE",
"311 574 OFFCURVE",
"302 559 CURVE",
"301 552 OFFCURVE",
"307 546 OFFCURVE",
"312 551 CURVE",
"320 566 OFFCURVE",
"335 581 OFFCURVE",
"351 593 CURVE SMOOTH",
"367 605 OFFCURVE",
"385 614 OFFCURVE",
"401 614 CURVE SMOOTH",
"418 614 OFFCURVE",
"428 606 OFFCURVE",
"429 581 CURVE SMOOTH",
"430 556 OFFCURVE",
"421 515 OFFCURVE",
"400 448 CURVE SMOOTH",
"379 380 OFFCURVE",
"354 305 OFFCURVE",
"343 232 CURVE SMOOTH",
"334 171 OFFCURVE",
"358 134 OFFCURVE",
"418 134 CURVE SMOOTH",
"458 134 OFFCURVE",
"507 157 OFFCURVE",
"555 197 CURVE SMOOTH",
"603 236 OFFCURVE",
"651 290 OFFCURVE",
"688 351 CURVE",
"605 183 OFFCURVE",
"532 71 OFFCURVE",
"457 2 CURVE SMOOTH",
"382 -67 OFFCURVE",
"306 -94 OFFCURVE",
"221 -94 CURVE SMOOTH",
"105 -94 OFFCURVE",
"46 -30 OFFCURVE",
"46 71 CURVE SMOOTH",
"46 115 OFFCURVE",
"58 154 OFFCURVE",
"86 185 CURVE SMOOTH",
"114 216 OFFCURVE",
"157 237 OFFCURVE",
"218 245 CURVE",
"225 252 OFFCURVE",
"226 258 OFFCURVE",
"219 259 CURVE",
"148 251 OFFCURVE",
"96 223 OFFCURVE",
"61 185 CURVE SMOOTH",
"25 147 OFFCURVE",
"7 97 OFFCURVE",
"7 46 CURVE SMOOTH",
"7 -1 OFFCURVE",
"23 -44 OFFCURVE",
"53 -76 CURVE SMOOTH",
"83 -108 OFFCURVE",
"127 -128 OFFCURVE",
"183 -128 CURVE SMOOTH",
"302 -128 OFFCURVE",
"405 -85 OFFCURVE",
"513 32 CURVE SMOOTH",
"621 148 OFFCURVE",
"734 338 OFFCURVE",
"871 630 CURVE",
"873 639 OFFCURVE",
"870 644 OFFCURVE",
"863 644 CURVE SMOOTH",
"853 644 OFFCURVE",
"842 639 OFFCURVE",
"829 628 CURVE",
"754 477 OFFCURVE",
"685 363 OFFCURVE",
"622 286 CURVE SMOOTH",
"559 209 OFFCURVE",
"499 171 OFFCURVE",
"441 171 CURVE SMOOTH",
"389 171 OFFCURVE",
"376 201 OFFCURVE",
"384 258 CURVE SMOOTH",
"395 325 OFFCURVE",
"417 387 OFFCURVE",
"444 468 CURVE SMOOTH",
"465 533 OFFCURVE",
"473 577 OFFCURVE",
"469 605 CURVE SMOOTH",
"465 633 OFFCURVE",
"451 644 OFFCURVE",
"427 644 CURVE SMOOTH"
);
}
);
width = 662;
}
);
note = Ydieresis;
unicode = 0178;
},
{
glyphname = Z;
lastChange = "2017-06-04 11:33:48 +0000";
layers = (
{
layerId = "05073167-317C-430E-AA64-F7AF394C318F";
paths = (
{
closed = 1;
nodes = (
"378 644 OFFCURVE",
"338 627 OFFCURVE",
"310 596 CURVE SMOOTH",
"282 565 OFFCURVE",
"266 522 OFFCURVE",
"257 471 CURVE",
"257 464 OFFCURVE",
"265 462 OFFCURVE",
"269 467 CURVE",
"282 550 OFFCURVE",
"323 603 OFFCURVE",
"414 603 CURVE SMOOTH",
"494 603 OFFCURVE",
"569 588 OFFCURVE",
"638 569 CURVE",
"586 520 OFFCURVE",
"537 473 OFFCURVE",
"490 429 CURVE SMOOTH",
"443 385 OFFCURVE",
"397 341 OFFCURVE",
"351 298 CURVE SMOOTH",
"259 210 OFFCURVE",
"164 121 OFFCURVE",
"51 14 CURVE",
"47 7 OFFCURVE",
"62 -3 OFFCURVE",
"70 0 CURVE",
"89 19 OFFCURVE",
"105 31 OFFCURVE",
"120 36 CURVE",
"148 44 OFFCURVE",
"190 29 OFFCURVE",
"220 19 CURVE SMOOTH",
"235 14 OFFCURVE",
"250 9 OFFCURVE",
"267 5 CURVE SMOOTH",
"300 -3 OFFCURVE",
"337 -8 OFFCURVE",
"385 -8 CURVE SMOOTH",
"445 -8 OFFCURVE",
"492 5 OFFCURVE",
"529 33 CURVE SMOOTH",
"565 61 OFFCURVE",
"593 103 OFFCURVE",
"620 159 CURVE",
"623 166 OFFCURVE",
"613 170 OFFCURVE",
"608 167 CURVE",
"567 72 OFFCURVE",
"512 35 OFFCURVE",
"419 35 CURVE SMOOTH",
"382 35 OFFCURVE",
"349 38 OFFCURVE",
"322 43 CURVE SMOOTH",
"267 53 OFFCURVE",
"227 64 OFFCURVE",
"194 73 CURVE",
"177 77 OFFCURVE",
"161 78 OFFCURVE",
"145 77 CURVE",
"190 120 OFFCURVE",
"238 164 OFFCURVE",
"287 211 CURVE SMOOTH",
"336 258 OFFCURVE",
"385 304 OFFCURVE",
"434 351 CURVE SMOOTH",
"533 443 OFFCURVE",
"630 534 OFFCURVE",
"714 611 CURVE",
"715 616 OFFCURVE",
"713 619 OFFCURVE",
"707 619 CURVE SMOOTH",
"696 619 OFFCURVE",
"688 617 OFFCURVE",
"683 614 CURVE",
"664 598 OFFCURVE",
"653 597 OFFCURVE",
"620 608 CURVE SMOOTH",
"552 629 OFFCURVE",
"502 644 OFFCURVE",
"435 644 CURVE SMOOTH"
);
}
);
width = 625;
}
);
note = Z;
unicode = 005A;
},
{
glyphname = Zcaron;
lastChange = "2017-06-04 11:33:48 +0000";
layers = (
{
layerId = "05073167-317C-430E-AA64-F7AF394C318F";
paths = (
{
closed = 1;
nodes = (
"555 698 OFFCURVE",
"597 725 OFFCURVE",
"620 738 CURVE",
"623 743 OFFCURVE",
"622 748 OFFCURVE",
"615 748 CURVE",
"610 745 OFFCURVE",
"605 742 OFFCURVE",
"598 739 CURVE",
"591 735 OFFCURVE",
"584 731 OFFCURVE",
"577 727 CURVE",
"563 718 OFFCURVE",
"548 709 OFFCURVE",
"540 702 CURVE",
"520 719 OFFCURVE",
"499 735 OFFCURVE",
"475 746 CURVE",
"466 747 OFFCURVE",
"459 746 OFFCURVE",
"453 743 CURVE SMOOTH",
"447 740 OFFCURVE",
"446 736 OFFCURVE",
"449 733 CURVE",
"474 722 OFFCURVE",
"505 695 OFFCURVE",
"522 672 CURVE",
"526 669 OFFCURVE",
"530 668 OFFCURVE",
"534 671 CURVE"
);
},
{
closed = 1;
nodes = (
"378 644 OFFCURVE",
"338 627 OFFCURVE",
"310 596 CURVE SMOOTH",
"282 565 OFFCURVE",
"266 522 OFFCURVE",
"257 471 CURVE",
"257 464 OFFCURVE",
"265 462 OFFCURVE",
"269 467 CURVE",
"282 550 OFFCURVE",
"323 603 OFFCURVE",
"414 603 CURVE SMOOTH",
"494 603 OFFCURVE",
"569 588 OFFCURVE",
"638 569 CURVE",
"586 520 OFFCURVE",
"537 473 OFFCURVE",
"490 429 CURVE SMOOTH",
"443 385 OFFCURVE",
"397 341 OFFCURVE",
"351 298 CURVE SMOOTH",
"259 210 OFFCURVE",
"164 121 OFFCURVE",
"51 14 CURVE",
"47 7 OFFCURVE",
"62 -3 OFFCURVE",
"70 0 CURVE",
"89 19 OFFCURVE",
"105 31 OFFCURVE",
"120 36 CURVE",
"148 44 OFFCURVE",
"190 29 OFFCURVE",
"220 19 CURVE SMOOTH",
"235 14 OFFCURVE",
"250 9 OFFCURVE",
"267 5 CURVE SMOOTH",
"300 -3 OFFCURVE",
"337 -8 OFFCURVE",
"385 -8 CURVE SMOOTH",
"445 -8 OFFCURVE",
"492 5 OFFCURVE",
"529 33 CURVE SMOOTH",
"565 61 OFFCURVE",
"593 103 OFFCURVE",
"620 159 CURVE",
"623 166 OFFCURVE",
"613 170 OFFCURVE",
"608 167 CURVE",
"567 72 OFFCURVE",
"512 35 OFFCURVE",
"419 35 CURVE SMOOTH",
"382 35 OFFCURVE",
"349 38 OFFCURVE",
"322 43 CURVE SMOOTH",
"267 53 OFFCURVE",
"227 64 OFFCURVE",
"194 73 CURVE",
"177 77 OFFCURVE",
"161 78 OFFCURVE",
"145 77 CURVE",
"190 120 OFFCURVE",
"238 164 OFFCURVE",
"287 211 CURVE SMOOTH",
"336 258 OFFCURVE",
"385 304 OFFCURVE",
"434 351 CURVE SMOOTH",
"533 443 OFFCURVE",
"630 534 OFFCURVE",
"714 611 CURVE",
"715 616 OFFCURVE",
"713 619 OFFCURVE",
"707 619 CURVE SMOOTH",
"696 619 OFFCURVE",
"688 617 OFFCURVE",
"683 614 CURVE",
"664 598 OFFCURVE",
"653 597 OFFCURVE",
"620 608 CURVE SMOOTH",
"552 629 OFFCURVE",
"502 644 OFFCURVE",
"435 644 CURVE SMOOTH"
);
}
);
width = 625;
}
);
note = Zcaron;
unicode = 017D;
},
{
glyphname = a;
lastChange = "2017-06-04 11:33:48 +0000";
layers = (
{
layerId = "05073167-317C-430E-AA64-F7AF394C318F";
paths = (
{
closed = 1;
nodes = (
"256 45 OFFCURVE",
"245 34 OFFCURVE",
"236 30 CURVE",
"227 25 OFFCURVE",
"221 25 OFFCURVE",
"218 30 CURVE",
"210 42 OFFCURVE",
"214 77 OFFCURVE",
"226 120 CURVE SMOOTH",
"238 163 OFFCURVE",
"260 211 OFFCURVE",
"291 248 CURVE",
"292 251 OFFCURVE",
"291 253 OFFCURVE",
"288 253 CURVE SMOOTH",
"276 253 OFFCURVE",
"260 246 OFFCURVE",
"252 239 CURVE",
"237 250 OFFCURVE",
"221 255 OFFCURVE",
"197 255 CURVE SMOOTH",
"153 255 OFFCURVE",
"112 232 OFFCURVE",
"81 197 CURVE SMOOTH",
"50 161 OFFCURVE",
"31 116 OFFCURVE",
"31 72 CURVE SMOOTH",
"31 23 OFFCURVE",
"50 0 OFFCURVE",
"74 0 CURVE",
"111 8 OFFCURVE",
"153 53 OFFCURVE",
"189 109 CURVE",
"181 81 OFFCURVE",
"178 54 OFFCURVE",
"180 34 CURVE SMOOTH",
"182 13 OFFCURVE",
"189 0 OFFCURVE",
"201 0 CURVE SMOOTH",
"220 0 OFFCURVE",
"249 18 OFFCURVE",
"277 57 CURVE",
"278 62 OFFCURVE",
"273 66 OFFCURVE",
"270 63 CURVE"
);
},
{
closed = 1;
nodes = (
"81 34 OFFCURVE",
"70 56 OFFCURVE",
"70 85 CURVE SMOOTH",
"70 130 OFFCURVE",
"83 168 OFFCURVE",
"103 196 CURVE SMOOTH",
"123 223 OFFCURVE",
"150 239 OFFCURVE",
"179 239 CURVE SMOOTH",
"204 239 OFFCURVE",
"226 227 OFFCURVE",
"231 210 CURVE",
"212 167 OFFCURVE",
"186 123 OFFCURVE",
"161 90 CURVE SMOOTH",
"136 57 OFFCURVE",
"111 34 OFFCURVE",
"96 34 CURVE SMOOTH"
);
}
);
width = 294;
}
);
note = a;
unicode = 0061;
},
{
glyphname = acute;
lastChange = "2017-06-04 11:33:48 +0000";
layers = (
{
layerId = "05073167-317C-430E-AA64-F7AF394C318F";
paths = (
{
closed = 1;
nodes = (
"74 358 OFFCURVE",
"41 336 OFFCURVE",
"24 325 CURVE",
"21 322 OFFCURVE",
"20 320 OFFCURVE",
"20 318 CURVE SMOOTH",
"20 315 OFFCURVE",
"21 314 OFFCURVE",
"24 314 CURVE",
"41 319 OFFCURVE",
"63 327 OFFCURVE",
"83 336 CURVE",
"103 344 OFFCURVE",
"123 354 OFFCURVE",
"135 362 CURVE",
"139 366 OFFCURVE",
"139 369 OFFCURVE",
"134 372 CURVE",
"122 377 OFFCURVE",
"100 385 OFFCURVE",
"93 381 CURVE"
);
}
);
width = 157;
}
);
note = acute;
unicode = 00B4;
},
{
glyphname = ae;
lastChange = "2017-06-04 11:33:48 +0000";
layers = (
{
layerId = "05073167-317C-430E-AA64-F7AF394C318F";
paths = (
{
closed = 1;
nodes = (
"363 234 OFFCURVE",
"343 255 OFFCURVE",
"318 255 CURVE SMOOTH",
"291 255 OFFCURVE",
"268 240 OFFCURVE",
"247 217 CURVE",
"255 234 OFFCURVE",
"264 247 OFFCURVE",
"273 259 CURVE",
"274 262 OFFCURVE",
"273 263 OFFCURVE",
"269 263 CURVE SMOOTH",
"263 263 OFFCURVE",
"257 260 OFFCURVE",
"250 254 CURVE SMOOTH",
"243 248 OFFCURVE",
"238 243 OFFCURVE",
"233 239 CURVE",
"223 250 OFFCURVE",
"208 256 OFFCURVE",
"187 256 CURVE SMOOTH",
"143 256 OFFCURVE",
"104 230 OFFCURVE",
"76 194 CURVE SMOOTH",
"48 157 OFFCURVE",
"31 110 OFFCURVE",
"31 69 CURVE SMOOTH",
"31 21 OFFCURVE",
"47 0 OFFCURVE",
"75 0 CURVE",
"96 7 OFFCURVE",
"122 29 OFFCURVE",
"145 55 CURVE SMOOTH",
"168 81 OFFCURVE",
"189 113 OFFCURVE",
"202 142 CURVE",
"192 117 OFFCURVE",
"187 91 OFFCURVE",
"187 66 CURVE SMOOTH",
"187 22 OFFCURVE",
"210 -1 OFFCURVE",
"246 -1 CURVE SMOOTH",
"283 -1 OFFCURVE",
"319 24 OFFCURVE",
"342 55 CURVE",
"343 59 OFFCURVE",
"340 66 OFFCURVE",
"335 63 CURVE",
"316 40 OFFCURVE",
"294 26 OFFCURVE",
"267 26 CURVE SMOOTH",
"240 26 OFFCURVE",
"224 52 OFFCURVE",
"224 85 CURVE SMOOTH",
"224 102 OFFCURVE",
"225 117 OFFCURVE",
"227 131 CURVE",
"263 140 OFFCURVE",
"297 151 OFFCURVE",
"322 164 CURVE SMOOTH",
"346 176 OFFCURVE",
"363 192 OFFCURVE",
"363 211 CURVE SMOOTH"
);
},
{
closed = 1;
nodes = (
"74 37 OFFCURVE",
"66 56 OFFCURVE",
"66 85 CURVE SMOOTH",
"66 126 OFFCURVE",
"77 165 OFFCURVE",
"97 193 CURVE SMOOTH",
"116 221 OFFCURVE",
"142 239 OFFCURVE",
"171 239 CURVE SMOOTH",
"194 239 OFFCURVE",
"210 223 OFFCURVE",
"217 206 CURVE",
"202 162 OFFCURVE",
"179 120 OFFCURVE",
"156 89 CURVE SMOOTH",
"132 57 OFFCURVE",
"107 37 OFFCURVE",
"91 37 CURVE SMOOTH"
);
},
{
closed = 1;
nodes = (
"312 229 OFFCURVE",
"323 216 OFFCURVE",
"323 197 CURVE SMOOTH",
"323 186 OFFCURVE",
"315 176 OFFCURVE",
"300 167 CURVE SMOOTH",
"285 158 OFFCURVE",
"261 151 OFFCURVE",
"229 146 CURVE",
"240 203 OFFCURVE",
"266 229 OFFCURVE",
"297 229 CURVE SMOOTH"
);
}
);
width = 363;
}
);
note = ae;
unicode = 00E6;
},
{
glyphname = ampersand;
lastChange = "2017-06-04 11:33:48 +0000";
layers = (
{
layerId = "05073167-317C-430E-AA64-F7AF394C318F";
paths = (
{
closed = 1;
nodes = (
"494 232 OFFCURVE",
"478 256 OFFCURVE",
"449 256 CURVE SMOOTH",
"430 256 OFFCURVE",
"413 251 OFFCURVE",
"398 240 CURVE SMOOTH",
"368 219 OFFCURVE",
"341 184 OFFCURVE",
"317 145 CURVE",
"304 126 OFFCURVE",
"291 108 OFFCURVE",
"278 91 CURVE",
"233 135 OFFCURVE",
"203 199 OFFCURVE",
"188 266 CURVE",
"216 283 OFFCURVE",
"243 304 OFFCURVE",
"263 329 CURVE SMOOTH",
"283 353 OFFCURVE",
"296 384 OFFCURVE",
"296 423 CURVE SMOOTH",
"296 450 OFFCURVE",
"278 475 OFFCURVE",
"255 475 CURVE SMOOTH",
"227 475 OFFCURVE",
"201 459 OFFCURVE",
"182 434 CURVE SMOOTH",
"162 409 OFFCURVE",
"150 374 OFFCURVE",
"150 337 CURVE SMOOTH",
"150 314 OFFCURVE",
"153 288 OFFCURVE",
"158 259 CURVE",
"141 249 OFFCURVE",
"125 239 OFFCURVE",
"109 230 CURVE SMOOTH",
"92 220 OFFCURVE",
"78 209 OFFCURVE",
"65 198 CURVE SMOOTH",
"39 175 OFFCURVE",
"20 147 OFFCURVE",
"20 107 CURVE SMOOTH",
"20 44 OFFCURVE",
"68 0 OFFCURVE",
"137 0 CURVE SMOOTH",
"189 0 OFFCURVE",
"228 22 OFFCURVE",
"259 53 CURVE",
"294 20 OFFCURVE",
"337 0 OFFCURVE",
"388 0 CURVE SMOOTH",
"432 0 OFFCURVE",
"462 19 OFFCURVE",
"483 48 CURVE SMOOTH",
"494 63 OFFCURVE",
"478 63 OFFCURVE",
"473 56 CURVE",
"459 39 OFFCURVE",
"441 30 OFFCURVE",
"418 30 CURVE SMOOTH",
"366 30 OFFCURVE",
"322 50 OFFCURVE",
"286 83 CURVE",
"299 99 OFFCURVE",
"311 115 OFFCURVE",
"322 132 CURVE SMOOTH",
"333 149 OFFCURVE",
"345 164 OFFCURVE",
"357 178 CURVE SMOOTH",
"380 205 OFFCURVE",
"404 224 OFFCURVE",
"436 224 CURVE SMOOTH",
"461 224 OFFCURVE",
"479 214 OFFCURVE",
"490 199 CURVE SMOOTH",
"495 192 OFFCURVE",
"504 197 OFFCURVE",
"501 204 CURVE"
);
},
{
closed = 1;
nodes = (
"176 415 OFFCURVE",
"197 450 OFFCURVE",
"233 450 CURVE SMOOTH",
"256 450 OFFCURVE",
"267 430 OFFCURVE",
"267 405 CURVE SMOOTH",
"267 342 OFFCURVE",
"230 307 OFFCURVE",
"185 276 CURVE",
"179 307 OFFCURVE",
"176 337 OFFCURVE",
"176 367 CURVE SMOOTH"
);
},
{
closed = 1;
nodes = (
"59 153 OFFCURVE",
"71 175 OFFCURVE",
"90 195 CURVE SMOOTH",
"109 215 OFFCURVE",
"133 231 OFFCURVE",
"160 248 CURVE",
"175 179 OFFCURVE",
"203 109 OFFCURVE",
"250 61 CURVE",
"227 40 OFFCURVE",
"201 27 OFFCURVE",
"169 27 CURVE SMOOTH",
"100 27 OFFCURVE",
"59 64 OFFCURVE",
"59 124 CURVE SMOOTH"
);
}
);
width = 507;
}
);
note = ampersand;
unicode = 0026;
},
{
glyphname = at;
lastChange = "2017-06-04 11:33:48 +0000";
layers = (
{
layerId = "05073167-317C-430E-AA64-F7AF394C318F";
paths = (
{
closed = 1;
nodes = (
"315 65 OFFCURVE",
"309 71 OFFCURVE",
"306 84 CURVE SMOOTH",
"303 97 OFFCURVE",
"304 112 OFFCURVE",
"308 131 CURVE SMOOTH",
"316 167 OFFCURVE",
"335 213 OFFCURVE",
"364 249 CURVE",
"364 252 OFFCURVE",
"363 253 OFFCURVE",
"361 253 CURVE SMOOTH",
"350 253 OFFCURVE",
"339 246 OFFCURVE",
"332 241 CURVE",
"321 250 OFFCURVE",
"306 255 OFFCURVE",
"288 255 CURVE SMOOTH",
"252 255 OFFCURVE",
"219 235 OFFCURVE",
"195 207 CURVE SMOOTH",
"170 179 OFFCURVE",
"154 142 OFFCURVE",
"154 107 CURVE SMOOTH",
"154 67 OFFCURVE",
"170 48 OFFCURVE",
"189 48 CURVE",
"220 55 OFFCURVE",
"251 92 OFFCURVE",
"282 137 CURVE",
"272 111 OFFCURVE",
"269 88 OFFCURVE",
"273 69 CURVE",
"276 50 OFFCURVE",
"285 40 OFFCURVE",
"299 40 CURVE SMOOTH",
"339 40 OFFCURVE",
"377 59 OFFCURVE",
"406 90 CURVE SMOOTH",
"434 121 OFFCURVE",
"452 165 OFFCURVE",
"452 213 CURVE SMOOTH",
"452 254 OFFCURVE",
"436 292 OFFCURVE",
"409 320 CURVE",
"381 347 OFFCURVE",
"344 364 OFFCURVE",
"300 364 CURVE SMOOTH",
"223 364 OFFCURVE",
"161 335 OFFCURVE",
"118 288 CURVE SMOOTH",
"74 241 OFFCURVE",
"50 178 OFFCURVE",
"50 113 CURVE SMOOTH",
"50 61 OFFCURVE",
"67 15 OFFCURVE",
"99 -20 CURVE SMOOTH",
"130 -55 OFFCURVE",
"176 -76 OFFCURVE",
"233 -76 CURVE SMOOTH",
"316 -76 OFFCURVE",
"381 -38 OFFCURVE",
"416 22 CURVE",
"417 29 OFFCURVE",
"412 34 OFFCURVE",
"408 31 CURVE",
"381 -17 OFFCURVE",
"334 -49 OFFCURVE",
"259 -49 CURVE SMOOTH",
"200 -49 OFFCURVE",
"156 -28 OFFCURVE",
"126 5 CURVE SMOOTH",
"96 37 OFFCURVE",
"79 83 OFFCURVE",
"79 134 CURVE SMOOTH",
"79 195 OFFCURVE",
"98 249 OFFCURVE",
"134 287 CURVE SMOOTH",
"169 325 OFFCURVE",
"218 347 OFFCURVE",
"281 347 CURVE SMOOTH",
"326 347 OFFCURVE",
"364 330 OFFCURVE",
"390 303 CURVE SMOOTH",
"416 276 OFFCURVE",
"431 239 OFFCURVE",
"431 198 CURVE SMOOTH",
"431 118 OFFCURVE",
"387 65 OFFCURVE",
"324 65 CURVE SMOOTH"
);
},
{
closed = 1;
nodes = (
"197 80 OFFCURVE",
"187 97 OFFCURVE",
"187 120 CURVE SMOOTH",
"187 156 OFFCURVE",
"197 185 OFFCURVE",
"213 206 CURVE SMOOTH",
"229 227 OFFCURVE",
"250 239 OFFCURVE",
"273 239 CURVE SMOOTH",
"294 239 OFFCURVE",
"308 232 OFFCURVE",
"313 217 CURVE",
"298 185 OFFCURVE",
"278 152 OFFCURVE",
"259 125 CURVE SMOOTH",
"239 98 OFFCURVE",
"220 80 OFFCURVE",
"208 80 CURVE SMOOTH"
);
}
);
width = 492;
}
);
note = at;
unicode = 0040;
},
{
glyphname = b;
lastChange = "2017-06-04 11:33:48 +0000";
layers = (
{
layerId = "05073167-317C-430E-AA64-F7AF394C318F";
paths = (
{
closed = 1;
nodes = (
"350 756 OFFCURVE",
"239 634 OFFCURVE",
"127 370 CURVE SMOOTH",
"100 307 OFFCURVE",
"77 242 OFFCURVE",
"61 184 CURVE SMOOTH",
"45 126 OFFCURVE",
"35 75 OFFCURVE",
"35 46 CURVE SMOOTH",
"35 11 OFFCURVE",
"52 -1 OFFCURVE",
"76 -1 CURVE SMOOTH",
"109 -1 OFFCURVE",
"151 26 OFFCURVE",
"184 63 CURVE SMOOTH",
"216 100 OFFCURVE",
"240 149 OFFCURVE",
"240 192 CURVE SMOOTH",
"240 225 OFFCURVE",
"229 255 OFFCURVE",
"198 255 CURVE SMOOTH",
"178 255 OFFCURVE",
"158 246 OFFCURVE",
"139 232 CURVE SMOOTH",
"120 218 OFFCURVE",
"105 200 OFFCURVE",
"93 183 CURVE",
"146 387 OFFCURVE",
"205 522 OFFCURVE",
"266 606 CURVE SMOOTH",
"326 690 OFFCURVE",
"389 723 OFFCURVE",
"449 723 CURVE SMOOTH",
"492 723 OFFCURVE",
"511 701 OFFCURVE",
"514 674 CURVE",
"517 669 OFFCURVE",
"520 669 OFFCURVE",
"524 673 CURVE",
"535 717 OFFCURVE",
"514 756 OFFCURVE",
"471 756 CURVE SMOOTH"
);
},
{
closed = 1;
nodes = (
"193 222 OFFCURVE",
"207 208 OFFCURVE",
"207 169 CURVE SMOOTH",
"207 136 OFFCURVE",
"193 101 OFFCURVE",
"173 74 CURVE SMOOTH",
"153 47 OFFCURVE",
"126 29 OFFCURVE",
"101 29 CURVE SMOOTH",
"81 29 OFFCURVE",
"70 40 OFFCURVE",
"73 69 CURVE SMOOTH",
"77 120 OFFCURVE",
"92 159 OFFCURVE",
"112 184 CURVE SMOOTH",
"132 209 OFFCURVE",
"156 222 OFFCURVE",
"176 222 CURVE SMOOTH"
);
}
);
width = 247;
}
);
note = b;
unicode = 0062;
},
{
glyphname = bracketleft;
lastChange = "2017-06-04 11:33:48 +0000";
layers = (
{
layerId = "05073167-317C-430E-AA64-F7AF394C318F";
paths = (
{
closed = 1;
nodes = (
"238 559 OFFCURVE",
"225 503 OFFCURVE",
"212 446 CURVE SMOOTH",
"184 331 OFFCURVE",
"155 212 OFFCURVE",
"124 93 CURVE SMOOTH",
"109 33 OFFCURVE",
"94 -26 OFFCURVE",
"79 -84 CURVE",
"79 -91 OFFCURVE",
"83 -94 OFFCURVE",
"91 -94 CURVE SMOOTH",
"127 -94 OFFCURVE",
"146 -95 OFFCURVE",
"163 -95 CURVE",
"172 -96 OFFCURVE",
"180 -96 OFFCURVE",
"189 -96 CURVE SMOOTH",
"206 -96 OFFCURVE",
"240 -97 OFFCURVE",
"243 -88 CURVE",
"244 -84 OFFCURVE",
"243 -81 OFFCURVE",
"238 -79 CURVE",
"226 -79 OFFCURVE",
"216 -79 OFFCURVE",
"208 -79 CURVE",
"199 -80 OFFCURVE",
"191 -80 OFFCURVE",
"184 -80 CURVE SMOOTH",
"176 -80 OFFCURVE",
"168 -80 OFFCURVE",
"160 -79 CURVE",
"152 -79 OFFCURVE",
"142 -79 OFFCURVE",
"131 -79 CURVE",
"167 120 OFFCURVE",
"227 358 OFFCURVE",
"292 606 CURVE",
"311 606 OFFCURVE",
"332 606 OFFCURVE",
"353 606 CURVE SMOOTH",
"374 606 OFFCURVE",
"393 605 OFFCURVE",
"409 604 CURVE",
"417 605 OFFCURVE",
"423 607 OFFCURVE",
"426 612 CURVE SMOOTH",
"429 617 OFFCURVE",
"428 620 OFFCURVE",
"421 621 CURVE",
"388 622 OFFCURVE",
"364 623 OFFCURVE",
"341 623 CURVE SMOOTH",
"330 623 OFFCURVE",
"318 623 OFFCURVE",
"306 623 CURVE SMOOTH",
"294 623 OFFCURVE",
"280 623 OFFCURVE",
"265 623 CURVE SMOOTH",
"253 623 OFFCURVE",
"252 621 OFFCURVE",
"249 612 CURVE"
);
}
);
width = 318;
}
);
note = bracketleft;
unicode = 005B;
},
{
glyphname = bracketright;
lastChange = "2017-06-04 11:33:48 +0000";
layers = (
{
layerId = "05073167-317C-430E-AA64-F7AF394C318F";
paths = (
{
closed = 1;
nodes = (
"217 21 OFFCURVE",
"245 137 OFFCURVE",
"274 256 CURVE SMOOTH",
"303 375 OFFCURVE",
"333 495 OFFCURVE",
"364 611 CURVE",
"364 617 OFFCURVE",
"360 620 OFFCURVE",
"352 620 CURVE SMOOTH",
"316 621 OFFCURVE",
"297 622 OFFCURVE",
"280 622 CURVE SMOOTH",
"271 622 OFFCURVE",
"263 622 OFFCURVE",
"254 623 CURVE",
"245 623 OFFCURVE",
"234 623 OFFCURVE",
"219 623 CURVE",
"208 622 OFFCURVE",
"201 619 OFFCURVE",
"200 615 CURVE",
"199 610 OFFCURVE",
"200 607 OFFCURVE",
"205 606 CURVE",
"217 606 OFFCURVE",
"227 606 OFFCURVE",
"236 607 CURVE",
"244 607 OFFCURVE",
"252 607 OFFCURVE",
"259 607 CURVE SMOOTH",
"274 607 OFFCURVE",
"289 606 OFFCURVE",
"312 605 CURVE",
"276 406 OFFCURVE",
"216 169 OFFCURVE",
"151 -79 CURVE",
"112 -80 OFFCURVE",
"66 -80 OFFCURVE",
"35 -77 CURVE",
"26 -78 OFFCURVE",
"20 -80 OFFCURVE",
"17 -85 CURVE SMOOTH",
"14 -90 OFFCURVE",
"15 -94 OFFCURVE",
"22 -95 CURVE",
"39 -95 OFFCURVE",
"53 -95 OFFCURVE",
"66 -95 CURVE",
"79 -96 OFFCURVE",
"91 -96 OFFCURVE",
"102 -96 CURVE SMOOTH",
"113 -96 OFFCURVE",
"125 -96 OFFCURVE",
"137 -96 CURVE SMOOTH",
"149 -96 OFFCURVE",
"163 -96 OFFCURVE",
"178 -96 CURVE SMOOTH",
"190 -96 OFFCURVE",
"193 -94 OFFCURVE",
"194 -86 CURVE"
);
}
);
width = 339;
}
);
note = bracketright;
unicode = 005D;
},
{
glyphname = c;
lastChange = "2017-06-04 11:33:48 +0000";
layers = (
{
layerId = "05073167-317C-430E-AA64-F7AF394C318F";
paths = (
{
closed = 1;
nodes = (
"183 178 OFFCURVE",
"192 186 OFFCURVE",
"198 195 CURVE SMOOTH",
"204 204 OFFCURVE",
"208 214 OFFCURVE",
"208 221 CURVE SMOOTH",
"208 240 OFFCURVE",
"191 255 OFFCURVE",
"163 255 CURVE SMOOTH",
"130 255 OFFCURVE",
"96 229 OFFCURVE",
"72 192 CURVE SMOOTH",
"47 155 OFFCURVE",
"30 106 OFFCURVE",
"30 59 CURVE SMOOTH",
"30 22 OFFCURVE",
"52 -1 OFFCURVE",
"81 -1 CURVE SMOOTH",
"117 -1 OFFCURVE",
"156 30 OFFCURVE",
"187 69 CURVE",
"190 76 OFFCURVE",
"184 80 OFFCURVE",
"179 77 CURVE",
"153 46 OFFCURVE",
"127 30 OFFCURVE",
"101 30 CURVE SMOOTH",
"78 30 OFFCURVE",
"67 46 OFFCURVE",
"67 79 CURVE SMOOTH",
"67 122 OFFCURVE",
"76 159 OFFCURVE",
"89 187 CURVE SMOOTH",
"102 214 OFFCURVE",
"122 230 OFFCURVE",
"143 230 CURVE SMOOTH",
"174 230 OFFCURVE",
"184 207 OFFCURVE",
"173 180 CURVE",
"173 177 OFFCURVE",
"175 175 OFFCURVE",
"178 175 CURVE"
);
}
);
width = 203;
}
);
note = c;
unicode = 0063;
},
{
glyphname = caron;
lastChange = "2017-06-04 11:33:48 +0000";
layers = (
{
layerId = "05073167-317C-430E-AA64-F7AF394C318F";
paths = (
{
closed = 1;
nodes = (
"121 355 OFFCURVE",
"151 374 OFFCURVE",
"174 387 CURVE",
"177 393 OFFCURVE",
"175 396 OFFCURVE",
"168 396 CURVE",
"147 385 OFFCURVE",
"123 371 OFFCURVE",
"107 360 CURVE",
"86 376 OFFCURVE",
"73 385 OFFCURVE",
"49 394 CURVE",
"41 395 OFFCURVE",
"34 394 OFFCURVE",
"27 391 CURVE SMOOTH",
"20 388 OFFCURVE",
"19 384 OFFCURVE",
"22 381 CURVE",
"47 370 OFFCURVE",
"74 348 OFFCURVE",
"89 329 CURVE",
"93 325 OFFCURVE",
"97 325 OFFCURVE",
"101 328 CURVE"
);
}
);
width = 196;
}
);
note = caron;
unicode = 02C7;
},
{
glyphname = ccedilla;
lastChange = "2017-06-04 11:33:48 +0000";
layers = (
{
layerId = "05073167-317C-430E-AA64-F7AF394C318F";
paths = (
{
closed = 1;
nodes = (
"152 47 OFFCURVE",
"127 30 OFFCURVE",
"100 30 CURVE SMOOTH",
"77 30 OFFCURVE",
"66 47 OFFCURVE",
"66 80 CURVE SMOOTH",
"66 123 OFFCURVE",
"75 160 OFFCURVE",
"89 188 CURVE SMOOTH",
"103 215 OFFCURVE",
"121 231 OFFCURVE",
"142 231 CURVE SMOOTH",
"173 231 OFFCURVE",
"183 208 OFFCURVE",
"172 181 CURVE",
"172 176 OFFCURVE",
"174 175 OFFCURVE",
"178 176 CURVE",
"183 179 OFFCURVE",
"191 187 OFFCURVE",
"197 196 CURVE SMOOTH",
"203 205 OFFCURVE",
"208 215 OFFCURVE",
"208 222 CURVE SMOOTH",
"208 241 OFFCURVE",
"190 256 OFFCURVE",
"163 256 CURVE SMOOTH",
"128 256 OFFCURVE",
"96 230 OFFCURVE",
"71 193 CURVE SMOOTH",
"46 156 OFFCURVE",
"30 106 OFFCURVE",
"30 59 CURVE SMOOTH",
"30 22 OFFCURVE",
"52 0 OFFCURVE",
"81 0 CURVE SMOOTH",
"85 0 OFFCURVE",
"90 1 OFFCURVE",
"97 2 CURVE",
"74 -9 OFFCURVE",
"66 -34 OFFCURVE",
"73 -54 CURVE SMOOTH",
"82 -82 OFFCURVE",
"71 -102 OFFCURVE",
"34 -121 CURVE",
"31 -125 OFFCURVE",
"32 -132 OFFCURVE",
"36 -132 CURVE",
"88 -111 OFFCURVE",
"109 -69 OFFCURVE",
"96 -36 CURVE",
"91 -21 OFFCURVE",
"96 -3 OFFCURVE",
"115 8 CURVE SMOOTH",
"140 23 OFFCURVE",
"165 43 OFFCURVE",
"186 70 CURVE",
"189 77 OFFCURVE",
"183 81 OFFCURVE",
"179 78 CURVE"
);
}
);
width = 203;
}
);
note = ccedilla;
unicode = 00E7;
},
{
glyphname = circumflex;
lastChange = "2017-06-04 11:33:48 +0000";
layers = (
{
layerId = "05073167-317C-430E-AA64-F7AF394C318F";
paths = (
{
closed = 1;
nodes = (
"75 366 OFFCURVE",
"45 347 OFFCURVE",
"22 334 CURVE",
"19 328 OFFCURVE",
"21 325 OFFCURVE",
"28 325 CURVE",
"49 336 OFFCURVE",
"73 350 OFFCURVE",
"89 361 CURVE",
"110 345 OFFCURVE",
"123 336 OFFCURVE",
"147 327 CURVE",
"155 326 OFFCURVE",
"162 327 OFFCURVE",
"169 330 CURVE SMOOTH",
"176 333 OFFCURVE",
"177 337 OFFCURVE",
"174 340 CURVE",
"149 351 OFFCURVE",
"122 373 OFFCURVE",
"107 392 CURVE",
"103 396 OFFCURVE",
"99 396 OFFCURVE",
"95 393 CURVE"
);
}
);
width = 196;
}
);
note = circumflex;
unicode = 02C6;
},
{
glyphname = colon;
lastChange = "2017-06-04 11:33:48 +0000";
layers = (
{
layerId = "05073167-317C-430E-AA64-F7AF394C318F";
paths = (
{
closed = 1;
nodes = (
"42 0 OFFCURVE",
"53 8 OFFCURVE",
"62 18 CURVE",
"70 28 OFFCURVE",
"77 39 OFFCURVE",
"77 50 CURVE SMOOTH",
"77 58 OFFCURVE",
"74 65 OFFCURVE",
"67 65 CURVE SMOOTH",
"56 65 OFFCURVE",
"44 58 OFFCURVE",
"35 49 CURVE SMOOTH",
"26 40 OFFCURVE",
"20 29 OFFCURVE",
"20 21 CURVE SMOOTH",
"20 7 OFFCURVE",
"24 0 OFFCURVE",
"33 0 CURVE SMOOTH"
);
},
{
closed = 1;
nodes = (
"103 191 OFFCURVE",
"114 199 OFFCURVE",
"123 209 CURVE SMOOTH",
"132 219 OFFCURVE",
"139 231 OFFCURVE",
"139 242 CURVE SMOOTH",
"139 251 OFFCURVE",
"136 256 OFFCURVE",
"129 256 CURVE SMOOTH",
"117 256 OFFCURVE",
"105 249 OFFCURVE",
"97 240 CURVE",
"88 231 OFFCURVE",
"81 221 OFFCURVE",
"81 213 CURVE SMOOTH",
"81 198 OFFCURVE",
"85 191 OFFCURVE",
"94 191 CURVE SMOOTH"
);
}
);
width = 156;
}
);
note = colon;
unicode = 003A;
},
{
glyphname = comma;
lastChange = "2017-06-04 11:33:48 +0000";
layers = (
{
layerId = "05073167-317C-430E-AA64-F7AF394C318F";
paths = (
{
closed = 1;
nodes = (
"70 66 OFFCURVE",
"60 58 OFFCURVE",
"52 50 CURVE SMOOTH",
"44 42 OFFCURVE",
"38 33 OFFCURVE",
"42 29 CURVE",
"49 25 OFFCURVE",
"52 16 OFFCURVE",
"52 2 CURVE SMOOTH",
"52 -29 OFFCURVE",
"31 -58 OFFCURVE",
"2 -77 CURVE",
"-2 -82 OFFCURVE",
"0 -88 OFFCURVE",
"5 -88 CURVE",
"52 -60 OFFCURVE",
"87 -10 OFFCURVE",
"87 31 CURVE SMOOTH",
"87 47 OFFCURVE",
"82 63 OFFCURVE",
"75 66 CURVE"
);
}
);
width = 112;
}
);
note = comma;
unicode = 002C;
},
{
glyphname = d;
lastChange = "2017-06-04 11:33:48 +0000";
layers = (
{
layerId = "05073167-317C-430E-AA64-F7AF394C318F";
paths = (
{
closed = 1;
nodes = (
"557 756 OFFCURVE",
"508 723 OFFCURVE",
"461 672 CURVE SMOOTH",
"413 620 OFFCURVE",
"368 550 OFFCURVE",
"328 475 CURVE SMOOTH",
"288 399 OFFCURVE",
"253 318 OFFCURVE",
"229 246 CURVE",
"220 253 OFFCURVE",
"209 257 OFFCURVE",
"194 257 CURVE SMOOTH",
"149 257 OFFCURVE",
"109 233 OFFCURVE",
"79 197 CURVE SMOOTH",
"49 161 OFFCURVE",
"30 112 OFFCURVE",
"30 61 CURVE SMOOTH",
"30 18 OFFCURVE",
"55 0 OFFCURVE",
"78 0 CURVE",
"93 4 OFFCURVE",
"115 19 OFFCURVE",
"136 40 CURVE SMOOTH",
"157 61 OFFCURVE",
"179 88 OFFCURVE",
"191 116 CURVE",
"186 93 OFFCURVE",
"181 75 OFFCURVE",
"180 52 CURVE",
"177 21 OFFCURVE",
"185 0 OFFCURVE",
"208 0 CURVE SMOOTH",
"220 0 OFFCURVE",
"236 10 OFFCURVE",
"250 23 CURVE",
"264 35 OFFCURVE",
"276 51 OFFCURVE",
"283 63 CURVE",
"284 68 OFFCURVE",
"278 72 OFFCURVE",
"275 69 CURVE",
"263 50 OFFCURVE",
"248 32 OFFCURVE",
"233 32 CURVE SMOOTH",
"225 32 OFFCURVE",
"220 38 OFFCURVE",
"219 50 CURVE SMOOTH",
"218 61 OFFCURVE",
"218 75 OFFCURVE",
"221 90 CURVE SMOOTH",
"240 193 OFFCURVE",
"271 297 OFFCURVE",
"308 390 CURVE SMOOTH",
"345 483 OFFCURVE",
"390 565 OFFCURVE",
"437 625 CURVE SMOOTH",
"484 684 OFFCURVE",
"534 719 OFFCURVE",
"582 719 CURVE SMOOTH",
"606 719 OFFCURVE",
"621 708 OFFCURVE",
"618 689 CURVE",
"619 683 OFFCURVE",
"623 682 OFFCURVE",
"628 686 CURVE",
"647 726 OFFCURVE",
"637 756 OFFCURVE",
"602 756 CURVE SMOOTH"
);
},
{
closed = 1;
nodes = (
"81 35 OFFCURVE",
"68 48 OFFCURVE",
"68 76 CURVE SMOOTH",
"68 124 OFFCURVE",
"82 165 OFFCURVE",
"103 194 CURVE SMOOTH",
"123 223 OFFCURVE",
"151 241 OFFCURVE",
"179 241 CURVE SMOOTH",
"198 241 OFFCURVE",
"214 234 OFFCURVE",
"219 218 CURVE",
"218 212 OFFCURVE",
"216 206 OFFCURVE",
"214 200 CURVE SMOOTH",
"212 194 OFFCURVE",
"210 188 OFFCURVE",
"208 181 CURVE",
"195 144 OFFCURVE",
"174 107 OFFCURVE",
"154 80 CURVE SMOOTH",
"133 53 OFFCURVE",
"111 35 OFFCURVE",
"96 35 CURVE SMOOTH"
);
}
);
width = 285;
}
);
note = d;
unicode = 0064;
},
{
glyphname = dagger;
lastChange = "2017-06-04 11:33:48 +0000";
layers = (
{
layerId = "05073167-317C-430E-AA64-F7AF394C318F";
paths = (
{
closed = 1;
nodes = (
"221 331 OFFCURVE",
"205 332 OFFCURVE",
"189 332 CURVE SMOOTH",
"172 332 OFFCURVE",
"156 332 OFFCURVE",
"141 331 CURVE",
"160 391 OFFCURVE",
"180 450 OFFCURVE",
"203 510 CURVE",
"203 523 OFFCURVE",
"194 519 OFFCURVE",
"185 508 CURVE SMOOTH",
"176 497 OFFCURVE",
"164 481 OFFCURVE",
"160 469 CURVE SMOOTH",
"147 432 OFFCURVE",
"131 384 OFFCURVE",
"116 331 CURVE",
"105 330 OFFCURVE",
"95 330 OFFCURVE",
"86 330 CURVE",
"67 329 OFFCURVE",
"40 327 OFFCURVE",
"26 314 CURVE",
"19 307 OFFCURVE",
"18 303 OFFCURVE",
"24 302 CURVE",
"53 307 OFFCURVE",
"82 310 OFFCURVE",
"111 313 CURVE",
"95 254 OFFCURVE",
"78 189 OFFCURVE",
"63 123 CURVE SMOOTH",
"47 57 OFFCURVE",
"33 -9 OFFCURVE",
"22 -69 CURVE SMOOTH",
"19 -84 OFFCURVE",
"32 -79 OFFCURVE",
"36 -64 CURVE",
"61 59 OFFCURVE",
"95 185 OFFCURVE",
"136 315 CURVE",
"167 316 OFFCURVE",
"197 317 OFFCURVE",
"228 317 CURVE",
"236 318 OFFCURVE",
"241 320 OFFCURVE",
"244 324 CURVE",
"246 328 OFFCURVE",
"243 330 OFFCURVE",
"236 330 CURVE"
);
}
);
width = 185;
}
);
note = dagger;
unicode = 2020;
},
{
glyphname = daggerdbl;
lastChange = "2017-06-04 11:33:48 +0000";
layers = (
{
layerId = "05073167-317C-430E-AA64-F7AF394C318F";
paths = (
{
closed = 1;
nodes = (
"222 332 OFFCURVE",
"206 332 OFFCURVE",
"190 332 CURVE SMOOTH",
"173 332 OFFCURVE",
"157 332 OFFCURVE",
"142 332 CURVE",
"161 392 OFFCURVE",
"182 450 OFFCURVE",
"203 510 CURVE",
"203 523 OFFCURVE",
"194 519 OFFCURVE",
"185 509 CURVE SMOOTH",
"176 499 OFFCURVE",
"165 482 OFFCURVE",
"161 470 CURVE",
"146 431 OFFCURVE",
"132 384 OFFCURVE",
"117 331 CURVE",
"72 328 OFFCURVE",
"41 329 OFFCURVE",
"27 315 CURVE SMOOTH",
"20 308 OFFCURVE",
"19 303 OFFCURVE",
"25 302 CURVE",
"53 309 OFFCURVE",
"81 311 OFFCURVE",
"112 314 CURVE",
"93 250 OFFCURVE",
"76 180 OFFCURVE",
"59 108 CURVE",
"19 108 OFFCURVE",
"-14 105 OFFCURVE",
"-26 93 CURVE SMOOTH",
"-33 86 OFFCURVE",
"-33 82 OFFCURVE",
"-28 81 CURVE",
"0 86 OFFCURVE",
"27 89 OFFCURVE",
"56 92 CURVE",
"49 64 OFFCURVE",
"43 37 OFFCURVE",
"38 10 CURVE SMOOTH",
"33 -17 OFFCURVE",
"27 -44 OFFCURVE",
"22 -69 CURVE",
"21 -76 OFFCURVE",
"23 -79 OFFCURVE",
"28 -77 CURVE",
"32 -75 OFFCURVE",
"35 -70 OFFCURVE",
"37 -63 CURVE",
"47 -14 OFFCURVE",
"59 39 OFFCURVE",
"73 94 CURVE",
"90 95 OFFCURVE",
"108 96 OFFCURVE",
"125 96 CURVE SMOOTH",
"142 96 OFFCURVE",
"159 96 OFFCURVE",
"176 95 CURVE",
"181 96 OFFCURVE",
"185 97 OFFCURVE",
"187 100 CURVE",
"189 102 OFFCURVE",
"188 104 OFFCURVE",
"183 105 CURVE",
"146 108 OFFCURVE",
"111 109 OFFCURVE",
"77 108 CURVE",
"96 177 OFFCURVE",
"115 246 OFFCURVE",
"136 315 CURVE",
"151 316 OFFCURVE",
"167 317 OFFCURVE",
"183 317 CURVE SMOOTH",
"198 317 OFFCURVE",
"214 317 OFFCURVE",
"229 317 CURVE",
"237 318 OFFCURVE",
"242 321 OFFCURVE",
"245 325 CURVE",
"247 328 OFFCURVE",
"244 330 OFFCURVE",
"237 331 CURVE"
);
}
);
width = 185;
}
);
note = daggerdbl;
unicode = 2021;
},
{
glyphname = dieresis;
lastChange = "2017-06-04 11:33:48 +0000";
layers = (
{
layerId = "05073167-317C-430E-AA64-F7AF394C318F";
paths = (
{
closed = 1;
nodes = (
"52 319 OFFCURVE",
"70 345 OFFCURVE",
"70 365 CURVE SMOOTH",
"70 374 OFFCURVE",
"67 379 OFFCURVE",
"60 379 CURVE SMOOTH",
"37 379 OFFCURVE",
"20 353 OFFCURVE",
"20 338 CURVE SMOOTH",
"20 325 OFFCURVE",
"24 319 OFFCURVE",
"33 319 CURVE SMOOTH"
);
},
{
closed = 1;
nodes = (
"137 319 OFFCURVE",
"154 345 OFFCURVE",
"154 365 CURVE SMOOTH",
"154 374 OFFCURVE",
"151 379 OFFCURVE",
"144 379 CURVE SMOOTH",
"121 379 OFFCURVE",
"105 353 OFFCURVE",
"105 338 CURVE SMOOTH",
"105 325 OFFCURVE",
"109 319 OFFCURVE",
"118 319 CURVE SMOOTH"
);
}
);
width = 174;
}
);
note = dieresis;
unicode = 00A8;
},
{
glyphname = dotlessi;
lastChange = "2017-06-04 11:33:48 +0000";
layers = (
{
layerId = "05073167-317C-430E-AA64-F7AF394C318F";
paths = (
{
closed = 1;
nodes = (
"63 197 OFFCURVE",
"89 216 OFFCURVE",
"104 227 CURVE",
"88 203 OFFCURVE",
"70 168 OFFCURVE",
"57 132 CURVE SMOOTH",
"44 96 OFFCURVE",
"34 58 OFFCURVE",
"34 33 CURVE SMOOTH",
"34 11 OFFCURVE",
"43 0 OFFCURVE",
"60 0 CURVE SMOOTH",
"84 0 OFFCURVE",
"113 29 OFFCURVE",
"137 58 CURVE",
"140 63 OFFCURVE",
"134 69 OFFCURVE",
"131 66 CURVE",
"112 45 OFFCURVE",
"100 31 OFFCURVE",
"85 31 CURVE SMOOTH",
"76 31 OFFCURVE",
"71 38 OFFCURVE",
"71 52 CURVE SMOOTH",
"71 73 OFFCURVE",
"80 108 OFFCURVE",
"93 144 CURVE SMOOTH",
"105 179 OFFCURVE",
"123 216 OFFCURVE",
"140 247 CURVE",
"140 253 OFFCURVE",
"137 256 OFFCURVE",
"132 256 CURVE",
"100 240 OFFCURVE",
"65 213 OFFCURVE",
"46 194 CURVE",
"43 190 OFFCURVE",
"48 183 OFFCURVE",
"52 186 CURVE"
);
}
);
width = 149;
}
);
note = dotlessi;
unicode = 0131;
},
{
glyphname = e;
lastChange = "2017-06-04 11:33:48 +0000";
layers = (
{
layerId = "05073167-317C-430E-AA64-F7AF394C318F";
paths = (
{
closed = 1;
nodes = (
"206 235 OFFCURVE",
"186 256 OFFCURVE",
"161 256 CURVE SMOOTH",
"126 256 OFFCURVE",
"94 229 OFFCURVE",
"70 192 CURVE SMOOTH",
"46 155 OFFCURVE",
"30 107 OFFCURVE",
"30 67 CURVE SMOOTH",
"30 23 OFFCURVE",
"54 0 OFFCURVE",
"89 0 CURVE SMOOTH",
"126 0 OFFCURVE",
"162 25 OFFCURVE",
"185 56 CURVE",
"188 61 OFFCURVE",
"184 67 OFFCURVE",
"179 64 CURVE",
"160 41 OFFCURVE",
"137 27 OFFCURVE",
"110 27 CURVE SMOOTH",
"83 27 OFFCURVE",
"68 53 OFFCURVE",
"68 86 CURVE SMOOTH",
"68 103 OFFCURVE",
"69 117 OFFCURVE",
"70 132 CURVE",
"106 141 OFFCURVE",
"140 152 OFFCURVE",
"165 165 CURVE SMOOTH",
"190 177 OFFCURVE",
"206 193 OFFCURVE",
"206 212 CURVE SMOOTH"
);
},
{
closed = 1;
nodes = (
"156 230 OFFCURVE",
"166 217 OFFCURVE",
"166 198 CURVE SMOOTH",
"166 187 OFFCURVE",
"159 177 OFFCURVE",
"144 168 CURVE SMOOTH",
"129 159 OFFCURVE",
"105 152 OFFCURVE",
"73 147 CURVE",
"84 204 OFFCURVE",
"109 230 OFFCURVE",
"140 230 CURVE SMOOTH"
);
}
);
width = 206;
}
);
note = e;
unicode = 0065;
},
{
glyphname = emdash;
lastChange = "2017-06-04 11:33:48 +0000";
layers = (
{
layerId = "05073167-317C-430E-AA64-F7AF394C318F";
paths = (
{
closed = 1;
nodes = (
"26 160 OFFCURVE",
"22 158 OFFCURVE",
"21 154 CURVE",
"20 149 OFFCURVE",
"21 147 OFFCURVE",
"23 146 CURVE",
"32 147 OFFCURVE",
"52 147 OFFCURVE",
"81 148 CURVE SMOOTH",
"110 148 OFFCURVE",
"145 148 OFFCURVE",
"187 148 CURVE SMOOTH",
"228 148 OFFCURVE",
"274 148 OFFCURVE",
"325 149 CURVE SMOOTH",
"375 149 OFFCURVE",
"426 149 OFFCURVE",
"479 149 CURVE SMOOTH",
"532 148 OFFCURVE",
"584 148 OFFCURVE",
"635 148 CURVE SMOOTH",
"686 148 OFFCURVE",
"734 148 OFFCURVE",
"777 148 CURVE SMOOTH",
"863 147 OFFCURVE",
"929 146 OFFCURVE",
"954 145 CURVE",
"961 145 OFFCURVE",
"970 149 OFFCURVE",
"975 154 CURVE SMOOTH",
"979 158 OFFCURVE",
"982 162 OFFCURVE",
"977 165 CURVE",
"968 165 OFFCURVE",
"949 165 OFFCURVE",
"920 165 CURVE SMOOTH",
"890 165 OFFCURVE",
"853 165 OFFCURVE",
"810 165 CURVE SMOOTH",
"767 165 OFFCURVE",
"719 165 OFFCURVE",
"666 165 CURVE SMOOTH",
"613 165 OFFCURVE",
"559 165 OFFCURVE",
"504 165 CURVE SMOOTH",
"449 165 OFFCURVE",
"396 165 OFFCURVE",
"343 165 CURVE SMOOTH",
"237 165 OFFCURVE",
"149 164 OFFCURVE",
"90 163 CURVE SMOOTH",
"60 162 OFFCURVE",
"41 162 OFFCURVE",
"33 161 CURVE SMOOTH"
);
}
);
width = 1000;
}
);
note = emdash;
unicode = 2014;
},
{
glyphname = endash;
lastChange = "2017-06-04 11:33:48 +0000";
layers = (
{
layerId = "05073167-317C-430E-AA64-F7AF394C318F";
paths = (
{
closed = 1;
nodes = (
"26 160 OFFCURVE",
"22 158 OFFCURVE",
"21 154 CURVE",
"20 149 OFFCURVE",
"21 147 OFFCURVE",
"23 146 CURVE",
"48 147 OFFCURVE",
"94 148 OFFCURVE",
"147 149 CURVE SMOOTH",
"199 149 OFFCURVE",
"259 148 OFFCURVE",
"315 148 CURVE SMOOTH",
"370 147 OFFCURVE",
"419 146 OFFCURVE",
"454 145 CURVE SMOOTH",
"461 145 OFFCURVE",
"470 149 OFFCURVE",
"475 154 CURVE SMOOTH",
"479 158 OFFCURVE",
"482 162 OFFCURVE",
"477 165 CURVE",
"466 165 OFFCURVE",
"448 165 OFFCURVE",
"425 165 CURVE SMOOTH",
"402 165 OFFCURVE",
"375 165 OFFCURVE",
"346 165 CURVE SMOOTH",
"317 165 OFFCURVE",
"286 165 OFFCURVE",
"254 165 CURVE SMOOTH",
"222 165 OFFCURVE",
"192 165 OFFCURVE",
"163 165 CURVE SMOOTH",
"105 164 OFFCURVE",
"54 162 OFFCURVE",
"33 161 CURVE"
);
}
);
width = 500;
}
);
note = endash;
unicode = 2013;
},
{
glyphname = eth;
lastChange = "2017-06-04 11:33:48 +0000";
layers = (
{
layerId = "05073167-317C-430E-AA64-F7AF394C318F";
paths = (
{
closed = 1;
nodes = (
"167 484 OFFCURVE",
"185 497 OFFCURVE",
"204 508 CURVE",
"207 511 OFFCURVE",
"209 514 OFFCURVE",
"208 516 CURVE SMOOTH",
"207 518 OFFCURVE",
"205 519 OFFCURVE",
"204 519 CURVE",
"184 508 OFFCURVE",
"163 495 OFFCURVE",
"142 482 CURVE",
"135 493 OFFCURVE",
"127 504 OFFCURVE",
"120 515 CURVE SMOOTH",
"113 526 OFFCURVE",
"105 537 OFFCURVE",
"96 548 CURVE",
"64 591 OFFCURVE",
"62 629 OFFCURVE",
"89 664 CURVE",
"92 669 OFFCURVE",
"88 675 OFFCURVE",
"83 674 CURVE",
"34 631 OFFCURVE",
"29 570 OFFCURVE",
"69 522 CURVE SMOOTH",
"86 502 OFFCURVE",
"101 482 OFFCURVE",
"114 463 CURVE",
"89 446 OFFCURVE",
"67 429 OFFCURVE",
"52 417 CURVE",
"47 410 OFFCURVE",
"43 404 OFFCURVE",
"42 399 CURVE SMOOTH",
"41 393 OFFCURVE",
"42 390 OFFCURVE",
"45 390 CURVE",
"68 411 OFFCURVE",
"94 432 OFFCURVE",
"122 452 CURVE",
"165 384 OFFCURVE",
"187 324 OFFCURVE",
"195 249 CURVE",
"155 266 OFFCURVE",
"115 249 OFFCURVE",
"84 213 CURVE SMOOTH",
"53 176 OFFCURVE",
"33 122 OFFCURVE",
"33 67 CURVE SMOOTH",
"33 30 OFFCURVE",
"50 0 OFFCURVE",
"85 0 CURVE SMOOTH",
"116 1 OFFCURVE",
"150 28 OFFCURVE",
"177 68 CURVE SMOOTH",
"204 107 OFFCURVE",
"223 158 OFFCURVE",
"223 210 CURVE SMOOTH",
"223 303 OFFCURVE",
"200 383 OFFCURVE",
"148 471 CURVE"
);
},
{
closed = 1;
nodes = (
"80 34 OFFCURVE",
"68 61 OFFCURVE",
"68 92 CURVE SMOOTH",
"68 181 OFFCURVE",
"106 240 OFFCURVE",
"161 240 CURVE SMOOTH",
"184 240 OFFCURVE",
"197 224 OFFCURVE",
"197 187 CURVE SMOOTH",
"197 147 OFFCURVE",
"184 108 OFFCURVE",
"167 80 CURVE SMOOTH",
"150 52 OFFCURVE",
"127 34 OFFCURVE",
"107 34 CURVE SMOOTH"
);
}
);
width = 234;
}
);
note = eth;
unicode = 00F0;
},
{
glyphname = exclam;
lastChange = "2017-06-04 11:33:48 +0000";
layers = (
{
layerId = "05073167-317C-430E-AA64-F7AF394C318F";
paths = (
{
closed = 1;
nodes = (
"77 0 OFFCURVE",
"88 8 OFFCURVE",
"97 18 CURVE SMOOTH",
"106 28 OFFCURVE",
"113 40 OFFCURVE",
"113 51 CURVE SMOOTH",
"113 60 OFFCURVE",
"110 65 OFFCURVE",
"103 65 CURVE SMOOTH",
"91 65 OFFCURVE",
"79 58 OFFCURVE",
"71 49 CURVE",
"62 40 OFFCURVE",
"55 30 OFFCURVE",
"55 22 CURVE SMOOTH",
"55 7 OFFCURVE",
"59 0 OFFCURVE",
"68 0 CURVE SMOOTH"
);
},
{
closed = 1;
nodes = (
"324 545 OFFCURVE",
"311 543 OFFCURVE",
"294 534 CURVE SMOOTH",
"277 525 OFFCURVE",
"256 507 OFFCURVE",
"248 495 CURVE",
"236 452 OFFCURVE",
"214 386 OFFCURVE",
"190 319 CURVE SMOOTH",
"165 251 OFFCURVE",
"137 183 OFFCURVE",
"117 139 CURVE",
"113 124 OFFCURVE",
"122 120 OFFCURVE",
"133 132 CURVE",
"150 172 OFFCURVE",
"183 244 OFFCURVE",
"218 319 CURVE SMOOTH",
"235 356 OFFCURVE",
"253 394 OFFCURVE",
"270 431 CURVE SMOOTH",
"287 468 OFFCURVE",
"302 499 OFFCURVE",
"315 525 CURVE"
);
}
);
width = 189;
}
);
note = exclam;
unicode = 0021;
},
{
glyphname = exclamdown;
lastChange = "2017-06-04 11:33:48 +0000";
layers = (
{
layerId = "05073167-317C-430E-AA64-F7AF394C318F";
paths = (
{
closed = 1;
nodes = (
"162 255 OFFCURVE",
"150 248 OFFCURVE",
"142 238 CURVE",
"133 228 OFFCURVE",
"126 215 OFFCURVE",
"126 204 CURVE SMOOTH",
"126 195 OFFCURVE",
"129 190 OFFCURVE",
"136 190 CURVE SMOOTH",
"148 190 OFFCURVE",
"160 197 OFFCURVE",
"169 206 CURVE",
"177 215 OFFCURVE",
"184 225 OFFCURVE",
"184 233 CURVE SMOOTH",
"184 248 OFFCURVE",
"180 255 OFFCURVE",
"171 255 CURVE SMOOTH"
);
},
{
closed = 1;
nodes = (
"-85 -290 OFFCURVE",
"-72 -288 OFFCURVE",
"-55 -279 CURVE SMOOTH",
"-38 -270 OFFCURVE",
"-17 -252 OFFCURVE",
"-9 -240 CURVE",
"3 -199 OFFCURVE",
"25 -131 OFFCURVE",
"50 -63 CURVE SMOOTH",
"74 4 OFFCURVE",
"102 72 OFFCURVE",
"122 116 CURVE",
"126 131 OFFCURVE",
"117 135 OFFCURVE",
"106 123 CURVE",
"89 83 OFFCURVE",
"56 11 OFFCURVE",
"21 -64 CURVE SMOOTH",
"-14 -139 OFFCURVE",
"-51 -218 OFFCURVE",
"-76 -270 CURVE SMOOTH"
);
}
);
width = 189;
}
);
note = exclamdown;
unicode = 00A1;
},
{
glyphname = f;
lastChange = "2017-06-04 11:33:48 +0000";
layers = (
{
layerId = "05073167-317C-430E-AA64-F7AF394C318F";
paths = (
{
closed = 1;
nodes = (
"397 727 OFFCURVE",
"331 680 OFFCURVE",
"270 597 CURVE SMOOTH",
"209 513 OFFCURVE",
"153 395 OFFCURVE",
"105 251 CURVE",
"99 250 OFFCURVE",
"93 250 OFFCURVE",
"88 250 CURVE",
"76 249 OFFCURVE",
"66 248 OFFCURVE",
"54 244 CURVE",
"42 239 OFFCURVE",
"33 233 OFFCURVE",
"30 228 CURVE",
"28 225 OFFCURVE",
"29 224 OFFCURVE",
"32 223 CURVE",
"55 228 OFFCURVE",
"77 231 OFFCURVE",
"100 234 CURVE",
"99 231 OFFCURVE",
"98 228 OFFCURVE",
"97 225 CURVE SMOOTH",
"96 222 OFFCURVE",
"95 218 OFFCURVE",
"94 215 CURVE SMOOTH",
"55 88 OFFCURVE",
"19 -2 OFFCURVE",
"-14 -66 CURVE SMOOTH",
"-47 -131 OFFCURVE",
"-78 -169 OFFCURVE",
"-109 -191 CURVE SMOOTH",
"-141 -213 OFFCURVE",
"-172 -220 OFFCURVE",
"-204 -220 CURVE SMOOTH",
"-235 -220 OFFCURVE",
"-253 -210 OFFCURVE",
"-263 -197 CURVE",
"-273 -185 OFFCURVE",
"-274 -170 OFFCURVE",
"-269 -159 CURVE",
"-269 -155 OFFCURVE",
"-273 -151 OFFCURVE",
"-277 -155 CURVE",
"-285 -166 OFFCURVE",
"-291 -181 OFFCURVE",
"-291 -193 CURVE SMOOTH",
"-291 -220 OFFCURVE",
"-273 -243 OFFCURVE",
"-228 -243 CURVE SMOOTH",
"-164 -243 OFFCURVE",
"-102 -216 OFFCURVE",
"-42 -144 CURVE SMOOTH",
"18 -73 OFFCURVE",
"75 42 OFFCURVE",
"130 217 CURVE",
"133 223 OFFCURVE",
"135 230 OFFCURVE",
"137 237 CURVE",
"154 238 OFFCURVE",
"171 239 OFFCURVE",
"188 240 CURVE SMOOTH",
"205 241 OFFCURVE",
"221 241 OFFCURVE",
"238 242 CURVE",
"250 245 OFFCURVE",
"250 250 OFFCURVE",
"243 253 CURVE",
"225 253 OFFCURVE",
"208 253 OFFCURVE",
"191 253 CURVE SMOOTH",
"174 253 OFFCURVE",
"157 253 OFFCURVE",
"142 252 CURVE",
"198 425 OFFCURVE",
"245 535 OFFCURVE",
"293 602 CURVE SMOOTH",
"340 669 OFFCURVE",
"384 692 OFFCURVE",
"435 692 CURVE SMOOTH",
"482 692 OFFCURVE",
"502 668 OFFCURVE",
"505 641 CURVE",
"508 637 OFFCURVE",
"512 635 OFFCURVE",
"515 639 CURVE",
"520 649 OFFCURVE",
"522 659 OFFCURVE",
"522 670 CURVE SMOOTH",
"522 680 OFFCURVE",
"520 689 OFFCURVE",
"516 698 CURVE",
"507 715 OFFCURVE",
"489 727 OFFCURVE",
"464 727 CURVE SMOOTH"
);
}
);
width = 156;
}
);
note = f;
unicode = 0066;
},
{
glyphname = fi;
lastChange = "2017-06-04 11:33:48 +0000";
layers = (
{
layerId = "05073167-317C-430E-AA64-F7AF394C318F";
paths = (
{
closed = 1;
nodes = (
"325 376 OFFCURVE",
"303 351 OFFCURVE",
"284 326 CURVE SMOOTH",
"280 321 OFFCURVE",
"280 312 OFFCURVE",
"281 306 CURVE SMOOTH",
"282 300 OFFCURVE",
"286 295 OFFCURVE",
"290 299 CURVE",
"309 334 OFFCURVE",
"335 372 OFFCURVE",
"363 397 CURVE",
"366 400 OFFCURVE",
"360 404 OFFCURVE",
"356 403 CURVE"
);
},
{
closed = 1;
nodes = (
"397 725 OFFCURVE",
"331 678 OFFCURVE",
"271 595 CURVE SMOOTH",
"210 511 OFFCURVE",
"153 393 OFFCURVE",
"106 249 CURVE",
"99 249 OFFCURVE",
"93 249 OFFCURVE",
"88 249 CURVE",
"76 248 OFFCURVE",
"65 248 OFFCURVE",
"54 244 CURVE",
"42 239 OFFCURVE",
"33 233 OFFCURVE",
"30 228 CURVE",
"28 225 OFFCURVE",
"29 223 OFFCURVE",
"32 222 CURVE",
"43 224 OFFCURVE",
"54 226 OFFCURVE",
"66 227 CURVE SMOOTH",
"77 228 OFFCURVE",
"89 230 OFFCURVE",
"100 231 CURVE",
"99 228 OFFCURVE",
"98 225 OFFCURVE",
"97 223 CURVE",
"96 220 OFFCURVE",
"95 217 OFFCURVE",
"94 214 CURVE SMOOTH",
"35 23 OFFCURVE",
"-15 -86 OFFCURVE",
"-62 -147 CURVE SMOOTH",
"-110 -208 OFFCURVE",
"-156 -222 OFFCURVE",
"-204 -222 CURVE SMOOTH",
"-235 -222 OFFCURVE",
"-253 -212 OFFCURVE",
"-263 -199 CURVE",
"-273 -187 OFFCURVE",
"-274 -172 OFFCURVE",
"-269 -160 CURVE",
"-269 -156 OFFCURVE",
"-273 -153 OFFCURVE",
"-277 -156 CURVE",
"-285 -167 OFFCURVE",
"-291 -182 OFFCURVE",
"-291 -195 CURVE SMOOTH",
"-291 -220 OFFCURVE",
"-273 -244 OFFCURVE",
"-228 -244 CURVE SMOOTH",
"-164 -244 OFFCURVE",
"-102 -217 OFFCURVE",
"-42 -145 CURVE SMOOTH",
"18 -74 OFFCURVE",
"76 40 OFFCURVE",
"131 215 CURVE SMOOTH",
"132 218 OFFCURVE",
"133 222 OFFCURVE",
"134 225 CURVE SMOOTH",
"135 228 OFFCURVE",
"136 232 OFFCURVE",
"137 235 CURVE",
"188 239 OFFCURVE",
"235 240 OFFCURVE",
"259 240 CURVE",
"238 211 OFFCURVE",
"219 172 OFFCURVE",
"205 134 CURVE SMOOTH",
"191 96 OFFCURVE",
"182 58 OFFCURVE",
"182 33 CURVE SMOOTH",
"182 11 OFFCURVE",
"191 0 OFFCURVE",
"209 0 CURVE SMOOTH",
"232 0 OFFCURVE",
"261 29 OFFCURVE",
"285 58 CURVE",
"288 63 OFFCURVE",
"282 69 OFFCURVE",
"279 66 CURVE",
"260 45 OFFCURVE",
"249 31 OFFCURVE",
"234 31 CURVE SMOOTH",
"224 31 OFFCURVE",
"219 38 OFFCURVE",
"219 52 CURVE SMOOTH",
"219 80 OFFCURVE",
"232 124 OFFCURVE",
"251 171 CURVE SMOOTH",
"256 184 OFFCURVE",
"265 200 OFFCURVE",
"274 215 CURVE",
"282 230 OFFCURVE",
"290 243 OFFCURVE",
"294 247 CURVE",
"297 252 OFFCURVE",
"296 255 OFFCURVE",
"292 256 CURVE",
"289 255 OFFCURVE",
"283 255 OFFCURVE",
"274 254 CURVE",
"256 253 OFFCURVE",
"210 251 OFFCURVE",
"182 251 CURVE SMOOTH",
"168 251 OFFCURVE",
"155 251 OFFCURVE",
"142 250 CURVE",
"198 423 OFFCURVE",
"245 533 OFFCURVE",
"293 600 CURVE SMOOTH",
"340 667 OFFCURVE",
"384 690 OFFCURVE",
"435 690 CURVE SMOOTH",
"482 690 OFFCURVE",
"502 665 OFFCURVE",
"505 640 CURVE",
"508 634 OFFCURVE",
"511 633 OFFCURVE",
"515 637 CURVE",
"520 647 OFFCURVE",
"522 657 OFFCURVE",
"522 668 CURVE SMOOTH",
"522 678 OFFCURVE",
"520 687 OFFCURVE",
"516 696 CURVE",
"507 713 OFFCURVE",
"489 725 OFFCURVE",
"464 725 CURVE SMOOTH"
);
}
);
width = 297;
}
);
note = fi;
unicode = FB01;
},
{
glyphname = g;
lastChange = "2017-06-04 11:33:48 +0000";
layers = (
{
layerId = "05073167-317C-430E-AA64-F7AF394C318F";
paths = (
{
closed = 1;
nodes = (
"211 257 OFFCURVE",
"189 255 OFFCURVE",
"142 255 CURVE SMOOTH",
"110 255 OFFCURVE",
"84 234 OFFCURVE",
"65 206 CURVE SMOOTH",
"45 177 OFFCURVE",
"34 141 OFFCURVE",
"34 113 CURVE SMOOTH",
"34 70 OFFCURVE",
"50 49 OFFCURVE",
"83 49 CURVE SMOOTH",
"96 49 OFFCURVE",
"118 63 OFFCURVE",
"133 79 CURVE",
"132 76 OFFCURVE",
"130 73 OFFCURVE",
"129 71 CURVE",
"127 68 OFFCURVE",
"125 66 OFFCURVE",
"124 63 CURVE",
"100 20 OFFCURVE",
"95 -17 OFFCURVE",
"120 -60 CURVE SMOOTH",
"139 -91 OFFCURVE",
"148 -111 OFFCURVE",
"148 -142 CURVE SMOOTH",
"148 -194 OFFCURVE",
"118 -230 OFFCURVE",
"54 -230 CURVE SMOOTH",
"-22 -230 OFFCURVE",
"-73 -185 OFFCURVE",
"-73 -117 CURVE SMOOTH",
"-73 -81 OFFCURVE",
"-54 -61 OFFCURVE",
"-26 -50 CURVE",
"-22 -46 OFFCURVE",
"-24 -40 OFFCURVE",
"-31 -40 CURVE",
"-84 -55 OFFCURVE",
"-114 -86 OFFCURVE",
"-114 -126 CURVE SMOOTH",
"-114 -157 OFFCURVE",
"-100 -186 OFFCURVE",
"-74 -208 CURVE SMOOTH",
"-48 -230 OFFCURVE",
"-11 -245 OFFCURVE",
"36 -245 CURVE SMOOTH",
"81 -245 OFFCURVE",
"118 -231 OFFCURVE",
"143 -209 CURVE SMOOTH",
"168 -187 OFFCURVE",
"182 -158 OFFCURVE",
"182 -126 CURVE SMOOTH",
"182 -116 OFFCURVE",
"181 -107 OFFCURVE",
"180 -98 CURVE",
"176 -81 OFFCURVE",
"169 -64 OFFCURVE",
"159 -46 CURVE SMOOTH",
"149 -28 OFFCURVE",
"131 -1 OFFCURVE",
"131 21 CURVE",
"130 43 OFFCURVE",
"138 64 OFFCURVE",
"151 84 CURVE",
"157 94 OFFCURVE",
"163 105 OFFCURVE",
"169 116 CURVE SMOOTH",
"181 139 OFFCURVE",
"192 163 OFFCURVE",
"192 194 CURVE SMOOTH",
"192 210 OFFCURVE",
"189 223 OFFCURVE",
"183 233 CURVE",
"207 232 OFFCURVE",
"222 247 OFFCURVE",
"233 263 CURVE",
"236 268 OFFCURVE",
"230 273 OFFCURVE",
"226 270 CURVE"
);
},
{
closed = 1;
nodes = (
"135 87 OFFCURVE",
"116 77 OFFCURVE",
"101 77 CURVE SMOOTH",
"76 77 OFFCURVE",
"63 93 OFFCURVE",
"63 132 CURVE SMOOTH",
"63 191 OFFCURVE",
"88 224 OFFCURVE",
"120 224 CURVE SMOOTH",
"148 224 OFFCURVE",
"160 201 OFFCURVE",
"160 162 CURVE SMOOTH",
"160 142 OFFCURVE",
"154 122 OFFCURVE",
"146 103 CURVE"
);
}
);
width = 210;
}
);
note = g;
unicode = 0067;
},
{
glyphname = germandbls;
lastChange = "2017-06-04 11:33:48 +0000";
layers = (
{
layerId = "05073167-317C-430E-AA64-F7AF394C318F";
paths = (
{
closed = 1;
nodes = (
"493 581 OFFCURVE",
"485 554 OFFCURVE",
"470 530 CURVE SMOOTH",
"438 482 OFFCURVE",
"389 443 OFFCURVE",
"334 407 CURVE SMOOTH",
"306 389 OFFCURVE",
"280 371 OFFCURVE",
"257 352 CURVE SMOOTH",
"209 315 OFFCURVE",
"174 274 OFFCURVE",
"174 221 CURVE SMOOTH",
"174 188 OFFCURVE",
"190 160 OFFCURVE",
"206 136 CURVE SMOOTH",
"222 111 OFFCURVE",
"238 87 OFFCURVE",
"238 62 CURVE SMOOTH",
"238 33 OFFCURVE",
"219 12 OFFCURVE",
"184 12 CURVE SMOOTH",
"161 12 OFFCURVE",
"143 23 OFFCURVE",
"138 46 CURVE",
"135 57 OFFCURVE",
"142 72 OFFCURVE",
"153 83 CURVE",
"156 87 OFFCURVE",
"150 93 OFFCURVE",
"147 90 CURVE",
"128 75 OFFCURVE",
"111 46 OFFCURVE",
"111 34 CURVE SMOOTH",
"111 18 OFFCURVE",
"140 0 OFFCURVE",
"181 0 CURVE SMOOTH",
"242 0 OFFCURVE",
"272 33 OFFCURVE",
"272 76 CURVE SMOOTH",
"272 103 OFFCURVE",
"256 127 OFFCURVE",
"240 151 CURVE SMOOTH",
"224 175 OFFCURVE",
"208 199 OFFCURVE",
"208 230 CURVE SMOOTH",
"208 257 OFFCURVE",
"216 281 OFFCURVE",
"232 302 CURVE SMOOTH",
"264 345 OFFCURVE",
"315 381 OFFCURVE",
"371 418 CURVE SMOOTH",
"399 436 OFFCURVE",
"425 456 OFFCURVE",
"450 477 CURVE SMOOTH",
"498 520 OFFCURVE",
"534 570 OFFCURVE",
"534 639 CURVE SMOOTH",
"534 686 OFFCURVE",
"503 716 OFFCURVE",
"455 716 CURVE SMOOTH",
"382 716 OFFCURVE",
"308 675 OFFCURVE",
"243 592 CURVE SMOOTH",
"178 508 OFFCURVE",
"119 382 OFFCURVE",
"75 214 CURVE SMOOTH",
"27 34 OFFCURVE",
"-13 -74 OFFCURVE",
"-59 -137 CURVE SMOOTH",
"-105 -201 OFFCURVE",
"-155 -218 OFFCURVE",
"-220 -218 CURVE SMOOTH",
"-283 -218 OFFCURVE",
"-310 -196 OFFCURVE",
"-321 -167 CURVE",
"-324 -163 OFFCURVE",
"-328 -167 OFFCURVE",
"-328 -171 CURVE",
"-323 -219 OFFCURVE",
"-304 -244 OFFCURVE",
"-247 -244 CURVE SMOOTH",
"-175 -244 OFFCURVE",
"-107 -219 OFFCURVE",
"-46 -149 CURVE SMOOTH",
"15 -79 OFFCURVE",
"69 35 OFFCURVE",
"113 216 CURVE SMOOTH",
"153 381 OFFCURVE",
"199 498 OFFCURVE",
"251 573 CURVE SMOOTH",
"302 648 OFFCURVE",
"358 682 OFFCURVE",
"422 682 CURVE SMOOTH",
"469 682 OFFCURVE",
"493 656 OFFCURVE",
"493 612 CURVE SMOOTH"
);
}
);
width = 304;
}
);
note = germandbls;
unicode = 00DF;
},
{
glyphname = grave;
lastChange = "2017-06-04 11:33:48 +0000";
layers = (
{
layerId = "05073167-317C-430E-AA64-F7AF394C318F";
paths = (
{
closed = 1;
nodes = (
"110 344 OFFCURVE",
"82 366 OFFCURVE",
"63 385 CURVE",
"59 388 OFFCURVE",
"35 382 OFFCURVE",
"23 371 CURVE",
"19 367 OFFCURVE",
"19 364 OFFCURVE",
"23 363 CURVE",
"50 346 OFFCURVE",
"93 327 OFFCURVE",
"126 316 CURVE",
"133 317 OFFCURVE",
"137 322 OFFCURVE",
"134 325 CURVE"
);
}
);
width = 155;
}
);
note = grave;
unicode = 0060;
},
{
glyphname = guillemotleft;
lastChange = "2017-06-04 11:33:48 +0000";
layers = (
{
layerId = "05073167-317C-430E-AA64-F7AF394C318F";
paths = (
{
closed = 1;
nodes = (
"136 214 OFFCURVE",
"76 166 OFFCURVE",
"25 121 CURVE SMOOTH",
"18 115 OFFCURVE",
"17 109 OFFCURVE",
"23 104 CURVE SMOOTH",
"51 81 OFFCURVE",
"89 42 OFFCURVE",
"114 3 CURVE",
"122 0 OFFCURVE",
"128 6 OFFCURVE",
"132 14 CURVE SMOOTH",
"136 22 OFFCURVE",
"137 33 OFFCURVE",
"136 38 CURVE",
"117 65 OFFCURVE",
"83 100 OFFCURVE",
"55 123 CURVE",
"68 136 OFFCURVE",
"94 158 OFFCURVE",
"121 179 CURVE SMOOTH",
"148 199 OFFCURVE",
"175 221 OFFCURVE",
"194 233 CURVE",
"205 241 OFFCURVE",
"200 254 OFFCURVE",
"191 251 CURVE"
);
},
{
closed = 1;
nodes = (
"236 214 OFFCURVE",
"176 166 OFFCURVE",
"125 121 CURVE SMOOTH",
"118 115 OFFCURVE",
"117 109 OFFCURVE",
"123 104 CURVE SMOOTH",
"151 81 OFFCURVE",
"189 42 OFFCURVE",
"214 3 CURVE",
"222 0 OFFCURVE",
"228 6 OFFCURVE",
"232 14 CURVE SMOOTH",
"236 22 OFFCURVE",
"237 33 OFFCURVE",
"236 38 CURVE",
"217 65 OFFCURVE",
"183 100 OFFCURVE",
"155 123 CURVE",
"168 136 OFFCURVE",
"194 158 OFFCURVE",
"221 179 CURVE SMOOTH",
"248 199 OFFCURVE",
"275 221 OFFCURVE",
"294 233 CURVE",
"305 241 OFFCURVE",
"300 254 OFFCURVE",
"291 251 CURVE"
);
},
{
closed = 1;
nodes = (
"236 214 OFFCURVE",
"176 166 OFFCURVE",
"125 121 CURVE SMOOTH",
"118 115 OFFCURVE",
"117 109 OFFCURVE",
"123 104 CURVE SMOOTH",
"151 81 OFFCURVE",
"189 42 OFFCURVE",
"214 3 CURVE",
"222 0 OFFCURVE",
"228 6 OFFCURVE",
"232 14 CURVE SMOOTH",
"236 22 OFFCURVE",
"237 33 OFFCURVE",
"236 38 CURVE",
"217 65 OFFCURVE",
"183 100 OFFCURVE",
"155 123 CURVE",
"168 136 OFFCURVE",
"194 158 OFFCURVE",
"221 179 CURVE SMOOTH",
"248 199 OFFCURVE",
"275 221 OFFCURVE",
"294 233 CURVE",
"305 241 OFFCURVE",
"300 254 OFFCURVE",
"291 251 CURVE"
);
}
);
width = 289;
}
);
note = guillemotleft;
unicode = 00AB;
},
{
glyphname = guillemotright;
lastChange = "2017-06-04 11:33:48 +0000";
layers = (
{
layerId = "05073167-317C-430E-AA64-F7AF394C318F";
paths = (
{
closed = 1;
nodes = (
"33 44 OFFCURVE",
"96 96 OFFCURVE",
"151 133 CURVE",
"156 137 OFFCURVE",
"157 146 OFFCURVE",
"153 150 CURVE",
"124 173 OFFCURVE",
"91 214 OFFCURVE",
"71 251 CURVE",
"66 255 OFFCURVE",
"57 253 OFFCURVE",
"49 249 CURVE",
"41 244 OFFCURVE",
"34 236 OFFCURVE",
"37 231 CURVE SMOOTH",
"46 216 OFFCURVE",
"59 197 OFFCURVE",
"75 178 CURVE SMOOTH",
"90 159 OFFCURVE",
"105 143 OFFCURVE",
"120 132 CURVE",
"111 125 OFFCURVE",
"100 116 OFFCURVE",
"88 107 CURVE SMOOTH",
"76 98 OFFCURVE",
"64 88 OFFCURVE",
"51 78 CURVE",
"26 57 OFFCURVE",
"1 37 OFFCURVE",
"-15 22 CURVE SMOOTH",
"-26 11 OFFCURVE",
"-19 0 OFFCURVE",
"-11 3 CURVE"
);
},
{
closed = 1;
nodes = (
"133 44 OFFCURVE",
"196 96 OFFCURVE",
"251 133 CURVE",
"256 137 OFFCURVE",
"257 146 OFFCURVE",
"253 150 CURVE",
"224 173 OFFCURVE",
"191 214 OFFCURVE",
"171 251 CURVE",
"166 255 OFFCURVE",
"157 253 OFFCURVE",
"149 249 CURVE",
"141 244 OFFCURVE",
"134 236 OFFCURVE",
"137 231 CURVE SMOOTH",
"146 216 OFFCURVE",
"159 197 OFFCURVE",
"175 178 CURVE SMOOTH",
"190 159 OFFCURVE",
"205 143 OFFCURVE",
"220 132 CURVE",
"211 125 OFFCURVE",
"200 116 OFFCURVE",
"188 107 CURVE SMOOTH",
"176 98 OFFCURVE",
"164 88 OFFCURVE",
"151 78 CURVE",
"126 57 OFFCURVE",
"101 37 OFFCURVE",
"85 22 CURVE SMOOTH",
"74 11 OFFCURVE",
"81 0 OFFCURVE",
"89 3 CURVE"
);
}
);
width = 276;
}
);
note = guillemotright;
unicode = 00BB;
},
{
glyphname = h;
lastChange = "2017-06-04 11:33:48 +0000";
layers = (
{
layerId = "05073167-317C-430E-AA64-F7AF394C318F";
paths = (
{
closed = 1;
nodes = (
"24 3 OFFCURVE",
"27 0 OFFCURVE",
"34 0 CURVE SMOOTH",
"45 0 OFFCURVE",
"58 6 OFFCURVE",
"61 15 CURVE SMOOTH",
"82 79 OFFCURVE",
"110 131 OFFCURVE",
"139 167 CURVE SMOOTH",
"168 203 OFFCURVE",
"197 222 OFFCURVE",
"221 222 CURVE SMOOTH",
"228 222 OFFCURVE",
"232 219 OFFCURVE",
"232 213 CURVE SMOOTH",
"232 208 OFFCURVE",
"230 203 OFFCURVE",
"226 196 CURVE",
"203 152 OFFCURVE",
"185 90 OFFCURVE",
"185 42 CURVE SMOOTH",
"185 14 OFFCURVE",
"193 0 OFFCURVE",
"210 0 CURVE SMOOTH",
"222 0 OFFCURVE",
"238 7 OFFCURVE",
"252 19 CURVE",
"266 30 OFFCURVE",
"278 43 OFFCURVE",
"286 55 CURVE",
"287 60 OFFCURVE",
"282 65 OFFCURVE",
"278 62 CURVE",
"266 45 OFFCURVE",
"249 28 OFFCURVE",
"236 28 CURVE SMOOTH",
"225 28 OFFCURVE",
"221 41 OFFCURVE",
"221 60 CURVE SMOOTH",
"221 103 OFFCURVE",
"241 158 OFFCURVE",
"269 207 CURVE SMOOTH",
"275 218 OFFCURVE",
"278 227 OFFCURVE",
"278 236 CURVE SMOOTH",
"278 247 OFFCURVE",
"270 256 OFFCURVE",
"254 256 CURVE SMOOTH",
"226 256 OFFCURVE",
"195 240 OFFCURVE",
"166 213 CURVE SMOOTH",
"137 186 OFFCURVE",
"107 148 OFFCURVE",
"86 107 CURVE",
"145 319 OFFCURVE",
"209 473 OFFCURVE",
"274 575 CURVE SMOOTH",
"339 677 OFFCURVE",
"405 725 OFFCURVE",
"468 725 CURVE SMOOTH",
"515 725 OFFCURVE",
"536 696 OFFCURVE",
"531 669 CURVE",
"531 664 OFFCURVE",
"536 662 OFFCURVE",
"539 666 CURVE SMOOTH",
"555 686 OFFCURVE",
"558 709 OFFCURVE",
"551 726 CURVE",
"543 743 OFFCURVE",
"523 756 OFFCURVE",
"494 756 CURVE SMOOTH",
"414 756 OFFCURVE",
"327 683 OFFCURVE",
"245 554 CURVE SMOOTH",
"163 425 OFFCURVE",
"86 238 OFFCURVE",
"26 9 CURVE"
);
}
);
width = 292;
}
);
note = h;
unicode = 0068;
},
{
glyphname = hyphen;
lastChange = "2017-06-04 11:33:48 +0000";
layers = (
{
layerId = "05073167-317C-430E-AA64-F7AF394C318F";
paths = (
{
closed = 1;
nodes = (
"50 158 OFFCURVE",
"44 154 OFFCURVE",
"39 149 CURVE",
"34 143 OFFCURVE",
"34 139 OFFCURVE",
"39 138 CURVE",
"48 139 OFFCURVE",
"59 139 OFFCURVE",
"72 140 CURVE",
"85 140 OFFCURVE",
"99 140 OFFCURVE",
"114 141 CURVE SMOOTH",
"142 142 OFFCURVE",
"173 143 OFFCURVE",
"197 143 CURVE",
"206 144 OFFCURVE",
"215 151 OFFCURVE",
"220 157 CURVE",
"224 163 OFFCURVE",
"226 169 OFFCURVE",
"221 170 CURVE",
"210 170 OFFCURVE",
"197 170 OFFCURVE",
"182 169 CURVE SMOOTH",
"152 168 OFFCURVE",
"120 166 OFFCURVE",
"93 163 CURVE",
"79 162 OFFCURVE",
"68 161 OFFCURVE",
"59 160 CURVE"
);
}
);
width = 245;
}
);
note = hyphen;
unicode = 002D;
},
{
glyphname = i;
lastChange = "2017-06-04 11:33:48 +0000";
layers = (
{
layerId = "05073167-317C-430E-AA64-F7AF394C318F";
paths = (
{
closed = 1;
nodes = (
"63 197 OFFCURVE",
"89 216 OFFCURVE",
"104 227 CURVE",
"88 203 OFFCURVE",
"70 168 OFFCURVE",
"57 132 CURVE SMOOTH",
"44 96 OFFCURVE",
"34 58 OFFCURVE",
"34 33 CURVE SMOOTH",
"34 11 OFFCURVE",
"43 0 OFFCURVE",
"60 0 CURVE SMOOTH",
"84 0 OFFCURVE",
"113 29 OFFCURVE",
"137 58 CURVE",
"140 63 OFFCURVE",
"134 69 OFFCURVE",
"131 66 CURVE",
"112 45 OFFCURVE",
"100 31 OFFCURVE",
"85 31 CURVE SMOOTH",
"76 31 OFFCURVE",
"71 38 OFFCURVE",
"71 52 CURVE SMOOTH",
"71 73 OFFCURVE",
"80 108 OFFCURVE",
"93 144 CURVE SMOOTH",
"105 179 OFFCURVE",
"123 216 OFFCURVE",
"140 247 CURVE",
"140 253 OFFCURVE",
"137 256 OFFCURVE",
"132 256 CURVE",
"100 240 OFFCURVE",
"65 213 OFFCURVE",
"46 194 CURVE",
"43 190 OFFCURVE",
"48 183 OFFCURVE",
"52 186 CURVE"
);
},
{
closed = 1;
nodes = (
"161 334 OFFCURVE",
"187 372 OFFCURVE",
"215 397 CURVE",
"218 400 OFFCURVE",
"212 404 OFFCURVE",
"208 403 CURVE",
"177 376 OFFCURVE",
"152 350 OFFCURVE",
"135 326 CURVE SMOOTH",
"133 323 OFFCURVE",
"132 320 OFFCURVE",
"132 316 CURVE SMOOTH",
"132 312 OFFCURVE",
"132 309 OFFCURVE",
"133 306 CURVE",
"134 300 OFFCURVE",
"138 295 OFFCURVE",
"142 299 CURVE"
);
}
);
width = 149;
}
);
note = i;
unicode = 0069;
},
{
glyphname = j;
lastChange = "2017-06-04 11:33:48 +0000";
layers = (
{
layerId = "05073167-317C-430E-AA64-F7AF394C318F";
paths = (
{
closed = 1;
nodes = (
"40 44 OFFCURVE",
"-6 -67 OFFCURVE",
"-56 -133 CURVE SMOOTH",
"-106 -199 OFFCURVE",
"-158 -222 OFFCURVE",
"-211 -222 CURVE SMOOTH",
"-243 -222 OFFCURVE",
"-263 -213 OFFCURVE",
"-275 -199 CURVE SMOOTH",
"-287 -185 OFFCURVE",
"-290 -168 OFFCURVE",
"-286 -148 CURVE",
"-287 -143 OFFCURVE",
"-292 -144 OFFCURVE",
"-295 -147 CURVE",
"-310 -206 OFFCURVE",
"-290 -245 OFFCURVE",
"-243 -245 CURVE SMOOTH",
"-172 -245 OFFCURVE",
"-103 -215 OFFCURVE",
"-39 -138 CURVE SMOOTH",
"25 -62 OFFCURVE",
"82 61 OFFCURVE",
"129 246 CURVE",
"130 252 OFFCURVE",
"128 255 OFFCURVE",
"121 255 CURVE",
"90 240 OFFCURVE",
"56 214 OFFCURVE",
"37 195 CURVE",
"36 191 OFFCURVE",
"38 186 OFFCURVE",
"43 187 CURVE",
"55 200 OFFCURVE",
"69 210 OFFCURVE",
"84 221 CURVE"
);
},
{
closed = 1;
nodes = (
"152 333 OFFCURVE",
"177 371 OFFCURVE",
"205 396 CURVE",
"208 399 OFFCURVE",
"202 404 OFFCURVE",
"198 401 CURVE",
"167 374 OFFCURVE",
"145 351 OFFCURVE",
"126 324 CURVE SMOOTH",
"118 313 OFFCURVE",
"125 291 OFFCURVE",
"133 298 CURVE"
);
}
);
width = 136;
}
);
note = j;
unicode = 006A;
},
{
glyphname = k;
lastChange = "2017-06-04 11:33:48 +0000";
layers = (
{
layerId = "05073167-317C-430E-AA64-F7AF394C318F";
paths = (
{
closed = 1;
nodes = (
"204 139 OFFCURVE",
"250 174 OFFCURVE",
"250 217 CURVE SMOOTH",
"250 237 OFFCURVE",
"235 256 OFFCURVE",
"212 256 CURVE SMOOTH",
"159 256 OFFCURVE",
"121 219 OFFCURVE",
"92 162 CURVE",
"141 358 OFFCURVE",
"205 499 OFFCURVE",
"272 591 CURVE SMOOTH",
"339 683 OFFCURVE",
"406 726 OFFCURVE",
"465 726 CURVE SMOOTH",
"512 726 OFFCURVE",
"531 695 OFFCURVE",
"524 668 CURVE",
"525 663 OFFCURVE",
"528 662 OFFCURVE",
"533 665 CURVE",
"549 686 OFFCURVE",
"552 709 OFFCURVE",
"545 726 CURVE",
"537 743 OFFCURVE",
"517 756 OFFCURVE",
"488 756 CURVE SMOOTH",
"408 756 OFFCURVE",
"313 681 OFFCURVE",
"228 550 CURVE SMOOTH",
"143 418 OFFCURVE",
"67 232 OFFCURVE",
"26 9 CURVE",
"24 3 OFFCURVE",
"26 0 OFFCURVE",
"31 0 CURVE SMOOTH",
"37 0 OFFCURVE",
"44 2 OFFCURVE",
"52 6 CURVE",
"61 10 OFFCURVE",
"62 14 OFFCURVE",
"65 25 CURVE",
"69 44 OFFCURVE",
"76 74 OFFCURVE",
"81 97 CURVE SMOOTH",
"101 184 OFFCURVE",
"145 229 OFFCURVE",
"190 229 CURVE SMOOTH",
"207 229 OFFCURVE",
"215 221 OFFCURVE",
"215 204 CURVE SMOOTH",
"215 183 OFFCURVE",
"203 165 OFFCURVE",
"184 154 CURVE SMOOTH",
"165 143 OFFCURVE",
"140 138 OFFCURVE",
"116 143 CURVE",
"112 142 OFFCURVE",
"110 138 OFFCURVE",
"111 133 CURVE SMOOTH",
"127 46 OFFCURVE",
"150 0 OFFCURVE",
"193 0 CURVE SMOOTH",
"222 0 OFFCURVE",
"242 15 OFFCURVE",
"261 39 CURVE",
"262 43 OFFCURVE",
"259 48 OFFCURVE",
"255 45 CURVE",
"240 26 OFFCURVE",
"229 21 OFFCURVE",
"214 21 CURVE SMOOTH",
"181 21 OFFCURVE",
"159 60 OFFCURVE",
"144 131 CURVE"
);
}
);
width = 259;
}
);
note = k;
unicode = 006B;
},
{
glyphname = l;
lastChange = "2017-06-04 11:33:48 +0000";
layers = (
{
layerId = "05073167-317C-430E-AA64-F7AF394C318F";
paths = (
{
closed = 1;
nodes = (
"395 743 OFFCURVE",
"347 709 OFFCURVE",
"300 654 CURVE SMOOTH",
"252 599 OFFCURVE",
"207 525 OFFCURVE",
"167 446 CURVE SMOOTH",
"127 367 OFFCURVE",
"92 284 OFFCURVE",
"68 211 CURVE SMOOTH",
"44 138 OFFCURVE",
"30 76 OFFCURVE",
"30 39 CURVE SMOOTH",
"30 15 OFFCURVE",
"42 0 OFFCURVE",
"59 0 CURVE SMOOTH",
"82 0 OFFCURVE",
"117 29 OFFCURVE",
"144 70 CURVE",
"145 75 OFFCURVE",
"141 80 OFFCURVE",
"137 77 CURVE",
"117 50 OFFCURVE",
"103 37 OFFCURVE",
"87 37 CURVE SMOOTH",
"76 37 OFFCURVE",
"70 47 OFFCURVE",
"70 67 CURVE SMOOTH",
"70 119 OFFCURVE",
"90 208 OFFCURVE",
"123 302 CURVE SMOOTH",
"155 396 OFFCURVE",
"201 495 OFFCURVE",
"253 572 CURVE SMOOTH",
"305 648 OFFCURVE",
"362 701 OFFCURVE",
"419 701 CURVE SMOOTH",
"448 701 OFFCURVE",
"463 689 OFFCURVE",
"460 673 CURVE",
"461 669 OFFCURVE",
"466 665 OFFCURVE",
"469 668 CURVE",
"488 704 OFFCURVE",
"477 743 OFFCURVE",
"442 743 CURVE SMOOTH"
);
}
);
width = 134;
}
);
note = l;
unicode = 006C;
},
{
glyphname = m;
lastChange = "2017-06-04 11:33:48 +0000";
layers = (
{
layerId = "05073167-317C-430E-AA64-F7AF394C318F";
paths = (
{
closed = 1;
nodes = (
"356 191 OFFCURVE",
"345 164 OFFCURVE",
"334 134 CURVE SMOOTH",
"322 104 OFFCURVE",
"311 70 OFFCURVE",
"311 38 CURVE SMOOTH",
"311 13 OFFCURVE",
"319 0 OFFCURVE",
"334 0 CURVE SMOOTH",
"347 0 OFFCURVE",
"363 8 OFFCURVE",
"376 20 CURVE SMOOTH",
"388 31 OFFCURVE",
"401 44 OFFCURVE",
"409 55 CURVE",
"412 60 OFFCURVE",
"407 66 OFFCURVE",
"404 63 CURVE",
"385 41 OFFCURVE",
"371 30 OFFCURVE",
"360 30 CURVE SMOOTH",
"350 30 OFFCURVE",
"345 38 OFFCURVE",
"345 55 CURVE SMOOTH",
"345 82 OFFCURVE",
"357 112 OFFCURVE",
"369 143 CURVE SMOOTH",
"381 174 OFFCURVE",
"393 203 OFFCURVE",
"393 227 CURVE SMOOTH",
"393 244 OFFCURVE",
"383 256 OFFCURVE",
"368 256 CURVE SMOOTH",
"323 256 OFFCURVE",
"275 213 OFFCURVE",
"235 137 CURVE",
"246 166 OFFCURVE",
"251 194 OFFCURVE",
"251 222 CURVE SMOOTH",
"251 243 OFFCURVE",
"240 256 OFFCURVE",
"224 256 CURVE SMOOTH",
"183 256 OFFCURVE",
"139 211 OFFCURVE",
"104 144 CURVE",
"113 169 OFFCURVE",
"118 193 OFFCURVE",
"125 222 CURVE SMOOTH",
"129 241 OFFCURVE",
"125 256 OFFCURVE",
"108 256 CURVE SMOOTH",
"83 256 OFFCURVE",
"57 228 OFFCURVE",
"37 200 CURVE SMOOTH",
"34 196 OFFCURVE",
"40 191 OFFCURVE",
"44 194 CURVE",
"59 214 OFFCURVE",
"74 231 OFFCURVE",
"85 231 CURVE SMOOTH",
"92 231 OFFCURVE",
"93 225 OFFCURVE",
"90 213 CURVE SMOOTH",
"83 182 OFFCURVE",
"73 147 OFFCURVE",
"61 111 CURVE SMOOTH",
"49 75 OFFCURVE",
"37 38 OFFCURVE",
"26 9 CURVE",
"23 2 OFFCURVE",
"28 0 OFFCURVE",
"35 0 CURVE SMOOTH",
"46 0 OFFCURVE",
"56 5 OFFCURVE",
"59 13 CURVE SMOOTH",
"83 83 OFFCURVE",
"108 137 OFFCURVE",
"135 174 CURVE SMOOTH",
"162 211 OFFCURVE",
"184 230 OFFCURVE",
"201 230 CURVE SMOOTH",
"212 230 OFFCURVE",
"218 221 OFFCURVE",
"218 202 CURVE SMOOTH",
"218 193 OFFCURVE",
"216 180 OFFCURVE",
"211 163 CURVE SMOOTH",
"202 130 OFFCURVE",
"189 90 OFFCURVE",
"175 54 CURVE SMOOTH",
"168 36 OFFCURVE",
"162 21 OFFCURVE",
"158 9 CURVE SMOOTH",
"156 3 OFFCURVE",
"159 0 OFFCURVE",
"167 0 CURVE SMOOTH",
"178 0 OFFCURVE",
"191 5 OFFCURVE",
"194 13 CURVE SMOOTH",
"218 81 OFFCURVE",
"245 136 OFFCURVE",
"271 173 CURVE SMOOTH",
"297 210 OFFCURVE",
"321 231 OFFCURVE",
"341 231 CURVE SMOOTH",
"351 231 OFFCURVE",
"356 224 OFFCURVE",
"356 210 CURVE SMOOTH"
);
}
);
width = 413;
}
);
note = m;
unicode = 006D;
},
{
glyphname = n;
lastChange = "2017-06-04 11:33:48 +0000";
layers = (
{
layerId = "05073167-317C-430E-AA64-F7AF394C318F";
paths = (
{
closed = 1;
nodes = (
"265 41 OFFCURVE",
"249 29 OFFCURVE",
"235 29 CURVE SMOOTH",
"224 29 OFFCURVE",
"219 37 OFFCURVE",
"219 54 CURVE SMOOTH",
"219 101 OFFCURVE",
"241 159 OFFCURVE",
"269 210 CURVE",
"273 219 OFFCURVE",
"275 227 OFFCURVE",
"275 236 CURVE SMOOTH",
"275 247 OFFCURVE",
"266 256 OFFCURVE",
"250 256 CURVE SMOOTH",
"226 256 OFFCURVE",
"198 242 OFFCURVE",
"171 219 CURVE SMOOTH",
"143 196 OFFCURVE",
"117 163 OFFCURVE",
"98 127 CURVE",
"103 143 OFFCURVE",
"108 159 OFFCURVE",
"113 176 CURVE SMOOTH",
"122 208 OFFCURVE",
"140 256 OFFCURVE",
"107 256 CURVE SMOOTH",
"78 256 OFFCURVE",
"51 226 OFFCURVE",
"36 203 CURVE",
"35 199 OFFCURVE",
"39 193 OFFCURVE",
"42 196 CURVE",
"57 217 OFFCURVE",
"70 232 OFFCURVE",
"83 232 CURVE SMOOTH",
"90 232 OFFCURVE",
"93 226 OFFCURVE",
"90 213 CURVE SMOOTH",
"71 142 OFFCURVE",
"45 66 OFFCURVE",
"22 9 CURVE",
"20 3 OFFCURVE",
"23 0 OFFCURVE",
"30 0 CURVE SMOOTH",
"41 0 OFFCURVE",
"55 5 OFFCURVE",
"58 13 CURVE SMOOTH",
"83 86 OFFCURVE",
"111 139 OFFCURVE",
"141 173 CURVE SMOOTH",
"170 207 OFFCURVE",
"197 224 OFFCURVE",
"222 224 CURVE SMOOTH",
"229 224 OFFCURVE",
"232 220 OFFCURVE",
"232 213 CURVE SMOOTH",
"232 208 OFFCURVE",
"231 204 OFFCURVE",
"228 199 CURVE",
"200 143 OFFCURVE",
"183 85 OFFCURVE",
"183 40 CURVE SMOOTH",
"183 13 OFFCURVE",
"193 0 OFFCURVE",
"214 0 CURVE SMOOTH",
"238 0 OFFCURVE",
"267 27 OFFCURVE",
"290 58 CURVE",
"291 63 OFFCURVE",
"286 67 OFFCURVE",
"282 64 CURVE"
);
}
);
width = 291;
}
);
note = n;
unicode = 006E;
},
{
glyphname = o;
lastChange = "2017-06-04 11:33:48 +0000";
layers = (
{
layerId = "05073167-317C-430E-AA64-F7AF394C318F";
paths = (
{
closed = 1;
nodes = (
"127 256 OFFCURVE",
"95 229 OFFCURVE",
"71 193 CURVE SMOOTH",
"46 156 OFFCURVE",
"30 110 OFFCURVE",
"30 73 CURVE SMOOTH",
"30 26 OFFCURVE",
"50 0 OFFCURVE",
"82 0 CURVE SMOOTH",
"109 0 OFFCURVE",
"142 25 OFFCURVE",
"169 62 CURVE SMOOTH",
"196 98 OFFCURVE",
"215 146 OFFCURVE",
"215 191 CURVE SMOOTH",
"215 230 OFFCURVE",
"198 256 OFFCURVE",
"162 256 CURVE SMOOTH"
);
},
{
closed = 1;
nodes = (
"75 31 OFFCURVE",
"62 52 OFFCURVE",
"62 94 CURVE SMOOTH",
"62 129 OFFCURVE",
"71 161 OFFCURVE",
"85 185 CURVE SMOOTH",
"99 208 OFFCURVE",
"118 223 OFFCURVE",
"138 223 CURVE SMOOTH",
"169 223 OFFCURVE",
"181 198 OFFCURVE",
"181 158 CURVE SMOOTH",
"181 125 OFFCURVE",
"172 93 OFFCURVE",
"157 70 CURVE SMOOTH",
"142 46 OFFCURVE",
"122 31 OFFCURVE",
"102 31 CURVE SMOOTH"
);
}
);
width = 225;
}
);
note = o;
unicode = 006F;
},
{
glyphname = oe;
lastChange = "2017-06-04 11:33:48 +0000";
layers = (
{
layerId = "05073167-317C-430E-AA64-F7AF394C318F";
paths = (
{
closed = 1;
nodes = (
"345 234 OFFCURVE",
"325 254 OFFCURVE",
"300 254 CURVE SMOOTH",
"265 254 OFFCURVE",
"234 228 OFFCURVE",
"210 192 CURVE",
"209 228 OFFCURVE",
"197 255 OFFCURVE",
"162 255 CURVE SMOOTH",
"127 255 OFFCURVE",
"94 228 OFFCURVE",
"70 192 CURVE SMOOTH",
"46 155 OFFCURVE",
"30 109 OFFCURVE",
"30 72 CURVE SMOOTH",
"30 25 OFFCURVE",
"50 0 OFFCURVE",
"82 0 CURVE SMOOTH",
"109 0 OFFCURVE",
"142 25 OFFCURVE",
"169 62 CURVE",
"170 21 OFFCURVE",
"193 -2 OFFCURVE",
"228 -2 CURVE SMOOTH",
"265 -2 OFFCURVE",
"301 23 OFFCURVE",
"324 54 CURVE",
"327 59 OFFCURVE",
"323 66 OFFCURVE",
"318 63 CURVE",
"299 40 OFFCURVE",
"276 26 OFFCURVE",
"249 26 CURVE SMOOTH",
"222 26 OFFCURVE",
"207 50 OFFCURVE",
"207 85 CURVE SMOOTH",
"207 94 OFFCURVE",
"207 102 OFFCURVE",
"207 109 CURVE SMOOTH",
"207 116 OFFCURVE",
"208 123 OFFCURVE",
"209 130 CURVE",
"245 139 OFFCURVE",
"279 150 OFFCURVE",
"304 163 CURVE SMOOTH",
"328 176 OFFCURVE",
"345 192 OFFCURVE",
"345 211 CURVE SMOOTH"
);
},
{
closed = 1;
nodes = (
"295 228 OFFCURVE",
"305 214 OFFCURVE",
"305 197 CURVE SMOOTH",
"305 172 OFFCURVE",
"274 155 OFFCURVE",
"212 145 CURVE",
"223 202 OFFCURVE",
"248 228 OFFCURVE",
"279 228 CURVE SMOOTH"
);
},
{
closed = 1;
nodes = (
"75 30 OFFCURVE",
"62 51 OFFCURVE",
"62 93 CURVE SMOOTH",
"62 128 OFFCURVE",
"71 160 OFFCURVE",
"85 184 CURVE SMOOTH",
"99 208 OFFCURVE",
"118 223 OFFCURVE",
"138 223 CURVE SMOOTH",
"169 223 OFFCURVE",
"181 197 OFFCURVE",
"181 157 CURVE SMOOTH",
"181 125 OFFCURVE",
"172 93 OFFCURVE",
"157 69 CURVE SMOOTH",
"142 45 OFFCURVE",
"122 30 OFFCURVE",
"101 30 CURVE SMOOTH"
);
}
);
width = 345;
}
);
note = oe;
unicode = 0153;
},
{
glyphname = oslash;
lastChange = "2017-06-04 11:33:48 +0000";
layers = (
{
layerId = "05073167-317C-430E-AA64-F7AF394C318F";
paths = (
{
closed = 1;
nodes = (
"215 270 OFFCURVE",
"204 256 OFFCURVE",
"195 245 CURVE",
"186 252 OFFCURVE",
"175 256 OFFCURVE",
"162 256 CURVE SMOOTH",
"127 256 OFFCURVE",
"95 229 OFFCURVE",
"71 193 CURVE SMOOTH",
"46 156 OFFCURVE",
"30 110 OFFCURVE",
"30 73 CURVE SMOOTH",
"30 54 OFFCURVE",
"33 39 OFFCURVE",
"39 28 CURVE",
"30 15 OFFCURVE",
"21 2 OFFCURVE",
"10 -14 CURVE",
"7 -22 OFFCURVE",
"18 -26 OFFCURVE",
"26 -17 CURVE",
"34 -6 OFFCURVE",
"41 4 OFFCURVE",
"48 15 CURVE",
"57 5 OFFCURVE",
"68 0 OFFCURVE",
"82 0 CURVE SMOOTH",
"110 0 OFFCURVE",
"142 25 OFFCURVE",
"169 62 CURVE SMOOTH",
"196 98 OFFCURVE",
"215 146 OFFCURVE",
"215 191 CURVE SMOOTH",
"215 208 OFFCURVE",
"212 222 OFFCURVE",
"205 233 CURVE",
"210 240 OFFCURVE",
"216 248 OFFCURVE",
"222 255 CURVE SMOOTH",
"228 262 OFFCURVE",
"234 271 OFFCURVE",
"241 280 CURVE",
"245 289 OFFCURVE",
"234 292 OFFCURVE",
"226 285 CURVE"
);
},
{
closed = 1;
nodes = (
"63 129 OFFCURVE",
"72 161 OFFCURVE",
"86 185 CURVE SMOOTH",
"100 208 OFFCURVE",
"119 223 OFFCURVE",
"139 223 CURVE SMOOTH",
"152 223 OFFCURVE",
"162 218 OFFCURVE",
"169 209 CURVE",
"145 177 OFFCURVE",
"129 154 OFFCURVE",
"114 133 CURVE SMOOTH",
"98 112 OFFCURVE",
"84 92 OFFCURVE",
"65 65 CURVE",
"64 73 OFFCURVE",
"63 83 OFFCURVE",
"63 94 CURVE SMOOTH"
);
},
{
closed = 1;
nodes = (
"181 125 OFFCURVE",
"172 93 OFFCURVE",
"157 70 CURVE SMOOTH",
"142 46 OFFCURVE",
"123 31 OFFCURVE",
"102 31 CURVE SMOOTH",
"88 31 OFFCURVE",
"78 37 OFFCURVE",
"71 49 CURVE",
"81 63 OFFCURVE",
"90 76 OFFCURVE",
"99 88 CURVE",
"115 112 OFFCURVE",
"131 134 OFFCURVE",
"148 157 CURVE",
"157 168 OFFCURVE",
"166 181 OFFCURVE",
"176 194 CURVE",
"179 183 OFFCURVE",
"181 171 OFFCURVE",
"181 158 CURVE SMOOTH"
);
}
);
width = 225;
}
);
note = oslash;
unicode = 00F8;
},
{
glyphname = p;
lastChange = "2017-06-04 11:33:48 +0000";
layers = (
{
layerId = "05073167-317C-430E-AA64-F7AF394C318F";
paths = (
{
closed = 1;
nodes = (
"179 255 OFFCURVE",
"141 223 OFFCURVE",
"104 167 CURVE",
"119 196 OFFCURVE",
"132 228 OFFCURVE",
"140 251 CURVE",
"148 270 OFFCURVE",
"144 282 OFFCURVE",
"133 282 CURVE SMOOTH",
"122 282 OFFCURVE",
"108 273 OFFCURVE",
"94 262 CURVE",
"80 250 OFFCURVE",
"65 237 OFFCURVE",
"57 228 CURVE",
"56 225 OFFCURVE",
"60 218 OFFCURVE",
"63 221 CURVE",
"68 227 OFFCURVE",
"74 232 OFFCURVE",
"80 237 CURVE",
"92 246 OFFCURVE",
"107 257 OFFCURVE",
"109 245 CURVE SMOOTH",
"110 238 OFFCURVE",
"104 221 OFFCURVE",
"91 193 CURVE SMOOTH",
"71 148 OFFCURVE",
"50 99 OFFCURVE",
"33 51 CURVE",
"22 48 OFFCURVE",
"17 45 OFFCURVE",
"18 42 CURVE",
"19 37 OFFCURVE",
"21 32 OFFCURVE",
"24 28 CURVE",
"-11 -68 OFFCURVE",
"-34 -161 OFFCURVE",
"-34 -229 CURVE SMOOTH",
"-34 -241 OFFCURVE",
"-27 -245 OFFCURVE",
"-16 -245 CURVE SMOOTH",
"9 -245 OFFCURVE",
"41 -233 OFFCURVE",
"57 -224 CURVE",
"60 -220 OFFCURVE",
"59 -212 OFFCURVE",
"55 -213 CURVE",
"35 -225 OFFCURVE",
"2 -235 OFFCURVE",
"2 -206 CURVE SMOOTH",
"2 -141 OFFCURVE",
"24 -61 OFFCURVE",
"47 6 CURVE",
"54 1 OFFCURVE",
"64 -1 OFFCURVE",
"75 -1 CURVE SMOOTH",
"126 -1 OFFCURVE",
"169 21 OFFCURVE",
"201 57 CURVE SMOOTH",
"232 92 OFFCURVE",
"251 139 OFFCURVE",
"251 191 CURVE SMOOTH",
"251 228 OFFCURVE",
"234 255 OFFCURVE",
"207 255 CURVE SMOOTH"
);
},
{
closed = 1;
nodes = (
"79 19 OFFCURVE",
"67 28 OFFCURVE",
"60 43 CURVE",
"61 46 OFFCURVE",
"63 50 OFFCURVE",
"64 53 CURVE SMOOTH",
"65 56 OFFCURVE",
"66 60 OFFCURVE",
"67 63 CURVE SMOOTH",
"85 113 OFFCURVE",
"105 152 OFFCURVE",
"126 179 CURVE SMOOTH",
"147 206 OFFCURVE",
"166 220 OFFCURVE",
"181 220 CURVE SMOOTH",
"205 220 OFFCURVE",
"216 197 OFFCURVE",
"216 165 CURVE SMOOTH",
"216 122 OFFCURVE",
"204 87 OFFCURVE",
"184 61 CURVE SMOOTH",
"163 35 OFFCURVE",
"133 19 OFFCURVE",
"100 19 CURVE SMOOTH"
);
}
);
width = 261;
}
);
note = p;
unicode = 0070;
},
{
glyphname = paragraph;
lastChange = "2017-06-04 11:33:48 +0000";
layers = (
{
layerId = "05073167-317C-430E-AA64-F7AF394C318F";
paths = (
{
closed = 1;
nodes = (
"322 320 OFFCURVE",
"239 298 OFFCURVE",
"182 262 CURVE SMOOTH",
"125 225 OFFCURVE",
"93 172 OFFCURVE",
"93 111 CURVE SMOOTH",
"93 58 OFFCURVE",
"129 19 OFFCURVE",
"180 6 CURVE",
"175 -9 OFFCURVE",
"170 -24 OFFCURVE",
"165 -39 CURVE SMOOTH",
"160 -54 OFFCURVE",
"154 -69 OFFCURVE",
"149 -84 CURVE",
"110 -185 OFFCURVE",
"63 -222 OFFCURVE",
"22 -222 CURVE SMOOTH",
"-34 -222 OFFCURVE",
"-57 -190 OFFCURVE",
"-57 -143 CURVE SMOOTH",
"-57 -122 OFFCURVE",
"-52 -110 OFFCURVE",
"-41 -102 CURVE",
"-37 -98 OFFCURVE",
"-39 -89 OFFCURVE",
"-46 -89 CURVE",
"-77 -104 OFFCURVE",
"-93 -134 OFFCURVE",
"-93 -167 CURVE SMOOTH",
"-93 -210 OFFCURVE",
"-59 -243 OFFCURVE",
"-2 -243 CURVE SMOOTH",
"114 -243 OFFCURVE",
"213 -183 OFFCURVE",
"268 -58 CURVE SMOOTH",
"288 -13 OFFCURVE",
"308 47 OFFCURVE",
"328 111 CURVE SMOOTH",
"347 174 OFFCURVE",
"365 240 OFFCURVE",
"381 299 CURVE",
"392 300 OFFCURVE",
"404 301 OFFCURVE",
"416 301 CURVE",
"427 304 OFFCURVE",
"430 317 OFFCURVE",
"423 320 CURVE"
);
},
{
closed = 1;
nodes = (
"191 -157 OFFCURVE",
"138 -200 OFFCURVE",
"78 -215 CURVE",
"100 -202 OFFCURVE",
"119 -185 OFFCURVE",
"134 -164 CURVE SMOOTH",
"164 -121 OFFCURVE",
"185 -67 OFFCURVE",
"205 -7 CURVE SMOOTH",
"224 53 OFFCURVE",
"243 121 OFFCURVE",
"261 189 CURVE SMOOTH",
"270 223 OFFCURVE",
"278 255 OFFCURVE",
"286 285 CURVE",
"305 290 OFFCURVE",
"324 294 OFFCURVE",
"344 296 CURVE",
"328 232 OFFCURVE",
"309 163 OFFCURVE",
"289 99 CURVE SMOOTH",
"269 35 OFFCURVE",
"249 -24 OFFCURVE",
"230 -68 CURVE SMOOTH"
);
}
);
width = 392;
}
);
note = paragraph;
unicode = 00B6;
},
{
glyphname = parenleft;
lastChange = "2017-06-04 11:33:48 +0000";
layers = (
{
layerId = "05073167-317C-430E-AA64-F7AF394C318F";
paths = (
{
closed = 1;
nodes = (
"226 562 OFFCURVE",
"152 441 OFFCURVE",
"116 289 CURVE SMOOTH",
"97 214 OFFCURVE",
"92 138 OFFCURVE",
"96 71 CURVE SMOOTH",
"99 3 OFFCURVE",
"111 -57 OFFCURVE",
"130 -100 CURVE",
"137 -108 OFFCURVE",
"147 -104 OFFCURVE",
"146 -93 CURVE",
"139 -74 OFFCURVE",
"134 -48 OFFCURVE",
"131 -22 CURVE",
"127 4 OFFCURVE",
"126 31 OFFCURVE",
"126 52 CURVE SMOOTH",
"126 128 OFFCURVE",
"138 214 OFFCURVE",
"158 297 CURVE SMOOTH",
"178 380 OFFCURVE",
"207 458 OFFCURVE",
"242 517 CURVE SMOOTH",
"266 558 OFFCURVE",
"300 603 OFFCURVE",
"327 628 CURVE",
"334 640 OFFCURVE",
"324 642 OFFCURVE",
"315 637 CURVE"
);
}
);
width = 250;
}
);
note = parenleft;
unicode = 0028;
},
{
glyphname = parenright;
lastChange = "2017-06-04 11:33:48 +0000";
layers = (
{
layerId = "05073167-317C-430E-AA64-F7AF394C318F";
paths = (
{
closed = 1;
nodes = (
"134 -27 OFFCURVE",
"207 94 OFFCURVE",
"243 246 CURVE SMOOTH",
"260 321 OFFCURVE",
"267 397 OFFCURVE",
"264 465 CURVE SMOOTH",
"260 532 OFFCURVE",
"248 592 OFFCURVE",
"229 635 CURVE",
"222 643 OFFCURVE",
"212 640 OFFCURVE",
"213 628 CURVE",
"220 609 OFFCURVE",
"225 584 OFFCURVE",
"229 558 CURVE",
"232 532 OFFCURVE",
"233 504 OFFCURVE",
"233 483 CURVE SMOOTH",
"233 407 OFFCURVE",
"221 321 OFFCURVE",
"201 238 CURVE SMOOTH",
"181 155 OFFCURVE",
"152 78 OFFCURVE",
"117 19 CURVE SMOOTH",
"92 -24 OFFCURVE",
"59 -66 OFFCURVE",
"32 -93 CURVE",
"25 -105 OFFCURVE",
"35 -107 OFFCURVE",
"43 -102 CURVE"
);
}
);
width = 276;
}
);
note = parenright;
unicode = 0029;
},
{
glyphname = period;
lastChange = "2017-06-04 11:33:48 +0000";
layers = (
{
layerId = "05073167-317C-430E-AA64-F7AF394C318F";
paths = (
{
closed = 1;
nodes = (
"51 0 OFFCURVE",
"63 8 OFFCURVE",
"72 18 CURVE",
"80 28 OFFCURVE",
"87 39 OFFCURVE",
"87 50 CURVE SMOOTH",
"87 60 OFFCURVE",
"84 65 OFFCURVE",
"77 65 CURVE SMOOTH",
"65 65 OFFCURVE",
"54 58 OFFCURVE",
"45 49 CURVE SMOOTH",
"36 40 OFFCURVE",
"30 30 OFFCURVE",
"30 22 CURVE SMOOTH",
"30 7 OFFCURVE",
"34 0 OFFCURVE",
"42 0 CURVE SMOOTH"
);
}
);
width = 112;
}
);
note = period;
unicode = 002E;
},
{
glyphname = q;
lastChange = "2017-06-04 11:33:48 +0000";
layers = (
{
layerId = "05073167-317C-430E-AA64-F7AF394C318F";
paths = (
{
closed = 1;
nodes = (
"164 -221 OFFCURVE",
"154 -223 OFFCURVE",
"145 -223 CURVE SMOOTH",
"129 -223 OFFCURVE",
"124 -212 OFFCURVE",
"127 -189 CURVE SMOOTH",
"134 -128 OFFCURVE",
"152 -51 OFFCURVE",
"180 26 CURVE SMOOTH",
"208 103 OFFCURVE",
"244 180 OFFCURVE",
"288 243 CURVE",
"289 246 OFFCURVE",
"286 248 OFFCURVE",
"280 247 CURVE SMOOTH",
"274 246 OFFCURVE",
"267 243 OFFCURVE",
"260 237 CURVE",
"247 249 OFFCURVE",
"231 255 OFFCURVE",
"213 255 CURVE SMOOTH",
"161 255 OFFCURVE",
"115 231 OFFCURVE",
"81 195 CURVE SMOOTH",
"47 159 OFFCURVE",
"25 110 OFFCURVE",
"25 61 CURVE SMOOTH",
"25 18 OFFCURVE",
"40 0 OFFCURVE",
"64 0 CURVE",
"80 4 OFFCURVE",
"101 17 OFFCURVE",
"122 36 CURVE SMOOTH",
"143 55 OFFCURVE",
"165 78 OFFCURVE",
"182 101 CURVE",
"171 81 OFFCURVE",
"160 57 OFFCURVE",
"150 30 CURVE SMOOTH",
"129 -26 OFFCURVE",
"110 -86 OFFCURVE",
"98 -139 CURVE SMOOTH",
"85 -192 OFFCURVE",
"73 -244 OFFCURVE",
"102 -244 CURVE SMOOTH",
"118 -244 OFFCURVE",
"151 -237 OFFCURVE",
"175 -228 CURVE",
"178 -225 OFFCURVE",
"179 -216 OFFCURVE",
"175 -217 CURVE"
);
},
{
closed = 1;
nodes = (
"70 34 OFFCURVE",
"62 46 OFFCURVE",
"62 69 CURVE SMOOTH",
"62 116 OFFCURVE",
"77 158 OFFCURVE",
"102 189 CURVE SMOOTH",
"126 220 OFFCURVE",
"159 239 OFFCURVE",
"198 239 CURVE SMOOTH",
"221 239 OFFCURVE",
"235 225 OFFCURVE",
"236 210 CURVE",
"223 187 OFFCURVE",
"215 174 OFFCURVE",
"198 141 CURVE SMOOTH",
"189 124 OFFCURVE",
"168 98 OFFCURVE",
"145 75 CURVE SMOOTH",
"122 52 OFFCURVE",
"99 34 OFFCURVE",
"86 34 CURVE SMOOTH"
);
}
);
width = 269;
}
);
note = q;
unicode = 0071;
},
{
glyphname = question;
lastChange = "2017-06-04 11:33:48 +0000";
layers = (
{
layerId = "05073167-317C-430E-AA64-F7AF394C318F";
paths = (
{
closed = 1;
nodes = (
"77 0 OFFCURVE",
"88 8 OFFCURVE",
"97 18 CURVE SMOOTH",
"106 28 OFFCURVE",
"113 39 OFFCURVE",
"113 50 CURVE SMOOTH",
"113 58 OFFCURVE",
"110 65 OFFCURVE",
"103 65 CURVE SMOOTH",
"91 65 OFFCURVE",
"79 58 OFFCURVE",
"71 49 CURVE",
"62 40 OFFCURVE",
"55 29 OFFCURVE",
"55 21 CURVE SMOOTH",
"55 7 OFFCURVE",
"59 0 OFFCURVE",
"68 0 CURVE SMOOTH"
);
},
{
closed = 1;
nodes = (
"265 519 OFFCURVE",
"236 507 OFFCURVE",
"213 490 CURVE SMOOTH",
"189 473 OFFCURVE",
"170 449 OFFCURVE",
"161 424 CURVE",
"160 417 OFFCURVE",
"171 407 OFFCURVE",
"176 414 CURVE",
"187 453 OFFCURVE",
"218 484 OFFCURVE",
"267 484 CURVE SMOOTH",
"318 484 OFFCURVE",
"347 451 OFFCURVE",
"347 403 CURVE SMOOTH",
"347 375 OFFCURVE",
"339 352 OFFCURVE",
"324 335 CURVE SMOOTH",
"293 299 OFFCURVE",
"246 273 OFFCURVE",
"198 246 CURVE SMOOTH",
"173 233 OFFCURVE",
"152 216 OFFCURVE",
"134 197 CURVE SMOOTH",
"125 188 OFFCURVE",
"119 180 OFFCURVE",
"116 171 CURVE",
"109 153 OFFCURVE",
"111 137 OFFCURVE",
"119 126 CURVE SMOOTH",
"127 115 OFFCURVE",
"138 113 OFFCURVE",
"151 118 CURVE",
"164 122 OFFCURVE",
"175 130 OFFCURVE",
"179 136 CURVE SMOOTH",
"181 139 OFFCURVE",
"180 140 OFFCURVE",
"175 140 CURVE",
"147 143 OFFCURVE",
"143 165 OFFCURVE",
"154 185 CURVE",
"167 212 OFFCURVE",
"198 230 OFFCURVE",
"232 247 CURVE SMOOTH",
"266 264 OFFCURVE",
"304 282 OFFCURVE",
"334 310 CURVE SMOOTH",
"364 337 OFFCURVE",
"385 373 OFFCURVE",
"385 429 CURVE SMOOTH",
"385 477 OFFCURVE",
"351 519 OFFCURVE",
"294 519 CURVE SMOOTH"
);
}
);
width = 285;
}
);
note = question;
unicode = 003F;
},
{
glyphname = questiondown;
lastChange = "2017-06-04 11:33:48 +0000";
layers = (
{
layerId = "05073167-317C-430E-AA64-F7AF394C318F";
paths = (
{
closed = 1;
nodes = (
"258 255 OFFCURVE",
"246 248 OFFCURVE",
"238 238 CURVE",
"229 228 OFFCURVE",
"222 214 OFFCURVE",
"222 205 CURVE SMOOTH",
"222 197 OFFCURVE",
"225 190 OFFCURVE",
"232 190 CURVE SMOOTH",
"244 190 OFFCURVE",
"256 197 OFFCURVE",
"265 206 CURVE",
"273 215 OFFCURVE",
"280 226 OFFCURVE",
"280 234 CURVE SMOOTH",
"280 248 OFFCURVE",
"276 255 OFFCURVE",
"267 255 CURVE SMOOTH"
);
},
{
closed = 1;
nodes = (
"70 -264 OFFCURVE",
"99 -252 OFFCURVE",
"123 -235 CURVE SMOOTH",
"146 -218 OFFCURVE",
"165 -194 OFFCURVE",
"174 -169 CURVE",
"175 -162 OFFCURVE",
"164 -152 OFFCURVE",
"159 -159 CURVE",
"148 -198 OFFCURVE",
"117 -229 OFFCURVE",
"68 -229 CURVE SMOOTH",
"17 -229 OFFCURVE",
"-12 -196 OFFCURVE",
"-12 -148 CURVE SMOOTH",
"-12 -120 OFFCURVE",
"-4 -97 OFFCURVE",
"11 -79 CURVE SMOOTH",
"42 -44 OFFCURVE",
"89 -18 OFFCURVE",
"138 9 CURVE SMOOTH",
"162 22 OFFCURVE",
"183 39 OFFCURVE",
"201 58 CURVE SMOOTH",
"210 67 OFFCURVE",
"216 76 OFFCURVE",
"219 85 CURVE",
"226 103 OFFCURVE",
"224 118 OFFCURVE",
"216 129 CURVE SMOOTH",
"208 140 OFFCURVE",
"197 141 OFFCURVE",
"184 137 CURVE SMOOTH",
"171 133 OFFCURVE",
"160 126 OFFCURVE",
"156 120 CURVE SMOOTH",
"154 117 OFFCURVE",
"155 115 OFFCURVE",
"160 115 CURVE",
"188 112 OFFCURVE",
"192 90 OFFCURVE",
"181 70 CURVE",
"168 43 OFFCURVE",
"138 25 OFFCURVE",
"104 8 CURVE SMOOTH",
"70 -9 OFFCURVE",
"32 -27 OFFCURVE",
"2 -54 CURVE SMOOTH",
"-28 -82 OFFCURVE",
"-50 -118 OFFCURVE",
"-50 -174 CURVE SMOOTH",
"-50 -222 OFFCURVE",
"-16 -264 OFFCURVE",
"41 -264 CURVE SMOOTH"
);
}
);
width = 285;
}
);
note = questiondown;
unicode = 00BF;
},
{
glyphname = quotedblleft;
lastChange = "2017-06-04 11:33:48 +0000";
layers = (
{
layerId = "05073167-317C-430E-AA64-F7AF394C318F";
paths = (
{
closed = 1;
nodes = (
"152 260 OFFCURVE",
"162 268 OFFCURVE",
"170 276 CURVE SMOOTH",
"178 284 OFFCURVE",
"184 293 OFFCURVE",
"180 297 CURVE",
"173 301 OFFCURVE",
"170 310 OFFCURVE",
"170 324 CURVE SMOOTH",
"170 355 OFFCURVE",
"191 384 OFFCURVE",
"220 403 CURVE",
"224 408 OFFCURVE",
"222 414 OFFCURVE",
"217 414 CURVE",
"170 386 OFFCURVE",
"135 336 OFFCURVE",
"135 295 CURVE SMOOTH",
"135 279 OFFCURVE",
"140 263 OFFCURVE",
"147 260 CURVE"
);
},
{
closed = 1;
nodes = (
"72 260 OFFCURVE",
"82 268 OFFCURVE",
"90 276 CURVE SMOOTH",
"98 284 OFFCURVE",
"104 293 OFFCURVE",
"100 297 CURVE",
"93 301 OFFCURVE",
"90 310 OFFCURVE",
"90 324 CURVE SMOOTH",
"90 355 OFFCURVE",
"111 384 OFFCURVE",
"140 403 CURVE",
"144 408 OFFCURVE",
"142 414 OFFCURVE",
"137 414 CURVE",
"90 386 OFFCURVE",
"55 336 OFFCURVE",
"55 295 CURVE SMOOTH",
"55 279 OFFCURVE",
"60 263 OFFCURVE",
"67 260 CURVE"
);
}
);
width = 167;
}
);
note = quotedblleft;
unicode = 201C;
},
{
glyphname = quotedblright;
lastChange = "2017-06-04 11:33:48 +0000";
layers = (
{
layerId = "05073167-317C-430E-AA64-F7AF394C318F";
paths = (
{
closed = 1;
nodes = (
"120 414 OFFCURVE",
"110 406 OFFCURVE",
"102 398 CURVE SMOOTH",
"94 390 OFFCURVE",
"88 381 OFFCURVE",
"92 377 CURVE",
"99 373 OFFCURVE",
"102 364 OFFCURVE",
"102 350 CURVE SMOOTH",
"102 319 OFFCURVE",
"81 290 OFFCURVE",
"52 271 CURVE",
"48 266 OFFCURVE",
"50 260 OFFCURVE",
"55 260 CURVE",
"102 288 OFFCURVE",
"137 338 OFFCURVE",
"137 379 CURVE SMOOTH",
"137 395 OFFCURVE",
"132 411 OFFCURVE",
"125 414 CURVE"
);
},
{
closed = 1;
nodes = (
"200 414 OFFCURVE",
"190 406 OFFCURVE",
"182 398 CURVE SMOOTH",
"174 390 OFFCURVE",
"168 381 OFFCURVE",
"172 377 CURVE",
"179 373 OFFCURVE",
"182 364 OFFCURVE",
"182 350 CURVE SMOOTH",
"182 319 OFFCURVE",
"161 290 OFFCURVE",
"132 271 CURVE",
"128 266 OFFCURVE",
"130 260 OFFCURVE",
"135 260 CURVE",
"182 288 OFFCURVE",
"217 338 OFFCURVE",
"217 379 CURVE SMOOTH",
"217 395 OFFCURVE",
"212 411 OFFCURVE",
"205 414 CURVE"
);
}
);
width = 167;
}
);
note = quotedblright;
unicode = 201D;
},
{
glyphname = quoteleft;
lastChange = "2017-06-04 11:33:48 +0000";
layers = (
{
layerId = "05073167-317C-430E-AA64-F7AF394C318F";
paths = (
{
closed = 1;
nodes = (
"72 260 OFFCURVE",
"82 268 OFFCURVE",
"90 276 CURVE SMOOTH",
"98 284 OFFCURVE",
"104 293 OFFCURVE",
"100 297 CURVE",
"93 301 OFFCURVE",
"90 310 OFFCURVE",
"90 324 CURVE SMOOTH",
"90 355 OFFCURVE",
"111 384 OFFCURVE",
"140 403 CURVE",
"144 408 OFFCURVE",
"142 414 OFFCURVE",
"137 414 CURVE",
"90 386 OFFCURVE",
"55 336 OFFCURVE",
"55 295 CURVE SMOOTH",
"55 279 OFFCURVE",
"60 263 OFFCURVE",
"67 260 CURVE"
);
}
);
width = 87;
}
);
note = quoteleft;
unicode = 2018;
},
{
glyphname = quoteright;
lastChange = "2017-06-04 11:33:48 +0000";
layers = (
{
layerId = "05073167-317C-430E-AA64-F7AF394C318F";
paths = (
{
closed = 1;
nodes = (
"120 414 OFFCURVE",
"110 406 OFFCURVE",
"102 398 CURVE SMOOTH",
"94 390 OFFCURVE",
"88 381 OFFCURVE",
"92 377 CURVE",
"99 373 OFFCURVE",
"102 364 OFFCURVE",
"102 350 CURVE SMOOTH",
"102 319 OFFCURVE",
"81 290 OFFCURVE",
"52 271 CURVE",
"48 266 OFFCURVE",
"50 260 OFFCURVE",
"55 260 CURVE",
"102 288 OFFCURVE",
"137 338 OFFCURVE",
"137 379 CURVE SMOOTH",
"137 395 OFFCURVE",
"132 411 OFFCURVE",
"125 414 CURVE"
);
}
);
width = 87;
}
);
note = quoteright;
unicode = 2019;
},
{
glyphname = r;
lastChange = "2017-06-04 11:33:48 +0000";
layers = (
{
layerId = "05073167-317C-430E-AA64-F7AF394C318F";
paths = (
{
closed = 1;
nodes = (
"121 247 OFFCURVE",
"114 256 OFFCURVE",
"99 256 CURVE SMOOTH",
"78 256 OFFCURVE",
"51 231 OFFCURVE",
"31 206 CURVE",
"28 201 OFFCURVE",
"34 196 OFFCURVE",
"39 199 CURVE",
"51 215 OFFCURVE",
"66 229 OFFCURVE",
"77 229 CURVE SMOOTH",
"86 229 OFFCURVE",
"90 219 OFFCURVE",
"87 199 CURVE SMOOTH",
"83 172 OFFCURVE",
"77 139 OFFCURVE",
"67 106 CURVE SMOOTH",
"57 73 OFFCURVE",
"46 39 OFFCURVE",
"34 11 CURVE",
"30 4 OFFCURVE",
"32 0 OFFCURVE",
"39 0 CURVE SMOOTH",
"50 0 OFFCURVE",
"69 3 OFFCURVE",
"72 16 CURVE",
"89 78 OFFCURVE",
"106 127 OFFCURVE",
"125 162 CURVE SMOOTH",
"144 197 OFFCURVE",
"165 214 OFFCURVE",
"188 214 CURVE SMOOTH",
"203 214 OFFCURVE",
"211 208 OFFCURVE",
"211 197 CURVE SMOOTH",
"211 192 OFFCURVE",
"213 191 OFFCURVE",
"217 194 CURVE",
"225 202 OFFCURVE",
"235 222 OFFCURVE",
"235 233 CURVE SMOOTH",
"235 248 OFFCURVE",
"221 256 OFFCURVE",
"206 256 CURVE SMOOTH",
"169 256 OFFCURVE",
"137 217 OFFCURVE",
"110 153 CURVE",
"117 180 OFFCURVE",
"121 208 OFFCURVE",
"121 228 CURVE SMOOTH"
);
}
);
width = 195;
}
);
note = r;
unicode = 0072;
},
{
glyphname = ring;
lastChange = "2017-06-04 11:33:48 +0000";
layers = (
{
layerId = "05073167-317C-430E-AA64-F7AF394C318F";
paths = (
{
closed = 1;
nodes = (
"75 375 OFFCURVE",
"82 367 OFFCURVE",
"82 351 CURVE SMOOTH",
"82 334 OFFCURVE",
"72 321 OFFCURVE",
"57 321 CURVE SMOOTH",
"42 321 OFFCURVE",
"35 330 OFFCURVE",
"35 345 CURVE SMOOTH",
"35 364 OFFCURVE",
"44 375 OFFCURVE",
"60 375 CURVE SMOOTH"
);
},
{
closed = 1;
nodes = (
"76 310 OFFCURVE",
"97 333 OFFCURVE",
"97 358 CURVE SMOOTH",
"97 374 OFFCURVE",
"89 387 OFFCURVE",
"70 387 CURVE SMOOTH",
"41 387 OFFCURVE",
"20 365 OFFCURVE",
"20 338 CURVE SMOOTH",
"20 322 OFFCURVE",
"30 310 OFFCURVE",
"47 310 CURVE SMOOTH"
);
}
);
width = 117;
}
);
note = ring;
unicode = 02DA;
},
{
glyphname = s;
lastChange = "2017-06-04 11:33:48 +0000";
layers = (
{
layerId = "05073167-317C-430E-AA64-F7AF394C318F";
paths = (
{
closed = 1;
nodes = (
"95 256 OFFCURVE",
"67 229 OFFCURVE",
"67 194 CURVE SMOOTH",
"67 170 OFFCURVE",
"81 150 OFFCURVE",
"95 130 CURVE SMOOTH",
"109 109 OFFCURVE",
"123 87 OFFCURVE",
"123 62 CURVE SMOOTH",
"123 33 OFFCURVE",
"103 12 OFFCURVE",
"68 12 CURVE SMOOTH",
"45 12 OFFCURVE",
"27 23 OFFCURVE",
"23 46 CURVE",
"20 57 OFFCURVE",
"26 72 OFFCURVE",
"37 83 CURVE",
"40 87 OFFCURVE",
"35 93 OFFCURVE",
"31 90 CURVE SMOOTH",
"12 75 OFFCURVE",
"-5 46 OFFCURVE",
"-5 34 CURVE SMOOTH",
"-5 18 OFFCURVE",
"25 0 OFFCURVE",
"66 0 CURVE SMOOTH",
"126 0 OFFCURVE",
"156 33 OFFCURVE",
"156 76 CURVE SMOOTH",
"156 103 OFFCURVE",
"143 124 OFFCURVE",
"129 144 CURVE SMOOTH",
"115 163 OFFCURVE",
"101 182 OFFCURVE",
"101 203 CURVE SMOOTH",
"101 230 OFFCURVE",
"116 243 OFFCURVE",
"139 243 CURVE SMOOTH",
"154 243 OFFCURVE",
"164 236 OFFCURVE",
"167 223 CURVE",
"170 214 OFFCURVE",
"168 200 OFFCURVE",
"164 191 CURVE",
"163 187 OFFCURVE",
"169 184 OFFCURVE",
"172 187 CURVE",
"179 199 OFFCURVE",
"186 220 OFFCURVE",
"186 235 CURVE SMOOTH",
"186 246 OFFCURVE",
"166 256 OFFCURVE",
"139 256 CURVE SMOOTH"
);
}
);
width = 188;
}
);
note = s;
unicode = 0073;
},
{
glyphname = section;
lastChange = "2017-06-04 11:33:48 +0000";
layers = (
{
layerId = "05073167-317C-430E-AA64-F7AF394C318F";
paths = (
{
closed = 1;
nodes = (
"309 517 OFFCURVE",
"248 492 OFFCURVE",
"207 451 CURVE SMOOTH",
"166 410 OFFCURVE",
"143 351 OFFCURVE",
"143 283 CURVE SMOOTH",
"143 208 OFFCURVE",
"159 149 OFFCURVE",
"176 89 CURVE SMOOTH",
"192 29 OFFCURVE",
"208 -30 OFFCURVE",
"208 -103 CURVE SMOOTH",
"208 -172 OFFCURVE",
"173 -214 OFFCURVE",
"102 -214 CURVE SMOOTH",
"67 -214 OFFCURVE",
"39 -202 OFFCURVE",
"19 -185 CURVE SMOOTH",
"-1 -168 OFFCURVE",
"-13 -144 OFFCURVE",
"-13 -117 CURVE SMOOTH",
"-13 -90 OFFCURVE",
"-6 -71 OFFCURVE",
"13 -51 CURVE",
"16 -44 OFFCURVE",
"11 -38 OFFCURVE",
"6 -41 CURVE",
"-31 -76 OFFCURVE",
"-51 -114 OFFCURVE",
"-51 -145 CURVE SMOOTH",
"-51 -170 OFFCURVE",
"-38 -195 OFFCURVE",
"-16 -213 CURVE SMOOTH",
"6 -231 OFFCURVE",
"36 -243 OFFCURVE",
"75 -243 CURVE SMOOTH",
"151 -243 OFFCURVE",
"212 -218 OFFCURVE",
"253 -177 CURVE SMOOTH",
"294 -136 OFFCURVE",
"317 -77 OFFCURVE",
"317 -9 CURVE SMOOTH",
"317 67 OFFCURVE",
"301 131 OFFCURVE",
"285 192 CURVE SMOOTH",
"268 252 OFFCURVE",
"252 312 OFFCURVE",
"252 383 CURVE SMOOTH",
"252 451 OFFCURVE",
"291 488 OFFCURVE",
"359 488 CURVE SMOOTH",
"415 488 OFFCURVE",
"444 456 OFFCURVE",
"444 417 CURVE SMOOTH",
"444 398 OFFCURVE",
"437 379 OFFCURVE",
"430 368 CURVE",
"429 361 OFFCURVE",
"434 356 OFFCURVE",
"438 360 CURVE",
"455 383 OFFCURVE",
"475 415 OFFCURVE",
"475 439 CURVE SMOOTH",
"475 479 OFFCURVE",
"441 517 OFFCURVE",
"385 517 CURVE SMOOTH"
);
},
{
closed = 1;
nodes = (
"222 287 OFFCURVE",
"236 230 OFFCURVE",
"252 168 CURVE SMOOTH",
"267 106 OFFCURVE",
"281 39 OFFCURVE",
"281 -37 CURVE SMOOTH",
"281 -125 OFFCURVE",
"235 -189 OFFCURVE",
"178 -208 CURVE",
"214 -180 OFFCURVE",
"240 -134 OFFCURVE",
"240 -69 CURVE SMOOTH",
"240 -2 OFFCURVE",
"225 55 OFFCURVE",
"210 116 CURVE SMOOTH",
"194 177 OFFCURVE",
"179 241 OFFCURVE",
"179 320 CURVE SMOOTH",
"179 407 OFFCURVE",
"226 467 OFFCURVE",
"282 483 CURVE",
"243 452 OFFCURVE",
"222 403 OFFCURVE",
"222 350 CURVE SMOOTH"
);
}
);
width = 395;
}
);
note = section;
unicode = 00A7;
},
{
glyphname = semicolon;
lastChange = "2017-06-04 11:33:48 +0000";
layers = (
{
layerId = "05073167-317C-430E-AA64-F7AF394C318F";
paths = (
{
closed = 1;
nodes = (
"104 191 OFFCURVE",
"115 198 OFFCURVE",
"124 209 CURVE",
"132 220 OFFCURVE",
"139 231 OFFCURVE",
"139 242 CURVE SMOOTH",
"139 251 OFFCURVE",
"136 256 OFFCURVE",
"129 256 CURVE SMOOTH",
"117 256 OFFCURVE",
"106 249 OFFCURVE",
"97 240 CURVE SMOOTH",
"88 231 OFFCURVE",
"82 221 OFFCURVE",
"82 213 CURVE SMOOTH",
"82 198 OFFCURVE",
"86 191 OFFCURVE",
"95 191 CURVE SMOOTH"
);
},
{
closed = 1;
nodes = (
"64 68 OFFCURVE",
"54 60 OFFCURVE",
"46 52 CURVE SMOOTH",
"38 44 OFFCURVE",
"32 35 OFFCURVE",
"36 31 CURVE",
"43 27 OFFCURVE",
"46 18 OFFCURVE",
"46 4 CURVE SMOOTH",
"46 -27 OFFCURVE",
"25 -56 OFFCURVE",
"-4 -75 CURVE",
"-8 -80 OFFCURVE",
"-6 -86 OFFCURVE",
"-1 -86 CURVE",
"46 -58 OFFCURVE",
"81 -8 OFFCURVE",
"81 33 CURVE SMOOTH",
"81 49 OFFCURVE",
"76 65 OFFCURVE",
"69 68 CURVE"
);
}
);
width = 156;
}
);
note = semicolon;
unicode = 003B;
},
{
glyphname = slash;
lastChange = "2017-06-04 11:33:48 +0000";
layers = (
{
layerId = "05073167-317C-430E-AA64-F7AF394C318F";
paths = (
{
closed = 1;
nodes = (
"382 636 OFFCURVE",
"367 637 OFFCURVE",
"359 630 CURVE",
"324 571 OFFCURVE",
"280 496 OFFCURVE",
"233 415 CURVE SMOOTH",
"185 334 OFFCURVE",
"136 248 OFFCURVE",
"92 169 CURVE SMOOTH",
"69 130 OFFCURVE",
"48 93 OFFCURVE",
"28 58 CURVE SMOOTH",
"8 23 OFFCURVE",
"-9 -7 OFFCURVE",
"-24 -33 CURVE",
"-27 -45 OFFCURVE",
"-10 -48 OFFCURVE",
"-1 -37 CURVE",
"24 11 OFFCURVE",
"66 85 OFFCURVE",
"112 166 CURVE SMOOTH",
"158 247 OFFCURVE",
"209 338 OFFCURVE",
"257 420 CURVE SMOOTH",
"305 502 OFFCURVE",
"348 576 OFFCURVE",
"379 625 CURVE"
);
}
);
width = 210;
}
);
note = slash;
unicode = 002F;
},
{
glyphname = Adieresis;
lastChange = "2017-06-04 11:33:48 +0000";
layers = (
{
layerId = "05073167-317C-430E-AA64-F7AF394C318F";
paths = (
{
closed = 1;
nodes = (
"956 667 OFFCURVE",
"971 689 OFFCURVE",
"971 708 CURVE SMOOTH",
"971 717 OFFCURVE",
"968 721 OFFCURVE",
"962 721 CURVE SMOOTH",
"941 721 OFFCURVE",
"926 697 OFFCURVE",
"926 684 CURVE SMOOTH",
"926 673 OFFCURVE",
"930 667 OFFCURVE",
"937 667 CURVE SMOOTH"
);
},
{
closed = 1;
nodes = (
"1030 667 OFFCURVE",
"1046 689 OFFCURVE",
"1046 708 CURVE SMOOTH",
"1046 717 OFFCURVE",
"1043 721 OFFCURVE",
"1037 721 CURVE SMOOTH",
"1017 721 OFFCURVE",
"1002 697 OFFCURVE",
"1002 684 CURVE SMOOTH",
"1002 673 OFFCURVE",
"1006 667 OFFCURVE",
"1014 667 CURVE SMOOTH"
);
},
{
closed = 1;
nodes = (
"964 598 OFFCURVE",
"914 613 OFFCURVE",
"861 625 CURVE SMOOTH",
"808 636 OFFCURVE",
"751 644 OFFCURVE",
"696 644 CURVE SMOOTH",
"567 644 OFFCURVE",
"481 573 OFFCURVE",
"465 442 CURVE",
"466 435 OFFCURVE",
"472 433 OFFCURVE",
"475 440 CURVE",
"491 559 OFFCURVE",
"561 616 OFFCURVE",
"661 616 CURVE SMOOTH",
"749 616 OFFCURVE",
"848 594 OFFCURVE",
"937 565 CURVE",
"813 468 OFFCURVE",
"722 374 OFFCURVE",
"646 294 CURVE",
"623 293 OFFCURVE",
"602 293 OFFCURVE",
"584 293 CURVE",
"565 292 OFFCURVE",
"552 292 OFFCURVE",
"544 291 CURVE",
"539 290 OFFCURVE",
"533 289 OFFCURVE",
"528 287 CURVE SMOOTH",
"516 282 OFFCURVE",
"507 275 OFFCURVE",
"503 270 CURVE",
"501 267 OFFCURVE",
"502 266 OFFCURVE",
"505 265 CURVE",
"542 270 OFFCURVE",
"583 274 OFFCURVE",
"629 277 CURVE",
"594 240 OFFCURVE",
"563 207 OFFCURVE",
"534 180 CURVE SMOOTH",
"442 93 OFFCURVE",
"335 43 OFFCURVE",
"234 43 CURVE SMOOTH",
"157 43 OFFCURVE",
"109 75 OFFCURVE",
"89 116 CURVE SMOOTH",
"69 157 OFFCURVE",
"75 206 OFFCURVE",
"107 241 CURVE",
"108 250 OFFCURVE",
"101 254 OFFCURVE",
"97 251 CURVE",
"53 199 OFFCURVE",
"41 135 OFFCURVE",
"57 86 CURVE SMOOTH",
"72 37 OFFCURVE",
"114 0 OFFCURVE",
"182 0 CURVE SMOOTH",
"317 0 OFFCURVE",
"425 58 OFFCURVE",
"532 155 CURVE SMOOTH",
"571 190 OFFCURVE",
"611 231 OFFCURVE",
"655 278 CURVE",
"714 281 OFFCURVE",
"774 282 OFFCURVE",
"837 282 CURVE",
"825 227 OFFCURVE",
"819 172 OFFCURVE",
"819 119 CURVE SMOOTH",
"819 50 OFFCURVE",
"843 0 OFFCURVE",
"887 0 CURVE SMOOTH",
"903 0 OFFCURVE",
"923 13 OFFCURVE",
"943 31 CURVE SMOOTH",
"963 49 OFFCURVE",
"982 71 OFFCURVE",
"995 94 CURVE SMOOTH",
"998 99 OFFCURVE",
"992 103 OFFCURVE",
"988 100 CURVE",
"963 63 OFFCURVE",
"938 44 OFFCURVE",
"912 44 CURVE SMOOTH",
"873 44 OFFCURVE",
"859 81 OFFCURVE",
"859 145 CURVE SMOOTH",
"859 230 OFFCURVE",
"873 313 OFFCURVE",
"898 386 CURVE SMOOTH",
"922 459 OFFCURVE",
"957 522 OFFCURVE",
"1001 570 CURVE",
"1004 574 OFFCURVE",
"1006 577 OFFCURVE",
"1006 580 CURVE SMOOTH",
"1006 582 OFFCURVE",
"1005 584 OFFCURVE",
"1004 585 CURVE"
);
},
{
closed = 1;
nodes = (
"822 295 OFFCURVE",
"797 295 OFFCURVE",
"766 295 CURVE SMOOTH",
"735 295 OFFCURVE",
"703 295 OFFCURVE",
"671 294 CURVE",
"751 377 OFFCURVE",
"842 469 OFFCURVE",
"959 564 CURVE",
"903 488 OFFCURVE",
"863 392 OFFCURVE",
"840 295 CURVE"
);
}
);
width = 996;
}
);
note = Adieresis;
unicode = 00C4;
},
